{"glyphs":{"0":{"ha":924,"x_min":93,"x_max":827,"o":"m 93 361 q 120 511 93 441 q 197 633 148 582 q 460 743 302 743 q 730 633 628 743 q 827 358 827 528 q 726 91 827 201 q 460 -24 621 -24 q 191 89 294 -24 q 93 361 93 197 m 201 363 q 221 247 201 301 q 277 151 241 193 q 475 56 357 56 q 654 148 586 56 q 719 358 719 234 q 644 576 719 492 q 446 663 567 663 q 268 576 336 663 q 201 363 201 492 z "},"1":{"ha":577,"x_min":68,"x_max":528,"o":"m 85 58 l 256 87 l 256 604 l 73 571 l 68 581 l 76 639 l 377 744 l 394 726 l 365 613 l 365 87 l 523 64 l 528 54 l 518 0 l 81 0 l 79 6 l 85 58 z "},"2":{"ha":808,"x_min":84,"x_max":718,"o":"m 90 68 q 427 336 338 235 q 505 501 505 423 q 465 601 505 562 q 363 644 422 644 q 138 564 235 644 q 93 626 93 592 q 335 738 203 715 q 407 743 366 743 q 493 728 448 743 q 572 688 538 714 q 645 532 645 629 q 553 328 645 425 q 399 197 492 264 l 230 73 q 613 105 604 73 l 640 215 q 696 219 665 222 l 718 0 l 113 0 q 90 68 84 24 z "},"3":{"ha":694,"x_min":90,"x_max":633,"o":"m 570 535 q 374 292 570 384 q 581 213 515 283 q 633 61 633 155 q 514 -170 633 -82 q 246 -252 402 -252 q 123 -230 178 -252 q 93 -212 105 -222 l 93 -206 q 127 -107 93 -144 q 254 -178 180 -159 q 308 -184 277 -184 q 376 -167 340 -184 q 441 -121 413 -150 q 500 33 500 -57 q 441 186 500 131 q 325 233 389 233 q 219 220 261 233 q 203 263 203 245 q 204 290 203 286 q 409 431 349 333 q 433 509 433 470 q 424 572 433 548 q 399 616 416 597 q 300 656 361 656 q 196 633 239 656 q 134 593 153 610 q 90 652 93 610 q 232 728 145 701 q 333 743 277 743 q 432 727 389 743 q 507 684 476 711 q 570 535 570 626 z "},"4":{"ha":809,"x_min":56,"x_max":772,"o":"m 770 99 q 754 0 772 33 l 600 0 l 600 -229 q 572 -247 588 -239 q 486 -267 536 -264 l 486 0 l 88 0 q 56 75 60 37 q 282 377 157 174 q 488 764 413 601 q 610 686 555 735 q 555 595 588 648 q 403 372 454 444 q 164 67 229 135 l 486 77 l 486 347 q 600 393 520 370 l 600 79 q 770 99 697 85 z "},"5":{"ha":694,"x_min":52,"x_max":642,"o":"m 161 334 q 357 359 268 359 q 557 286 474 359 q 642 98 642 210 q 518 -168 642 -71 q 249 -256 407 -256 q 98 -210 159 -256 q 52 -165 71 -191 q 107 -68 55 -106 q 311 -184 196 -184 q 452 -115 397 -184 q 505 57 505 -47 q 372 260 505 215 q 270 276 328 276 q 117 257 212 276 q 90 291 96 265 l 144 711 q 418 701 348 701 q 508 702 489 701 q 538 706 528 703 q 559 722 557 710 l 574 768 l 590 768 q 627 760 614 768 l 596 591 q 474 588 576 588 q 208 604 372 588 l 161 334 z "},"6":{"ha":811,"x_min":77,"x_max":740,"o":"m 276 389 q 239 420 247 389 q 338 519 271 475 q 480 568 412 568 q 594 549 548 568 q 673 495 641 530 q 740 310 740 425 q 646 77 740 175 q 402 -24 549 -24 q 163 83 254 -24 q 77 329 77 183 q 248 724 77 559 q 599 910 395 864 q 611 843 621 878 q 340 689 450 800 q 205 350 205 554 q 273 126 205 209 q 439 49 338 49 q 578 112 522 49 q 629 256 629 170 q 574 417 629 360 q 433 469 522 469 q 276 389 345 469 z "},"7":{"ha":811,"x_min":78,"x_max":747,"o":"m 214 -214 q 380 134 214 -214 q 633 622 553 475 q 269 610 324 616 q 200 600 214 604 q 177 576 180 593 l 156 479 q 127 474 140 474 q 103 475 115 474 l 78 711 l 730 711 q 739 696 735 702 q 744 685 742 690 q 747 652 747 675 q 627 435 678 536 l 541 260 q 472 104 507 187 l 402 -72 q 334 -264 367 -164 q 264 -247 296 -262 q 214 -214 232 -232 z "},"8":{"ha":811,"x_min":90,"x_max":722,"o":"m 90 212 q 286 482 90 363 q 170 567 201 532 q 113 696 113 633 q 136 805 113 760 q 201 883 160 851 q 417 949 287 949 q 613 888 541 949 q 680 743 680 831 q 562 556 680 649 q 488 503 527 529 q 639 406 597 446 q 701 329 681 366 q 722 234 722 291 q 696 127 722 177 q 627 43 671 77 q 389 -24 536 -24 q 167 46 249 -24 q 90 212 90 113 m 420 538 q 551 678 532 608 q 557 732 557 703 q 546 788 557 762 q 512 834 534 814 q 390 877 465 877 q 232 796 269 877 q 220 739 220 771 q 237 678 220 707 q 281 625 254 650 q 420 538 322 589 m 347 447 q 215 225 215 365 q 264 103 215 152 q 417 47 321 47 q 547 88 492 47 q 610 218 610 136 q 448 392 610 301 l 347 447 z "},"9":{"ha":811,"x_min":76,"x_max":742,"o":"m 199 -189 q 476 -14 362 -141 q 612 369 612 138 q 544 592 612 511 q 375 669 478 669 q 239 606 294 669 q 188 473 188 546 q 203 354 188 400 q 244 278 218 308 q 390 218 298 218 q 510 290 462 218 q 535 331 524 311 q 572 298 564 331 q 479 179 538 230 q 343 119 410 119 q 229 140 277 119 q 148 200 182 161 q 76 409 76 281 q 170 642 76 545 q 412 743 269 743 q 661 635 571 743 q 742 390 742 539 q 568 -48 742 134 q 212 -256 415 -208 q 199 -189 191 -222 z "},"\u0001":{"ha":0,"x_min":0,"x_max":0,"o":""},"\u0002":{"ha":0,"x_min":0,"x_max":0,"o":""},"\u0003":{"ha":0,"x_min":0,"x_max":0,"o":""},"\u0004":{"ha":0,"x_min":0,"x_max":0,"o":""},"\u0005":{"ha":0,"x_min":0,"x_max":0,"o":""},"\u0006":{"ha":0,"x_min":0,"x_max":0,"o":""},"\u0007":{"ha":0,"x_min":0,"x_max":0,"o":""},"\b":{"ha":0,"x_min":0,"x_max":0,"o":""},"\t":{"ha":0,"x_min":0,"x_max":0,"o":""},"\u0010":{"ha":0,"x_min":0,"x_max":0,"o":""},"\u0011":{"ha":0,"x_min":0,"x_max":0,"o":""},"\u0012":{"ha":0,"x_min":0,"x_max":0,"o":""},"\u0013":{"ha":0,"x_min":0,"x_max":0,"o":""},"\u0014":{"ha":0,"x_min":0,"x_max":0,"o":""},"\u0015":{"ha":0,"x_min":0,"x_max":0,"o":""},"\u0016":{"ha":0,"x_min":0,"x_max":0,"o":""},"\u0017":{"ha":0,"x_min":0,"x_max":0,"o":""},"\u0018":{"ha":0,"x_min":0,"x_max":0,"o":""},"\u0019":{"ha":0,"x_min":0,"x_max":0,"o":""}," ":{"ha":463,"x_min":0,"x_max":0,"o":""},"!":{"ha":347,"x_min":90,"x_max":256,"o":"m 106 1016 q 167 1023 141 1023 q 234 1016 193 1023 q 223 688 231 833 q 210 449 215 543 q 197 233 205 355 q 170 229 184 229 q 142 233 155 229 q 106 1016 113 686 m 124 3 q 115 11 124 3 q 98 34 105 20 q 90 63 90 48 q 96 93 90 78 q 113 119 102 108 q 161 146 138 146 q 199 140 184 146 q 228 123 215 134 q 256 78 256 100 q 250 41 256 56 q 231 14 243 26 q 172 -14 205 -14 q 124 3 143 -14 z "},"\"":{"ha":579,"x_min":120,"x_max":462,"o":"m 347 1013 q 399 1023 372 1023 q 462 1003 427 1023 q 439 713 462 816 q 408 704 421 704 q 361 721 383 704 q 354 825 356 755 q 351 922 353 895 q 347 1013 349 993 m 212 713 q 182 704 195 704 q 136 721 156 704 q 131 798 133 764 q 126 861 128 831 l 123 920 q 120 1013 120 972 q 174 1023 146 1023 q 235 1003 201 1023 q 212 713 235 863 z "},"#":{"ha":924,"x_min":66,"x_max":851,"o":"m 247 273 l 83 273 q 98 353 66 319 l 265 353 l 311 559 l 159 559 q 174 639 145 606 l 330 639 l 391 909 q 454 895 433 909 l 395 639 l 620 639 l 682 909 q 745 895 724 909 l 686 639 l 844 639 q 828 559 851 595 l 668 559 l 621 353 l 767 353 q 751 273 774 306 l 603 273 l 532 -35 q 496 -30 516 -37 l 470 -21 l 536 273 l 312 273 l 241 -35 q 205 -30 224 -37 q 180 -21 186 -23 l 247 273 m 555 353 l 602 559 l 377 559 l 330 353 l 555 353 z "},"$":{"ha":811,"x_min":91,"x_max":734,"o":"m 138 276 q 192 267 168 279 q 199 152 192 182 q 358 68 260 93 l 374 444 q 203 549 249 507 q 135 636 158 592 q 113 738 113 681 q 133 844 113 795 q 191 929 154 892 q 389 1020 268 1006 l 392 1112 q 466 1108 431 1123 l 462 1021 q 616 989 550 1016 q 716 943 683 963 l 668 732 q 616 739 645 728 q 614 782 616 762 q 612 823 613 802 q 607 857 610 843 q 457 925 544 907 l 440 573 q 545 519 492 547 q 639 454 597 490 q 734 256 734 371 q 649 61 734 136 q 426 -23 565 -14 l 425 -117 q 351 -113 385 -125 l 354 -24 q 153 23 239 -18 q 91 64 115 41 l 138 276 m 387 934 q 378 935 382 935 l 370 935 q 260 891 300 935 q 224 783 224 852 q 319 640 224 702 q 380 604 347 621 l 387 934 m 441 58 q 604 149 565 58 q 618 221 618 182 q 603 287 618 260 q 564 335 589 313 q 435 414 526 368 l 428 58 l 441 58 z "},"%":{"ha":1155,"x_min":81,"x_max":1074,"o":"m 300 514 q 206 533 247 514 q 137 586 165 553 q 81 759 81 652 q 153 949 81 874 q 329 1023 224 1023 q 504 952 442 1023 q 562 776 562 886 q 484 586 562 661 q 300 514 410 514 m 242 626 q 251 613 242 626 q 285 586 260 600 q 334 572 310 572 q 377 582 359 572 q 410 612 395 591 q 439 723 439 655 q 429 833 439 791 q 401 903 419 874 q 303 960 366 960 q 230 917 257 960 q 202 801 202 873 q 213 691 202 729 q 242 626 224 652 m 594 224 q 613 327 594 279 q 666 411 633 376 q 841 484 737 484 q 1016 414 955 484 q 1074 238 1074 347 q 997 47 1074 121 q 812 -24 923 -24 q 650 47 710 -24 q 594 224 594 114 m 715 239 q 725 152 715 191 q 754 87 736 114 q 851 33 793 33 q 944 125 921 33 q 951 199 951 157 q 914 365 951 308 q 815 422 877 422 q 715 239 715 422 m 884 1109 q 914 1097 898 1107 q 939 1075 930 1087 l 290 -85 q 233 -53 258 -79 l 884 1109 z "},"&":{"ha":1039,"x_min":87,"x_max":981,"o":"m 734 73 q 444 -24 608 -24 q 182 47 275 -24 q 87 243 87 118 q 140 394 87 330 q 292 516 178 439 q 192 770 192 664 q 269 958 192 886 q 438 1023 337 1023 q 591 960 535 1023 q 644 806 644 901 q 513 579 644 689 q 435 523 475 548 q 745 229 551 375 q 840 465 811 335 q 923 418 890 458 q 945 380 937 400 q 897 267 933 330 q 830 167 861 205 q 981 72 931 101 q 939 1 966 26 q 882 -33 911 -25 q 734 73 787 33 m 399 570 q 479 665 459 627 q 513 777 513 729 q 505 854 513 825 q 483 904 497 883 q 397 949 451 949 q 343 927 363 949 q 304 822 304 884 q 399 570 304 709 m 329 467 q 221 267 221 391 q 281 118 221 179 q 459 52 347 52 q 663 131 572 52 l 574 208 q 329 467 423 342 z "},"'":{"ha":347,"x_min":120,"x_max":235,"o":"m 212 713 q 182 704 195 704 q 136 721 156 704 q 131 798 133 764 q 126 861 128 831 l 123 920 q 120 1013 120 972 q 174 1023 146 1023 q 235 1003 201 1023 q 212 713 235 863 z "},"(":{"ha":579,"x_min":68,"x_max":510,"o":"m 68 409 q 168 815 68 626 q 416 1103 260 992 q 427 1100 419 1107 q 443 1065 443 1086 q 250 800 314 932 q 168 441 168 635 q 269 57 168 229 q 510 -195 357 -92 q 431 -294 498 -264 q 95 194 172 -109 q 68 409 68 296 z "},")":{"ha":579,"x_min":68,"x_max":510,"o":"m 510 402 q 410 -4 510 185 q 163 -292 318 -181 q 151 -289 159 -296 q 136 -254 136 -275 q 329 11 265 -121 q 411 370 411 176 q 309 754 411 582 q 69 1006 221 903 q 147 1105 81 1075 q 484 617 407 920 q 510 402 510 515 z "},"*":{"ha":696,"x_min":106,"x_max":589,"o":"m 583 898 q 589 862 589 884 q 583 823 589 840 l 401 829 l 433 652 q 361 628 410 630 l 310 799 l 153 719 q 106 779 120 736 l 252 878 l 129 1004 q 172 1065 136 1038 l 310 952 l 394 1115 l 406 1117 q 466 1094 433 1117 l 401 926 l 583 898 z "},"+":{"ha":810,"x_min":98,"x_max":707,"o":"m 701 425 q 707 393 707 402 q 701 361 707 384 l 440 361 l 440 94 q 406 89 420 89 q 370 94 391 89 l 370 361 l 109 361 q 109 425 98 393 l 370 425 l 370 686 q 405 691 386 691 q 440 686 425 691 l 440 425 l 701 425 z "},",":{"ha":347,"x_min":83,"x_max":264,"o":"m 107 33 q 98 60 98 44 q 105 91 98 77 q 124 118 113 106 q 173 146 151 146 q 210 138 195 146 q 238 115 226 129 q 264 51 264 85 q 258 -14 264 17 q 241 -71 252 -45 q 113 -230 199 -171 q 83 -195 85 -224 q 96 -182 84 -195 q 121 -151 107 -170 q 156 -68 156 -100 q 147 -20 156 -37 q 127 9 138 -3 l 107 33 z "},"-":{"ha":441,"x_min":50,"x_max":386,"o":"m 64 343 q 73 423 50 385 l 376 423 q 368 343 386 384 l 64 343 z "},".":{"ha":347,"x_min":90,"x_max":256,"o":"m 124 3 q 114 11 124 3 q 98 34 105 20 q 90 63 90 48 q 96 93 90 78 q 113 119 102 108 q 161 146 138 146 q 199 140 184 146 q 228 123 215 134 q 256 78 256 100 q 250 41 256 56 q 231 14 243 26 q 171 -14 204 -14 q 124 3 142 -14 z "},"/":{"ha":581,"x_min":57,"x_max":524,"o":"m 454 1090 q 498 1080 479 1090 q 524 1065 518 1070 l 124 -110 q 57 -87 98 -110 l 454 1090 z "},":":{"ha":347,"x_min":90,"x_max":256,"o":"m 231 466 q 225 459 231 466 q 204 445 220 453 q 173 437 189 437 q 143 444 158 437 q 117 461 129 450 q 90 508 90 486 q 96 545 90 530 q 113 572 102 560 q 161 599 138 599 q 199 593 184 599 q 228 576 215 587 q 256 530 256 552 q 250 493 256 508 q 231 466 243 478 m 124 3 q 115 11 124 3 q 98 34 105 20 q 90 63 90 48 q 96 93 90 78 q 113 119 102 108 q 161 146 138 146 q 199 140 184 146 q 228 123 215 134 q 256 78 256 100 q 250 41 256 56 q 231 14 243 26 q 172 -14 205 -14 q 124 3 143 -14 z "},";":{"ha":347,"x_min":83,"x_max":264,"o":"m 231 466 q 225 459 231 466 q 204 445 220 453 q 173 437 189 437 q 143 444 158 437 q 117 461 129 450 q 90 508 90 486 q 96 545 90 530 q 113 572 102 560 q 161 599 138 599 q 199 593 184 599 q 228 576 215 587 q 256 530 256 552 q 250 493 256 508 q 231 466 243 478 m 107 33 q 98 60 98 44 q 106 91 98 77 q 125 118 113 106 q 174 146 152 146 q 211 138 195 146 q 239 115 227 129 q 264 51 264 84 q 258 -14 264 17 q 241 -71 252 -45 q 113 -230 199 -170 q 83 -195 85 -224 q 96 -182 84 -195 q 121 -151 107 -170 q 157 -68 157 -99 q 148 -20 157 -37 q 127 9 138 -3 l 107 33 z "},"<":{"ha":809,"x_min":94,"x_max":712,"o":"m 97 368 q 109 415 94 395 l 667 806 q 712 747 705 792 l 177 390 l 707 32 q 665 -29 699 -12 l 97 368 z "},"=":{"ha":810,"x_min":98,"x_max":706,"o":"m 701 541 q 706 509 706 520 q 701 477 706 497 l 109 477 q 109 541 98 509 l 701 541 m 701 306 q 706 274 706 286 q 701 242 706 262 l 109 242 q 109 306 98 273 l 701 306 z "},">":{"ha":809,"x_min":99,"x_max":712,"o":"m 629 389 l 99 745 q 140 806 104 787 l 709 410 q 699 363 712 385 l 149 -29 q 104 31 111 -15 l 629 389 z "},"?":{"ha":694,"x_min":76,"x_max":604,"o":"m 346 442 q 338 431 346 442 q 322 394 330 420 q 315 326 315 368 q 328 232 315 283 q 270 222 302 212 q 235 366 235 311 q 247 454 235 420 q 280 517 259 488 q 391 620 315 564 q 456 683 439 655 q 484 776 484 732 q 476 848 484 820 q 453 896 469 876 q 366 937 419 937 q 212 882 286 937 q 155 827 180 858 q 86 903 106 852 q 76 949 77 926 q 192 1005 128 988 q 314 1023 255 1023 q 426 1002 372 1023 q 519 945 480 982 q 604 743 604 867 q 502 563 604 633 q 443 525 474 544 q 387 485 412 505 q 346 442 361 465 m 257 3 q 248 11 257 3 q 231 34 239 20 q 224 63 224 48 q 230 93 224 78 q 247 119 236 108 q 294 146 271 146 q 333 140 317 146 q 361 123 348 134 q 390 78 390 100 q 383 41 390 56 q 365 14 376 26 q 304 -14 338 -14 q 257 3 276 -14 z "},"@":{"ha":1389,"x_min":117,"x_max":1272,"o":"m 926 -233 q 627 -311 794 -311 q 259 -162 404 -311 q 117 209 117 -15 q 216 587 117 411 q 472 860 310 758 q 829 965 637 965 q 1152 835 1030 965 q 1272 500 1272 707 q 1153 134 1272 290 q 968 -8 1076 34 q 854 -31 913 -29 l 834 -20 l 789 120 l 663 -24 q 475 49 545 -24 q 409 220 409 117 q 471 472 409 352 q 612 646 526 578 q 755 711 694 711 q 951 663 883 711 l 882 160 l 926 53 q 1006 84 964 53 q 1077 150 1048 116 q 1130 229 1106 183 q 1183 453 1183 334 q 1156 650 1183 571 q 1076 781 1128 728 q 768 888 970 888 q 484 798 615 888 q 282 567 357 711 q 206 253 206 418 q 320 -103 206 27 q 674 -244 443 -244 q 837 -214 754 -244 q 905 -184 874 -201 q 926 -233 926 -213 m 831 585 q 723 631 787 631 q 539 340 575 542 q 531 231 531 294 q 565 126 531 168 q 665 85 599 85 l 783 201 l 831 585 z "},"A":{"ha":1041,"x_min":16,"x_max":1033,"o":"m 23 58 l 127 87 l 456 1004 q 581 1036 490 1021 l 920 87 l 1028 64 l 1033 54 l 1023 0 l 699 0 l 696 6 l 702 58 l 789 87 l 692 361 l 309 361 l 216 87 l 309 64 l 313 54 l 304 0 l 20 0 l 16 6 l 23 58 m 664 441 l 496 893 l 336 441 l 664 441 z "},"B":{"ha":926,"x_min":69,"x_max":845,"o":"m 81 58 l 169 87 l 169 925 l 74 948 l 69 957 l 79 1012 l 465 1012 q 712 952 631 1012 q 793 767 793 892 q 747 631 793 692 q 626 559 701 570 l 626 551 q 845 292 845 518 q 785 119 845 191 q 553 7 708 28 q 466 0 509 0 l 77 0 l 74 6 l 81 58 m 434 933 q 296 920 366 933 l 296 562 l 367 566 l 438 568 q 506 570 478 570 q 558 582 534 570 q 604 616 582 593 q 659 760 659 672 q 434 933 659 933 m 570 483 q 467 497 523 497 q 296 487 411 497 l 296 98 q 431 77 354 77 q 557 90 509 77 q 640 130 606 103 q 710 292 710 186 q 570 483 710 440 z "},"C":{"ha":1042,"x_min":53,"x_max":917,"o":"m 865 733 q 806 741 827 733 q 799 865 806 827 q 671 915 751 899 q 520 930 592 930 q 390 903 449 930 q 288 825 332 877 q 192 526 192 713 q 313 176 192 304 q 578 62 420 62 q 811 138 711 62 q 823 270 820 169 q 842 275 832 273 l 861 278 q 880 279 870 279 l 917 67 q 697 -11 831 16 q 545 -24 627 -24 q 398 -6 463 -24 q 279 45 333 12 q 183 124 225 78 q 113 225 141 170 q 53 463 53 338 q 91 689 53 588 q 199 864 130 789 q 365 980 268 938 q 558 1023 461 1023 q 916 949 774 1023 l 865 733 z "},"D":{"ha":1039,"x_min":26,"x_max":948,"o":"m 33 58 l 133 87 l 133 918 l 35 943 l 31 953 l 40 1012 l 477 1012 q 821 873 693 1012 q 948 509 948 736 q 798 143 948 290 q 437 0 650 0 l 29 0 l 26 6 l 33 58 m 426 932 q 258 918 347 932 l 258 104 q 446 88 351 88 q 605 112 541 88 q 715 182 669 135 q 811 471 811 283 q 697 817 811 692 q 426 932 592 932 z "},"E":{"ha":923,"x_min":59,"x_max":803,"o":"m 65 58 l 163 87 l 163 922 l 68 945 l 64 954 l 73 1012 l 776 1012 l 753 806 q 696 809 728 801 l 657 932 l 291 932 l 291 557 l 567 557 l 601 653 q 653 653 620 658 l 653 380 q 601 380 624 376 l 567 476 l 291 476 l 291 79 l 686 79 l 744 244 q 797 244 767 251 l 803 0 l 62 0 l 59 6 l 65 58 z "},"F":{"ha":923,"x_min":73,"x_max":817,"o":"m 79 58 l 176 87 l 176 925 l 82 948 l 77 957 l 87 1012 l 817 1012 l 793 806 q 737 809 768 801 l 698 932 l 304 932 l 304 531 l 594 531 l 625 624 q 677 624 651 628 l 677 360 q 625 360 648 352 l 591 450 l 304 450 l 304 87 l 451 64 l 456 54 l 446 0 l 76 0 l 73 6 l 79 58 z "},"G":{"ha":1039,"x_min":53,"x_max":977,"o":"m 117 216 q 102 243 117 216 q 70 333 86 271 q 53 469 53 395 q 70 616 53 543 q 119 752 87 690 q 197 864 151 814 q 300 949 243 914 q 567 1023 419 1023 q 819 986 704 1023 q 924 941 886 964 l 875 734 q 820 743 848 730 q 819 784 820 764 l 816 822 q 811 854 814 841 q 612 923 777 901 q 506 930 562 930 q 393 903 450 930 q 291 822 336 876 q 192 507 192 705 q 313 179 192 306 q 476 77 384 104 q 565 64 520 64 q 648 71 609 64 q 719 90 687 78 q 818 144 778 110 l 818 378 l 608 399 l 608 462 l 977 462 l 977 407 l 945 387 l 945 102 q 640 -19 838 5 q 533 -24 594 -24 q 408 -7 471 -24 q 290 42 344 10 q 192 118 235 74 q 117 216 148 162 z "},"H":{"ha":1041,"x_min":33,"x_max":1013,"o":"m 39 58 l 136 87 l 136 925 l 42 948 l 37 957 l 47 1012 l 370 1012 l 373 1006 l 367 954 l 264 925 l 264 553 l 777 553 l 777 925 l 682 948 l 677 957 l 688 1012 l 1010 1012 l 1013 1006 l 1007 954 l 905 925 l 905 87 l 1004 64 l 1008 54 l 999 0 l 676 0 l 673 6 l 680 58 l 777 87 l 777 473 l 264 473 l 264 87 l 363 64 l 368 54 l 358 0 l 36 0 l 33 6 l 39 58 z "},"I":{"ha":463,"x_min":64,"x_max":403,"o":"m 74 58 l 168 87 l 168 925 l 69 948 l 64 957 l 74 1012 l 397 1012 l 399 1006 l 393 954 l 295 925 l 295 87 l 398 64 l 403 54 l 393 0 l 71 0 l 67 6 l 74 58 z "},"J":{"ha":463,"x_min":26,"x_max":404,"o":"m 168 925 l 73 948 l 69 957 l 78 1012 l 401 1012 l 404 1006 l 398 954 l 296 925 l 296 27 q 50 -331 296 -212 q 26 -273 32 -313 q 121 -180 81 -250 q 168 1 168 -99 l 168 925 z "},"K":{"ha":926,"x_min":54,"x_max":920,"o":"m 61 58 l 158 88 l 158 922 l 64 945 l 59 954 l 68 1012 l 391 1012 l 395 1006 l 389 951 l 286 922 l 286 497 l 667 927 l 572 946 l 568 954 l 576 1012 l 900 1012 l 903 1006 l 897 953 l 800 919 l 460 558 l 822 87 l 917 64 l 920 54 l 911 0 l 586 0 l 581 6 l 587 58 l 659 87 l 380 470 l 286 374 l 286 87 l 385 64 l 390 54 l 380 0 l 58 0 l 54 6 l 61 58 z "},"L":{"ha":810,"x_min":53,"x_max":747,"o":"m 59 58 l 157 87 l 157 925 l 61 948 l 56 957 l 66 1012 l 406 1012 l 409 1006 l 402 954 l 285 925 l 285 79 l 626 79 l 688 252 q 741 252 708 256 l 747 0 l 56 0 l 53 6 l 59 58 z "},"M":{"ha":1388,"x_min":75,"x_max":1312,"o":"m 82 58 l 186 87 l 224 924 l 102 945 l 98 954 l 108 1012 l 350 1012 l 701 220 l 1024 1012 l 1281 1012 l 1292 1004 l 1280 945 l 1155 924 l 1193 87 l 1307 64 l 1312 54 l 1301 0 l 966 0 l 963 6 l 970 58 l 1067 87 l 1035 831 l 718 68 q 693 43 711 54 q 656 32 675 32 l 297 815 l 267 87 l 363 64 l 368 54 l 358 0 l 79 0 l 75 6 l 82 58 z "},"N":{"ha":1156,"x_min":60,"x_max":1097,"o":"m 75 58 l 178 87 l 178 927 l 65 948 l 60 957 l 70 1012 l 294 1012 l 926 238 l 926 924 l 810 948 l 806 957 l 815 1012 l 1094 1012 l 1097 1006 l 1090 954 l 1006 925 l 1006 0 q 966 -24 994 -24 l 258 849 l 258 87 l 351 64 l 355 54 l 346 0 l 71 0 l 68 6 l 75 58 z "},"O":{"ha":1156,"x_min":85,"x_max":1071,"o":"m 216 122 q 185 156 216 122 q 120 282 154 191 q 85 465 85 374 q 104 625 85 555 q 157 755 123 695 q 238 865 191 816 q 343 949 286 915 q 586 1023 463 1023 q 796 984 709 1023 q 944 878 883 945 q 1071 516 1071 736 q 920 130 1071 287 q 694 -5 825 32 q 541 -24 629 -24 q 366 15 453 -24 q 216 122 278 54 m 224 532 q 254 340 224 429 q 335 190 283 252 q 603 64 440 64 q 840 163 751 64 q 932 454 932 267 q 823 808 932 674 q 564 936 722 936 q 315 832 406 936 q 224 532 224 727 z "},"P":{"ha":811,"x_min":39,"x_max":758,"o":"m 395 395 q 271 401 314 395 l 271 87 l 418 64 l 422 54 l 413 0 l 44 0 l 39 7 l 47 58 l 143 87 l 143 925 l 49 948 l 44 957 l 54 1012 l 439 1012 q 677 933 597 1012 q 758 701 758 854 q 651 468 758 549 q 395 395 557 395 m 391 932 q 271 919 328 932 l 271 480 q 364 475 300 475 q 474 489 428 475 q 553 530 520 503 q 621 701 621 588 q 566 858 621 791 q 391 932 503 932 z "},"Q":{"ha":1156,"x_min":85,"x_max":1226,"o":"m 216 122 q 185 156 216 122 q 120 282 154 191 q 85 465 85 374 q 104 625 85 555 q 157 755 123 695 q 238 865 191 816 q 343 949 286 915 q 586 1023 463 1023 q 796 984 709 1023 q 944 878 883 945 q 1071 516 1071 736 q 964 182 1071 328 q 696 -5 860 41 q 1084 -161 892 -109 q 1226 -189 1156 -181 q 1209 -281 1226 -251 q 1179 -321 1192 -311 q 674 -99 902 -252 q 576 -24 623 -64 q 568 -24 572 -24 q 559 -24 564 -24 q 366 15 453 -24 q 216 122 278 54 m 224 532 q 254 340 224 429 q 335 190 283 252 q 603 64 440 64 q 840 163 751 64 q 932 454 932 267 q 823 808 932 674 q 564 936 722 936 q 315 832 406 936 q 224 532 224 727 z "},"R":{"ha":926,"x_min":53,"x_max":888,"o":"m 415 435 q 285 439 326 435 l 285 87 l 418 64 l 422 54 l 413 0 l 58 0 l 53 7 l 61 58 l 157 87 l 157 925 l 62 948 l 58 957 l 67 1012 l 460 1012 q 785 712 785 1012 q 716 530 785 602 q 551 444 656 467 q 661 317 610 408 q 703 238 682 278 q 747 161 723 197 q 878 59 804 80 l 888 46 l 877 0 l 724 -16 q 614 116 677 -9 l 541 267 q 415 435 473 404 m 412 932 q 285 919 348 932 l 285 519 q 383 514 317 514 q 495 524 448 514 q 576 557 543 534 q 648 719 648 608 q 589 872 648 814 q 412 932 528 932 z "},"S":{"ha":811,"x_min":91,"x_max":734,"o":"m 138 276 q 192 267 168 279 q 199 152 192 182 q 342 72 256 100 q 432 58 387 58 q 510 67 478 58 q 566 96 543 76 q 618 229 618 140 q 538 354 618 298 q 458 403 503 380 l 365 449 q 201 552 245 509 q 134 639 156 595 q 113 742 113 682 q 137 853 113 801 q 205 943 161 905 q 435 1023 296 1023 q 716 943 580 1023 l 668 732 q 616 739 645 728 q 614 782 616 762 q 612 823 613 802 q 607 857 610 843 q 370 935 509 935 q 260 891 300 935 q 224 797 224 852 q 247 709 224 741 q 304 651 269 677 q 385 602 340 625 l 479 554 q 645 448 601 492 q 712 360 690 405 q 734 253 734 315 q 708 139 734 191 q 637 50 683 87 q 386 -24 543 -24 q 160 20 254 -24 q 91 64 118 39 l 138 276 z "},"T":{"ha":924,"x_min":55,"x_max":868,"o":"m 252 58 l 397 87 l 397 929 l 271 929 q 169 903 197 929 q 113 787 144 880 q 55 798 73 787 l 81 1012 l 840 1012 l 868 798 q 810 787 846 787 q 759 900 779 881 q 715 924 739 918 q 652 929 691 929 l 526 929 l 526 87 l 673 58 l 677 49 l 667 0 l 250 0 l 246 6 l 252 58 z "},"U":{"ha":1039,"x_min":34,"x_max":1005,"o":"m 121 925 l 39 948 l 34 957 l 43 1012 l 366 1012 l 370 1006 l 362 954 l 250 925 l 250 380 q 318 141 250 218 q 528 64 387 64 q 730 136 648 64 q 814 338 814 211 l 814 925 l 711 948 l 706 957 l 715 1012 l 1002 1012 l 1005 1006 l 999 954 l 901 925 l 901 334 q 792 75 901 173 q 497 -24 681 -24 q 218 70 316 -24 q 121 323 121 162 l 121 925 z "},"V":{"ha":1039,"x_min":1,"x_max":1037,"o":"m 121 922 l 7 945 l 1 956 l 12 1012 l 367 1012 l 371 1006 l 364 951 l 272 920 l 543 111 l 808 920 l 711 945 l 707 954 l 716 1012 l 1034 1012 l 1037 1006 l 1030 951 l 920 922 l 587 16 q 460 -16 536 -13 l 121 922 z "},"W":{"ha":1501,"x_min":-29,"x_max":1531,"o":"m 84 925 l -24 948 l -29 957 l -20 1012 l 317 1012 l 320 1006 l 314 954 l 226 925 l 462 115 l 710 949 q 831 994 752 991 l 1080 110 l 1326 925 l 1237 948 l 1232 957 l 1242 1012 l 1527 1012 l 1531 1006 l 1525 954 l 1421 925 l 1128 16 q 1002 -16 1079 -13 l 751 817 l 511 16 q 384 -16 460 -13 l 84 925 z "},"X":{"ha":924,"x_min":-17,"x_max":941,"o":"m -17 6 l -11 58 l 85 87 l 386 517 l 106 925 l 12 948 l 7 957 l 17 1012 l 365 1012 l 368 1006 l 361 954 l 259 925 l 473 612 l 675 925 l 581 948 l 575 957 l 585 1012 l 893 1012 l 897 1006 l 890 954 l 789 925 l 519 545 l 836 87 l 936 64 l 941 54 l 932 0 l 584 0 l 581 6 l 587 58 l 683 87 l 433 449 l 199 87 l 299 64 l 304 54 l 294 0 l -14 0 l -17 6 z "},"Y":{"ha":811,"x_min":-40,"x_max":852,"o":"m 248 58 l 345 87 l 345 370 l 59 925 l -35 948 l -40 957 l -30 1012 l 318 1012 l 321 1006 l 315 954 l 213 925 l 423 462 l 635 920 l 536 948 l 531 957 l 541 1012 l 848 1012 l 852 1006 l 845 954 l 745 925 l 473 379 l 473 87 l 572 64 l 577 54 l 568 0 l 245 0 l 241 6 l 248 58 z "},"Z":{"ha":922,"x_min":49,"x_max":858,"o":"m 68 0 q 49 58 52 18 l 683 935 l 208 935 l 168 793 q 113 789 138 785 l 90 1012 l 848 1012 q 853 994 851 1003 q 852 951 858 970 l 233 77 l 726 77 l 766 219 q 798 224 785 224 q 822 222 810 224 l 844 0 l 68 0 z "},"[":{"ha":464,"x_min":125,"x_max":338,"o":"m 125 998 l 330 998 l 334 989 l 320 932 l 234 919 l 234 -123 l 331 -139 l 338 -152 l 320 -203 l 125 -203 l 125 998 z "},"\\":{"ha":581,"x_min":57,"x_max":524,"o":"m 57 1065 q 125 1090 85 1090 l 524 -87 q 456 -110 482 -110 l 57 1065 z "},"]":{"ha":464,"x_min":125,"x_max":338,"o":"m 229 -123 l 229 919 l 132 935 l 125 947 l 142 998 l 338 998 l 338 -203 l 133 -203 l 128 -193 l 142 -137 l 229 -123 z "},"^":{"ha":811,"x_min":49,"x_max":755,"o":"m 366 794 q 437 820 397 828 l 755 118 q 697 54 735 60 q 663 60 680 52 l 404 630 l 139 60 q 67 98 94 68 q 49 124 55 110 l 366 794 z "},"_":{"ha":693,"x_min":-18,"x_max":705,"o":"m 700 -149 q 705 -181 705 -170 q 700 -213 705 -193 l -7 -213 q -7 -149 -18 -181 l 700 -149 z "},"`":{"ha":364,"x_min":-33,"x_max":239,"o":"m 181 800 q -33 1003 47 882 q 55 1078 -6 1061 q 186 903 100 995 q 239 852 212 876 q 181 800 222 807 z "},"a":{"ha":695,"x_min":54,"x_max":682,"o":"m 585 98 q 675 105 600 98 l 682 96 l 667 40 l 479 -24 l 470 -14 l 458 78 l 417 45 q 277 -24 332 -24 q 179 -5 222 -24 q 109 45 137 14 q 54 193 54 106 q 94 304 54 269 q 231 354 132 338 q 388 376 330 369 q 452 385 445 384 l 452 444 q 313 626 452 626 q 132 583 245 626 q 104 642 104 603 q 351 711 245 711 q 560 469 560 711 l 560 128 q 585 98 560 98 m 174 210 q 247 85 174 122 q 293 73 269 73 q 337 80 316 73 q 379 96 359 87 q 419 117 400 106 l 452 137 l 452 303 q 254 289 333 303 q 174 210 174 274 z "},"b":{"ha":810,"x_min":1,"x_max":730,"o":"m 376 -24 q 114 40 250 -24 l 114 960 l 5 987 l 1 997 l 5 1034 l 211 1109 l 222 1103 l 222 626 q 416 711 337 711 q 552 685 496 711 q 647 614 608 660 q 730 372 730 520 q 632 93 730 208 q 376 -24 531 -24 m 222 566 l 222 140 q 338 62 264 89 q 411 52 369 52 q 491 72 452 52 q 557 129 529 92 q 616 329 616 208 q 552 535 616 461 q 393 607 489 607 q 222 566 296 607 z "},"c":{"ha":694,"x_min":69,"x_max":644,"o":"m 562 556 q 371 634 469 634 q 238 554 294 634 q 182 364 182 475 q 264 153 182 234 q 431 81 337 81 q 606 154 536 81 q 644 104 644 137 q 443 -19 538 5 q 401 -24 422 -24 q 157 76 248 -24 q 69 321 69 172 q 179 597 69 483 q 443 711 289 711 q 621 665 558 711 q 600 601 618 630 q 562 556 583 572 z "},"d":{"ha":810,"x_min":71,"x_max":811,"o":"m 430 711 q 584 682 512 711 l 584 960 l 471 987 l 463 997 l 471 1034 l 681 1109 l 692 1103 l 692 136 q 697 113 692 121 q 713 105 702 105 q 738 106 724 105 q 768 110 752 108 l 803 113 l 811 104 l 795 47 l 613 -16 l 603 -6 l 592 70 q 450 -16 518 9 q 404 -24 425 -24 q 159 76 250 -24 q 71 321 71 172 q 170 597 71 486 q 430 711 271 711 m 584 130 l 584 553 q 473 625 543 600 q 399 635 442 635 q 316 616 356 635 q 246 562 275 597 q 185 364 185 488 q 267 153 185 234 q 426 81 340 81 q 584 130 511 81 z "},"e":{"ha":695,"x_min":54,"x_max":643,"o":"m 591 154 q 629 104 626 140 q 420 -19 526 5 q 374 -24 397 -24 q 142 76 231 -24 q 54 321 54 174 q 159 597 54 481 q 271 680 208 650 q 398 711 334 711 q 508 688 463 711 q 583 627 553 665 q 643 433 643 551 q 637 375 643 399 q 358 358 629 358 q 168 361 268 358 q 251 152 169 231 q 416 81 324 81 q 591 154 509 81 m 224 423 q 521 436 427 423 q 477 570 521 509 q 364 635 430 635 q 240 582 292 635 q 171 423 184 526 l 224 423 z "},"f":{"ha":463,"x_min":36,"x_max":541,"o":"m 439 688 q 442 651 442 671 q 427 608 442 631 l 254 608 l 254 87 l 397 64 l 400 54 l 392 0 l 54 0 l 50 6 l 56 58 l 146 87 l 146 608 l 39 608 q 36 632 36 622 q 45 659 36 647 l 146 687 l 146 787 q 218 1015 146 926 q 431 1109 296 1109 q 541 1086 482 1109 q 524 1025 540 1053 q 491 984 509 998 q 345 1030 435 1030 q 262 914 286 1030 q 254 818 254 874 l 254 682 q 439 688 326 682 z "},"g":{"ha":810,"x_min":80,"x_max":770,"o":"m 341 229 q 280 161 280 194 q 297 111 280 125 q 410 76 328 84 q 555 56 491 67 q 660 24 618 45 q 741 -121 741 -16 q 647 -294 741 -228 q 399 -363 551 -363 q 158 -293 249 -363 q 80 -157 80 -233 q 115 -78 80 -104 l 155 -43 q 214 5 179 -22 q 155 110 155 38 q 190 180 155 153 q 231 208 206 194 l 285 241 q 134 376 170 281 q 121 459 121 408 q 148 561 121 511 q 217 646 174 611 q 425 716 305 716 l 609 709 q 752 728 703 709 q 770 680 770 703 q 763 628 770 647 q 727 618 749 618 q 692 623 706 618 q 666 632 679 627 q 614 650 633 648 l 609 640 q 674 522 659 602 q 679 462 679 500 q 655 378 679 425 q 591 298 631 332 q 391 225 506 225 q 341 229 372 225 m 410 298 q 471 308 444 298 q 520 337 499 318 q 567 448 567 379 q 513 589 567 534 q 389 642 461 642 q 274 595 319 642 q 231 482 231 551 q 283 349 231 400 q 410 298 335 298 m 191 -136 q 205 -190 191 -161 q 247 -241 219 -218 q 413 -292 307 -292 q 576 -243 524 -292 q 621 -132 621 -202 q 572 -69 621 -87 q 439 -42 528 -52 q 257 -14 296 -26 q 191 -136 191 -60 z "},"h":{"ha":926,"x_min":71,"x_max":873,"o":"m 504 608 q 293 556 408 608 l 293 87 l 402 64 l 407 54 l 397 0 l 93 0 l 90 6 l 96 58 l 184 87 l 184 962 l 77 989 l 71 997 l 77 1034 l 282 1109 l 293 1103 l 293 617 q 536 711 436 711 q 695 644 637 711 q 750 471 750 580 l 750 87 l 868 64 l 873 54 l 865 0 l 543 0 l 538 6 l 544 58 l 642 87 l 642 439 q 504 608 642 608 z "},"i":{"ha":463,"x_min":83,"x_max":404,"o":"m 300 854 q 291 844 300 854 q 266 827 281 835 q 235 820 250 820 q 205 826 220 820 q 179 844 191 833 q 153 890 153 867 q 159 927 153 912 q 176 954 165 941 q 233 981 201 981 q 283 963 263 981 q 319 904 319 932 q 300 854 319 873 m 95 58 l 184 87 l 184 535 l 90 575 l 83 583 l 90 620 l 281 698 l 293 692 l 293 87 l 401 64 l 404 54 l 397 0 l 93 0 l 88 6 l 95 58 z "},"j":{"ha":464,"x_min":56,"x_max":331,"o":"m 313 854 q 304 844 313 854 q 280 827 296 835 q 250 820 265 820 q 219 826 234 820 q 193 844 205 833 q 166 889 166 867 q 172 927 166 912 q 189 954 178 941 q 246 981 214 981 q 296 963 277 981 q 331 904 331 932 q 313 854 331 873 m 197 535 l 104 575 l 98 583 l 104 620 l 294 698 l 305 692 l 305 -9 q 226 -251 305 -154 q 79 -363 174 -315 q 56 -305 58 -342 q 151 -212 110 -283 q 197 -31 197 -132 l 197 535 z "},"k":{"ha":811,"x_min":60,"x_max":813,"o":"m 85 58 l 173 87 l 173 960 l 66 987 l 60 997 l 66 1034 l 271 1109 l 281 1103 l 281 369 l 545 605 l 449 625 l 444 633 l 452 687 l 758 687 l 761 680 l 754 631 l 657 599 l 429 410 l 715 87 l 810 64 l 813 54 l 806 0 l 502 0 l 497 6 l 504 58 l 575 87 l 350 347 l 281 290 l 281 87 l 391 64 l 395 54 l 385 0 l 81 0 l 79 6 l 85 58 z "},"l":{"ha":464,"x_min":66,"x_max":402,"o":"m 92 58 l 180 87 l 180 960 l 73 987 l 66 997 l 73 1034 l 277 1109 l 288 1103 l 288 87 l 397 64 l 402 54 l 392 0 l 89 0 l 85 6 l 92 58 z "},"m":{"ha":1386,"x_min":101,"x_max":1331,"o":"m 519 608 q 311 556 425 608 l 311 87 l 419 64 l 422 54 l 414 0 l 111 0 l 106 6 l 113 58 l 202 87 l 202 540 l 108 581 l 101 589 l 108 626 l 286 698 l 298 692 l 298 608 q 553 711 454 711 q 739 608 685 711 q 774 631 745 615 l 827 661 q 984 711 922 711 q 1086 694 1046 711 q 1153 648 1126 678 q 1208 479 1208 588 l 1208 87 l 1326 64 l 1331 54 l 1322 0 l 999 0 l 996 6 l 1002 58 l 1099 87 l 1099 447 q 962 608 1099 608 q 758 559 863 608 q 768 479 768 510 l 768 87 l 876 64 l 880 54 l 871 0 l 557 0 l 555 6 l 561 58 l 659 87 l 659 447 q 519 608 659 608 z "},"n":{"ha":926,"x_min":83,"x_max":870,"o":"m 501 608 q 292 556 407 608 l 292 87 l 401 64 l 404 54 l 396 0 l 92 0 l 87 6 l 94 58 l 184 87 l 184 540 l 90 581 l 83 589 l 90 626 l 268 698 l 279 692 l 279 608 q 534 711 435 711 q 693 648 636 711 q 749 479 749 587 l 749 87 l 867 64 l 870 54 l 862 0 l 539 0 l 536 6 l 543 58 l 640 87 l 640 447 q 501 608 640 608 z "},"o":{"ha":810,"x_min":60,"x_max":751,"o":"m 60 332 q 89 479 60 409 q 167 600 117 549 q 420 711 273 711 q 663 609 571 711 q 751 357 751 511 q 645 84 751 195 q 392 -24 541 -24 q 151 79 245 -24 q 60 332 60 180 m 238 571 q 224 555 238 571 q 195 489 210 538 q 180 370 180 439 q 202 243 180 301 q 258 142 224 184 q 422 52 332 52 q 614 193 571 52 q 630 313 630 242 q 608 444 630 385 q 552 546 586 504 q 476 612 517 589 q 390 635 434 635 q 306 620 345 635 q 238 571 266 604 z "},"p":{"ha":811,"x_min":30,"x_max":747,"o":"m 648 93 q 536 7 602 39 q 399 -24 471 -24 q 239 0 326 -24 l 239 -264 l 374 -288 l 378 -297 l 370 -352 l 39 -352 l 35 -343 l 41 -294 l 131 -264 l 131 540 l 36 583 l 30 591 l 36 628 l 215 698 l 226 692 l 226 618 q 444 711 342 711 q 665 614 581 711 q 747 372 747 520 q 648 93 747 207 m 383 607 q 239 567 315 607 l 239 140 q 353 62 281 88 q 427 52 385 52 q 507 72 469 52 q 574 129 546 92 q 633 329 633 208 q 568 535 633 461 q 383 607 506 607 z "},"q":{"ha":811,"x_min":71,"x_max":789,"o":"m 581 59 q 395 -24 466 -24 q 263 2 325 -24 q 159 76 201 29 q 71 321 71 172 q 170 597 71 486 q 428 711 271 711 q 631 674 534 711 l 679 706 l 690 700 l 690 -264 l 784 -288 l 789 -297 l 781 -352 l 449 -352 l 446 -343 l 452 -294 l 581 -264 l 581 59 m 581 123 l 581 555 q 471 625 541 601 q 398 635 441 635 q 316 616 356 635 q 246 562 275 597 q 185 364 185 488 q 267 153 185 234 q 425 81 340 81 q 581 123 511 81 z "},"r":{"ha":578,"x_min":62,"x_max":569,"o":"m 522 551 q 431 597 484 597 q 323 509 387 597 q 271 420 296 470 l 271 87 l 441 64 l 444 54 l 437 0 l 72 0 l 67 6 l 73 58 l 163 87 l 163 540 l 68 581 l 62 589 l 68 626 l 248 698 l 258 692 l 271 516 q 425 703 329 665 q 487 711 447 711 q 569 688 527 711 q 522 551 566 597 z "},"s":{"ha":579,"x_min":59,"x_max":527,"o":"m 450 573 q 273 640 363 640 q 191 582 212 640 q 184 539 184 565 q 199 490 184 513 q 238 448 214 467 q 293 415 262 430 l 355 385 q 469 315 439 344 q 527 176 527 255 q 452 30 527 87 q 271 -24 380 -24 q 130 -6 180 -24 q 59 27 79 13 q 109 131 64 90 q 252 53 175 74 q 303 46 278 46 q 350 52 328 46 q 388 69 372 57 q 425 136 425 95 q 411 200 425 177 q 372 241 396 223 q 317 273 348 258 l 254 301 q 142 369 172 338 q 83 511 83 429 q 153 654 83 596 q 324 711 222 711 q 505 680 420 711 q 484 620 500 649 q 450 573 467 590 z "},"t":{"ha":578,"x_min":47,"x_max":522,"o":"m 339 79 q 494 111 414 79 q 522 64 519 96 q 323 -24 402 -24 q 183 37 231 -24 q 141 182 141 90 l 141 608 l 52 608 q 47 631 47 620 q 57 659 47 646 l 156 693 l 205 876 l 252 876 l 252 682 q 488 688 327 682 q 488 682 488 685 l 489 665 q 473 608 489 627 l 252 608 l 252 187 q 269 119 252 142 q 339 79 300 79 z "},"u":{"ha":811,"x_min":58,"x_max":791,"o":"m 317 90 q 401 78 347 78 q 561 139 456 78 l 561 541 l 465 583 l 460 591 l 465 628 l 656 698 l 669 693 l 669 136 q 674 113 669 121 q 690 105 680 105 q 716 106 701 105 l 745 109 q 783 113 763 111 l 791 104 l 774 47 l 589 -16 l 580 -6 l 572 78 l 566 79 l 533 56 q 432 -4 479 17 q 343 -24 384 -24 q 261 -8 303 -24 q 190 39 219 9 q 131 209 131 101 l 131 559 l 64 593 l 58 600 l 64 637 l 229 698 l 239 692 l 239 239 q 317 90 239 122 z "},"v":{"ha":811,"x_min":34,"x_max":777,"o":"m 117 605 l 39 625 l 34 633 l 43 687 l 328 687 l 333 680 l 326 631 l 252 605 l 427 130 l 606 607 l 512 625 l 509 633 l 517 687 l 772 687 l 777 680 l 767 625 l 688 605 l 441 12 q 373 -16 431 -9 l 117 605 z "},"w":{"ha":1039,"x_min":-19,"x_max":1063,"o":"m 43 605 l -14 625 l -19 633 l -12 687 l 254 687 l 259 680 l 252 631 l 178 605 l 317 128 l 500 650 q 539 672 516 666 q 574 680 562 679 l 751 132 l 904 607 l 807 625 l 802 633 l 810 687 l 1061 687 l 1063 680 l 1055 625 l 989 605 l 770 12 q 701 -16 757 -16 l 516 492 l 332 12 q 304 -9 321 -4 q 264 -16 286 -14 l 43 605 z "},"x":{"ha":810,"x_min":42,"x_max":772,"o":"m 49 62 l 134 79 l 361 355 l 160 605 l 80 625 l 77 633 l 85 687 l 370 687 l 376 680 l 369 631 l 300 605 l 428 425 l 564 605 l 481 625 l 475 633 l 486 687 l 751 687 l 755 680 l 746 625 l 658 605 l 467 370 l 693 79 l 768 64 l 772 54 l 764 0 l 477 0 l 473 6 l 481 58 l 549 81 l 401 300 l 233 79 l 319 64 l 324 54 l 316 0 l 47 0 l 42 6 l 49 62 z "},"y":{"ha":810,"x_min":42,"x_max":780,"o":"m 180 -305 q 366 3 307 -115 l 125 605 l 47 625 l 42 633 l 50 687 l 332 687 l 336 680 l 330 631 l 254 605 l 426 110 l 432 110 q 508 305 475 215 l 565 463 q 612 607 592 542 l 515 625 l 511 633 l 519 687 l 775 687 l 780 680 l 770 625 l 699 605 l 498 104 q 423 -68 462 16 l 353 -218 l 281 -365 q 208 -335 243 -365 q 180 -305 192 -322 z "},"z":{"ha":694,"x_min":61,"x_max":641,"o":"m 629 687 q 641 634 641 665 l 217 64 l 523 64 l 566 203 q 590 208 577 208 q 614 206 602 208 l 636 0 l 75 0 q 66 56 61 28 l 486 623 l 211 623 l 167 484 q 118 480 148 475 l 96 687 l 629 687 z "},"{":{"ha":464,"x_min":96,"x_max":327,"o":"m 166 479 q 281 329 281 424 q 272 233 281 281 q 254 112 254 140 q 261 55 254 83 q 279 4 269 26 q 327 -58 302 -42 q 295 -99 318 -92 q 193 -13 238 -71 q 141 120 141 53 q 153 212 141 160 q 178 343 178 313 q 165 391 178 372 q 101 462 143 425 q 96 481 96 472 q 101 503 96 492 q 178 605 178 568 q 172 671 178 642 q 159 728 166 700 q 141 843 141 805 q 156 915 141 881 q 193 978 170 949 q 295 1064 235 1033 q 314 1049 305 1061 q 324 1023 323 1038 q 262 910 284 992 q 254 855 254 882 q 258 804 254 827 l 267 754 q 281 641 281 682 q 268 575 281 600 q 237 534 255 551 q 199 507 218 517 l 166 489 l 166 479 z "},"|":{"ha":347,"x_min":134,"x_max":213,"o":"m 134 1198 l 213 1198 l 213 -319 l 134 -319 l 134 1198 z "},"}":{"ha":464,"x_min":157,"x_max":388,"o":"m 317 479 q 202 329 202 424 q 212 233 202 281 q 230 112 230 140 q 222 55 230 83 q 204 4 215 26 q 157 -58 181 -42 q 189 -99 165 -92 q 291 -13 246 -71 q 342 120 342 53 q 330 212 342 160 q 306 343 306 313 q 318 391 306 372 q 382 462 340 425 q 388 481 388 472 q 382 503 388 492 q 306 605 306 568 q 312 671 306 642 q 324 728 317 700 q 342 843 342 805 q 328 915 342 881 q 291 978 313 949 q 189 1064 248 1033 q 170 1049 178 1061 q 159 1023 161 1038 q 222 910 199 992 q 230 855 230 882 q 226 804 230 827 l 216 754 q 202 641 202 682 q 215 575 202 600 q 247 534 229 551 q 285 507 265 517 l 317 489 l 317 479 z "},"~":{"ha":811,"x_min":90,"x_max":721,"o":"m 275 391 q 130 305 215 391 q 94 341 105 313 q 90 355 90 349 q 303 471 191 471 q 366 457 336 471 q 423 429 395 444 q 477 400 451 413 q 532 387 504 387 q 680 470 609 387 q 721 420 714 457 q 511 306 635 306 q 445 319 475 306 q 389 348 416 332 q 334 377 361 364 q 275 391 307 391 z "}," ":{"ha":326,"x_min":0,"x_max":0,"o":"z "},"¡":{"ha":347,"x_min":90,"x_max":256,"o":"m 106 -168 q 167 -175 141 -175 q 234 -168 193 -175 q 223 160 231 15 q 210 398 215 305 q 197 614 205 492 q 170 619 184 619 q 142 614 155 619 q 106 -168 113 162 m 124 845 q 115 837 124 845 q 98 814 105 828 q 90 785 90 800 q 96 755 90 770 q 113 728 102 740 q 161 701 138 701 q 199 707 184 701 q 228 724 215 713 q 256 770 256 748 q 250 807 256 792 q 231 834 243 822 q 172 862 205 862 q 124 845 143 862 z "},"¢":{"ha":694,"x_min":59,"x_max":635,"o":"m 396 83 q 437 81 410 81 q 551 117 492 81 q 596 154 577 134 q 635 104 635 137 q 435 -19 529 7 q 393 -24 414 -24 l 389 -209 q 316 -206 349 -216 l 324 -19 q 129 98 201 2 q 59 321 59 189 q 142 566 59 459 q 350 701 223 671 l 355 899 q 428 896 391 909 l 419 710 q 426 711 422 711 l 433 711 q 612 665 549 711 q 591 601 608 630 q 553 556 573 572 q 415 627 494 608 l 403 378 l 396 83 m 344 396 l 349 633 q 224 548 275 627 q 173 364 173 469 q 220 195 173 269 q 330 101 260 132 l 344 396 z "},"£":{"ha":926,"x_min":63,"x_max":854,"o":"m 812 172 q 854 132 851 159 q 732 -4 811 39 q 646 -29 688 -29 q 569 -25 604 -29 q 499 -15 535 -20 q 370 0 410 0 q 297 -3 330 0 q 228 -10 263 -6 l 158 -18 q 90 -24 123 -22 q 73 32 63 -10 q 251 163 201 51 q 274 253 268 202 l 298 467 l 191 467 l 189 488 q 203 516 192 500 l 307 545 l 321 699 q 509 996 348 922 q 613 1021 564 1021 q 758 998 699 1021 q 699 895 748 930 q 565 942 649 942 q 469 826 505 942 q 451 729 457 785 l 432 540 q 645 546 525 540 q 646 522 648 532 q 624 467 646 492 l 424 467 l 404 282 q 294 79 388 158 l 298 70 l 323 81 q 414 109 380 109 q 478 103 448 109 q 538 92 508 98 q 659 77 623 77 q 812 172 745 77 z "},"¤":{"ha":924,"x_min":78,"x_max":845,"o":"m 652 107 q 458 35 568 35 q 271 107 349 35 q 218 41 236 63 l 180 -1 q 142 -41 161 -22 l 123 -27 q 78 22 96 -5 q 121 62 98 43 q 198 129 177 112 l 231 155 q 179 335 179 231 q 239 522 179 438 q 212 543 229 529 l 125 617 q 78 661 100 639 l 92 680 q 142 725 111 705 q 184 681 163 704 q 254 598 239 618 l 278 568 q 477 652 366 652 q 661 589 589 652 q 781 725 743 687 l 800 711 q 830 682 819 696 l 845 661 q 775 597 798 616 q 707 540 722 552 q 762 350 762 461 q 694 153 762 238 q 845 22 802 66 l 830 4 q 800 -27 815 -16 l 781 -41 q 743 -1 762 -22 l 707 40 q 675 77 689 60 l 652 107 m 302 460 q 290 365 290 420 q 308 263 290 310 q 353 182 325 216 q 484 110 411 110 q 637 222 603 110 q 650 319 650 262 q 632 424 650 376 q 587 506 614 472 q 461 576 530 576 q 302 460 337 576 z "},"¥":{"ha":1039,"x_min":73,"x_max":965,"o":"m 587 281 q 849 290 715 281 q 854 252 854 269 q 849 215 854 236 l 764 216 q 680 217 726 217 q 587 218 633 217 l 587 87 l 686 64 l 690 54 l 681 0 l 358 0 l 355 6 l 361 58 l 458 87 l 458 218 q 179 209 342 216 q 174 245 174 224 q 179 282 174 267 q 271 281 226 281 q 364 281 315 281 l 458 281 l 458 392 l 454 399 q 179 391 449 399 q 174 428 174 407 q 179 465 174 449 l 258 463 q 421 462 327 462 l 172 925 l 79 948 l 73 957 l 83 1012 l 431 1012 l 435 1006 l 428 954 l 326 925 l 536 482 l 748 920 l 649 948 l 644 957 l 654 1012 l 962 1012 l 965 1006 l 958 954 l 858 925 l 617 462 q 701 464 660 463 l 776 467 l 849 471 q 854 434 854 450 q 849 397 854 418 l 587 399 l 587 281 z "},"¦":{"ha":347,"x_min":134,"x_max":213,"o":"m 134 1198 l 213 1198 l 213 506 l 134 506 l 134 1198 m 134 404 l 213 404 l 213 -319 l 134 -319 l 134 404 z "},"§":{"ha":694,"x_min":94,"x_max":600,"o":"m 519 176 q 583 37 583 112 q 430 -163 583 -119 q 326 -177 381 -177 q 97 -105 193 -177 q 146 6 102 -38 q 300 -94 210 -67 q 360 -104 331 -104 q 410 -98 389 -104 q 446 -79 431 -92 q 478 6 478 -50 q 357 159 478 81 l 286 205 q 161 302 195 263 q 94 465 94 381 q 176 629 94 572 q 115 768 115 693 q 191 924 115 863 q 381 983 264 983 q 568 913 498 983 q 518 802 563 846 q 342 909 428 909 q 231 846 262 909 q 221 797 221 826 q 237 741 221 767 q 280 690 254 714 q 341 643 307 666 l 411 597 q 534 496 500 536 q 600 337 600 419 q 519 176 600 229 m 212 596 q 186 519 186 565 q 199 444 186 473 q 236 389 213 414 q 289 342 259 364 q 351 298 319 319 l 418 255 q 480 210 451 233 q 505 287 505 242 q 492 361 505 332 q 455 415 478 390 q 402 463 432 440 q 340 507 372 486 l 274 551 q 212 596 241 572 z "},"¨":{"ha":532,"x_min":41,"x_max":491,"o":"m 473 854 q 464 844 473 854 q 439 827 454 835 q 409 819 424 819 q 379 826 393 819 q 353 842 364 832 q 325 889 325 867 q 331 926 325 911 q 348 954 337 941 q 405 981 372 981 q 455 964 435 981 q 491 904 491 934 q 473 854 491 873 m 189 854 q 179 844 189 854 q 155 827 170 835 q 124 819 139 819 q 94 826 109 819 q 68 842 79 832 q 41 889 41 866 q 47 926 41 911 q 64 954 53 941 q 121 981 88 981 q 171 964 151 981 q 207 904 207 934 q 189 854 207 873 z "},"©":{"ha":1273,"x_min":53,"x_max":1102,"o":"m 122 236 q 105 265 122 236 q 71 360 89 294 q 53 516 53 427 q 93 702 53 606 q 202 868 132 797 q 369 981 273 940 q 560 1023 465 1023 q 723 1004 654 1023 q 849 950 791 985 q 954 868 907 916 q 1034 762 1000 821 q 1102 498 1102 642 q 954 130 1102 281 q 723 -5 858 33 q 579 -24 654 -24 q 435 -5 503 -24 q 308 48 366 14 q 202 130 250 82 q 122 236 155 178 m 137 498 q 266 174 137 304 q 579 43 394 43 q 753 78 672 43 q 894 174 834 113 q 1023 498 1023 304 q 894 825 1023 693 q 753 921 834 886 q 579 956 672 956 q 266 825 394 956 q 137 498 137 693 m 799 256 q 578 203 710 203 q 369 286 450 203 q 292 482 292 366 q 378 708 292 617 q 600 802 467 802 q 799 760 716 802 l 768 635 q 738 640 751 635 q 732 706 738 684 q 575 747 683 747 q 448 686 500 747 q 391 513 391 620 q 460 319 391 393 q 608 254 521 254 q 692 271 660 254 q 741 302 724 288 q 743 321 742 309 l 744 344 q 745 370 745 356 q 779 376 764 376 l 799 256 z "},"ª":{"ha":578,"x_min":99,"x_max":505,"o":"m 132 854 q 292 899 224 899 q 429 751 429 899 l 429 538 q 435 519 429 519 q 472 521 458 519 q 498 524 486 523 l 505 516 l 496 486 l 366 441 l 358 452 l 351 497 l 327 477 q 246 444 283 444 q 182 455 210 444 q 136 487 154 467 q 99 578 99 525 q 125 647 99 625 q 218 678 151 669 l 298 690 q 345 698 336 698 l 345 734 q 269 846 345 846 q 209 837 241 846 l 155 820 q 132 854 132 832 m 209 530 q 213 524 209 530 q 230 512 218 519 q 256 505 243 505 q 281 509 269 505 q 305 519 293 513 q 348 545 330 532 l 345 545 l 345 646 q 202 623 223 646 q 191 590 191 611 q 195 555 191 569 q 209 530 200 541 z "},"«":{"ha":808,"x_min":41,"x_max":734,"o":"m 45 375 q 56 423 41 403 l 348 672 q 397 614 391 661 l 172 397 l 402 172 q 384 138 397 154 q 357 115 371 122 l 45 375 m 377 375 q 389 423 374 403 l 680 672 q 730 614 723 661 l 505 397 l 734 172 q 716 138 730 154 q 689 115 703 122 l 377 375 z "},"¬":{"ha":810,"x_min":128,"x_max":675,"o":"m 140 361 q 140 425 128 393 l 675 425 l 675 165 q 597 154 635 154 l 597 361 l 140 361 z "},"­":{"ha":441,"x_min":50,"x_max":386,"o":"m 64 343 q 73 423 50 385 l 376 423 q 368 343 386 384 l 64 343 z "},"®":{"ha":583,"x_min":100,"x_max":483,"o":"m 292 640 q 215 655 250 640 q 155 696 180 671 q 100 831 100 751 q 155 966 100 911 q 292 1023 210 1023 q 429 966 374 1023 q 483 831 483 911 q 429 696 483 751 q 292 640 374 640 m 292 665 q 406 712 360 665 q 452 831 452 760 q 406 949 452 901 q 292 998 360 998 q 177 950 224 998 q 130 831 130 901 q 178 712 130 760 q 292 665 224 665 m 298 945 q 373 884 373 945 q 319 823 373 834 q 338 801 331 814 l 353 776 q 393 736 371 743 l 395 734 l 393 724 l 357 721 q 328 755 340 730 q 289 821 303 806 l 258 821 l 258 743 l 292 736 l 292 724 l 205 724 l 203 725 l 207 736 l 228 743 l 228 926 l 207 931 l 205 932 l 208 945 l 298 945 m 338 881 q 338 893 338 881 q 325 916 338 905 q 293 928 311 928 q 258 925 275 928 l 258 838 l 281 837 q 322 847 307 837 q 338 881 338 857 z "},"¯":{"ha":462,"x_min":5,"x_max":437,"o":"m 20 820 q 29 899 5 862 l 427 899 q 418 820 437 857 l 20 820 z "},"°":{"ha":578,"x_min":117,"x_max":461,"o":"m 288 687 q 221 700 252 687 q 167 736 190 713 q 117 854 117 785 q 167 972 117 922 q 288 1023 217 1023 q 410 972 359 1023 q 461 854 461 923 q 410 736 461 785 q 288 687 359 687 m 220 777 q 227 769 220 777 q 252 755 234 762 q 290 747 269 747 q 328 756 310 747 q 359 779 346 764 q 388 854 388 810 q 358 930 388 899 q 286 962 328 962 q 217 929 245 962 q 190 864 190 899 q 198 810 190 830 q 220 777 206 791 z "},"±":{"ha":810,"x_min":94,"x_max":708,"o":"m 701 522 q 708 490 708 502 q 701 458 708 479 l 441 458 l 441 224 q 406 217 421 217 q 370 224 391 217 l 370 458 l 111 458 q 111 522 98 490 l 370 522 l 370 783 q 406 789 386 789 q 441 783 426 789 l 441 522 l 701 522 m 698 160 q 705 128 705 140 q 698 96 705 116 l 108 96 q 108 160 94 127 l 698 160 z "},"²":{"ha":579,"x_min":78,"x_max":508,"o":"m 452 626 q 465 631 452 631 q 496 628 485 631 l 508 482 l 98 482 q 78 505 78 491 q 83 527 78 519 q 348 791 310 684 q 359 855 359 821 q 333 918 359 889 q 260 947 308 947 q 142 891 212 947 q 107 935 109 907 q 210 1002 157 981 q 304 1023 264 1023 q 376 1012 345 1023 q 428 982 406 1002 q 473 885 473 943 q 454 786 473 827 q 400 705 436 745 q 190 538 338 637 q 432 561 423 538 l 452 626 z "},"³":{"ha":464,"x_min":45,"x_max":402,"o":"m 378 901 q 267 776 378 831 q 398 684 383 767 q 402 632 402 662 q 385 570 402 603 q 339 513 368 537 q 189 460 277 460 q 45 514 104 460 q 100 576 56 545 q 218 509 153 509 q 269 547 246 509 q 290 617 290 583 q 282 673 290 652 q 264 708 275 694 q 213 736 241 736 q 151 728 184 736 q 132 770 132 743 q 245 838 218 797 q 259 879 259 857 q 255 914 259 900 q 241 939 250 928 q 184 963 221 963 q 90 922 136 963 q 59 960 68 931 q 215 1023 119 1023 q 334 986 288 1023 q 378 901 378 952 z "},"´":{"ha":364,"x_min":124,"x_max":396,"o":"m 182 800 q 124 852 140 807 q 308 1078 242 958 q 396 1003 369 1061 q 245 845 341 920 q 182 800 215 821 z "},"µ":{"ha":811,"x_min":53,"x_max":786,"o":"m 353 -24 q 187 49 257 -24 l 180 46 q 239 -325 199 -208 q 137 -358 205 -363 q 130 -124 131 -224 q 127 46 128 -23 q 126 209 126 115 l 126 559 l 59 593 l 53 600 l 59 637 l 224 698 l 235 692 l 235 239 q 312 90 235 122 q 397 78 342 78 q 556 139 452 78 l 556 541 l 460 583 l 456 591 l 460 628 l 652 698 l 665 693 l 665 136 q 670 113 665 121 q 686 105 675 105 q 711 106 696 105 l 741 109 q 778 113 758 111 l 786 104 l 770 47 l 585 -16 l 575 -6 l 567 78 l 561 79 l 528 56 q 427 -4 475 17 q 353 -24 379 -24 z "},"¶":{"ha":926,"x_min":76,"x_max":884,"o":"m 460 387 q 91 585 156 387 q 76 703 76 629 q 111 836 76 777 q 202 932 146 895 q 473 998 307 998 l 880 998 l 884 992 l 876 941 l 780 911 l 780 -256 q 682 -288 760 -288 l 682 880 l 557 859 l 557 -256 q 460 -288 535 -288 l 460 387 z "},"·":{"ha":347,"x_min":90,"x_max":256,"o":"m 124 329 q 114 337 124 329 q 98 360 105 346 q 90 389 90 374 q 96 419 90 404 q 113 446 102 434 q 161 473 138 473 q 199 467 184 473 q 228 450 215 460 q 256 404 256 426 q 250 367 256 382 q 231 340 243 352 q 171 312 204 312 q 124 329 142 312 z "},"¸":{"ha":381,"x_min":81,"x_max":361,"o":"m 112 -148 q 81 -111 95 -138 l 133 12 l 232 2 l 203 -82 q 261 -72 236 -70 q 336 -109 311 -75 q 359 -187 361 -142 q 333 -261 356 -232 q 275 -313 311 -291 q 106 -359 202 -359 q 99 -332 99 -351 q 100 -300 98 -313 q 205 -270 167 -297 q 244 -173 258 -234 q 184 -126 233 -126 q 112 -148 135 -126 z "},"¹":{"ha":463,"x_min":77,"x_max":404,"o":"m 79 489 l 85 532 l 192 550 l 192 925 l 81 917 l 77 922 l 82 958 l 303 1023 l 309 1018 l 298 945 l 298 550 l 400 536 l 404 530 l 399 482 l 82 482 l 79 489 z "},"º":{"ha":579,"x_min":68,"x_max":511,"o":"m 281 444 q 193 461 233 444 q 126 507 154 478 q 68 663 68 570 q 137 831 68 761 q 299 899 204 899 q 455 837 397 899 q 511 680 511 775 q 444 511 511 580 q 281 444 377 444 m 300 490 q 420 652 420 490 q 374 798 420 739 q 279 853 333 853 q 192 813 225 853 q 159 688 159 774 q 204 546 159 605 q 300 490 247 490 z "},"»":{"ha":808,"x_min":74,"x_max":767,"o":"m 431 396 q 420 348 435 368 l 128 99 q 79 157 85 111 l 304 374 l 74 599 q 92 633 79 617 q 119 656 105 649 l 431 396 m 764 396 q 752 348 767 368 l 460 99 q 411 157 418 111 l 636 374 l 406 599 q 424 633 411 617 q 452 656 437 649 l 764 396 z "},"¼":{"ha":1388,"x_min":77,"x_max":1223,"o":"m 684 1 q 660 53 664 22 q 897 370 775 172 q 971 501 937 434 q 1026 473 1003 490 q 1059 447 1048 456 q 1019 387 1043 420 q 906 237 1019 387 q 753 47 906 237 l 1002 54 l 1002 244 q 1101 275 1029 260 l 1101 58 q 1221 70 1135 60 q 1208 1 1223 26 l 1101 1 l 1101 -109 q 1002 -136 1057 -133 l 1002 1 l 684 1 m 922 1109 q 951 1097 935 1107 q 976 1075 968 1087 l 328 -85 q 270 -53 296 -79 l 922 1109 m 79 489 l 85 532 l 192 550 l 192 925 l 81 917 l 77 922 l 82 958 l 303 1023 l 309 1018 l 298 945 l 298 550 l 400 536 l 404 530 l 399 482 l 82 482 l 79 489 z "},"½":{"ha":1388,"x_min":77,"x_max":1206,"o":"m 922 1109 q 951 1097 935 1107 q 976 1075 968 1087 l 328 -85 q 270 -53 295 -78 l 922 1109 m 79 489 l 85 532 l 192 550 l 192 925 l 81 917 l 77 922 l 82 958 l 303 1023 l 309 1018 l 298 945 l 298 550 l 400 536 l 404 530 l 399 482 l 82 482 l 79 489 m 1149 144 q 1162 149 1149 149 q 1194 146 1183 149 l 1206 1 l 796 1 q 776 23 776 9 q 781 45 776 38 q 1046 309 1008 203 q 1057 373 1057 339 q 1031 436 1057 408 q 958 465 1006 465 q 840 410 909 465 q 805 453 806 426 q 908 520 854 500 q 1002 541 962 541 q 1074 531 1043 541 q 1126 500 1104 520 q 1171 403 1171 461 q 1152 304 1171 345 q 1098 224 1134 263 q 888 56 1036 155 q 1130 79 1121 56 l 1149 144 z "},"¾":{"ha":1388,"x_min":93,"x_max":1223,"o":"m 427 901 q 314 776 427 832 q 446 684 430 767 q 451 632 451 662 q 434 570 451 603 q 388 513 417 537 q 236 460 325 460 q 93 514 150 460 q 148 576 104 546 q 265 509 201 509 q 316 547 294 509 q 337 618 337 584 q 330 673 337 652 q 312 708 323 694 q 261 736 290 736 q 198 728 233 736 q 180 770 180 743 q 293 838 264 795 q 307 879 307 857 q 302 914 307 900 q 289 939 298 928 q 232 963 269 963 q 137 922 181 963 q 107 960 116 931 q 264 1023 170 1023 q 382 986 336 1023 q 427 901 427 952 m 684 1 q 660 53 664 22 q 897 370 775 172 q 971 501 937 434 q 1026 473 1003 490 q 1059 447 1048 456 q 1019 387 1043 420 l 906 237 l 753 47 l 1002 54 l 1002 244 q 1101 275 1029 260 l 1101 58 q 1221 70 1135 60 q 1208 1 1223 26 l 1101 1 l 1101 -109 q 1002 -136 1057 -133 l 1002 1 l 684 1 m 922 1109 q 951 1097 935 1107 q 976 1075 968 1087 l 328 -85 q 270 -53 296 -79 l 922 1109 z "},"¿":{"ha":694,"x_min":90,"x_max":618,"o":"m 348 254 q 356 266 348 254 q 372 302 364 277 q 379 371 379 328 q 366 465 379 413 q 424 474 391 485 q 459 331 459 385 q 447 242 459 276 q 414 180 435 208 q 302 77 379 133 q 238 14 255 41 q 210 -80 210 -36 q 217 -152 210 -123 q 241 -199 225 -180 q 328 -241 275 -241 q 482 -186 408 -241 q 538 -131 513 -161 q 608 -207 588 -155 q 618 -253 616 -229 q 502 -309 566 -292 q 380 -326 439 -326 q 268 -306 321 -326 q 174 -249 214 -285 q 90 -46 90 -171 q 192 134 90 64 q 251 172 220 153 q 307 212 282 191 q 348 254 332 232 m 436 694 q 446 685 436 694 q 463 663 455 677 q 470 633 470 648 q 464 604 470 618 q 447 577 458 589 q 399 550 423 550 q 361 556 376 550 q 333 573 346 562 q 304 619 304 597 q 311 656 304 641 q 329 683 317 671 q 389 711 355 711 q 436 694 418 711 z "},"À":{"ha":1041,"x_min":16,"x_max":1033,"o":"m 23 58 l 127 87 l 456 1004 q 581 1036 490 1021 l 920 87 l 1028 64 l 1033 54 l 1023 0 l 699 0 l 696 6 l 702 58 l 789 87 l 692 361 l 309 361 l 216 87 l 309 64 l 313 54 l 304 0 l 20 0 l 16 6 l 23 58 m 664 441 l 496 893 l 336 441 l 664 441 m 472 1369 q 656 1143 535 1251 q 632 1106 646 1117 q 598 1091 618 1095 q 425 1241 503 1150 q 385 1295 401 1268 q 472 1369 410 1352 z "},"Á":{"ha":1041,"x_min":16,"x_max":1033,"o":"m 23 58 l 127 87 l 456 1004 q 581 1036 490 1021 l 920 87 l 1028 64 l 1033 54 l 1023 0 l 699 0 l 696 6 l 702 58 l 789 87 l 692 361 l 309 361 l 216 87 l 309 64 l 313 54 l 304 0 l 20 0 l 16 6 l 23 58 m 664 441 l 496 893 l 336 441 l 664 441 m 441 1091 q 408 1106 421 1095 q 385 1143 394 1117 q 531 1310 466 1216 q 568 1369 552 1340 q 656 1295 629 1352 q 505 1136 600 1211 q 441 1091 475 1112 z "},"Â":{"ha":1041,"x_min":16,"x_max":1033,"o":"m 23 58 l 127 87 l 456 1004 q 581 1036 490 1021 l 920 87 l 1028 64 l 1033 54 l 1023 0 l 699 0 l 696 6 l 702 58 l 789 87 l 692 361 l 309 361 l 216 87 l 309 64 l 313 54 l 304 0 l 20 0 l 16 6 l 23 58 m 664 441 l 496 893 l 336 441 l 664 441 m 323 1069 q 294 1092 303 1077 q 278 1118 285 1106 q 306 1146 288 1126 q 384 1238 358 1206 l 461 1336 q 478 1359 475 1354 q 574 1359 526 1368 q 595 1329 579 1350 l 745 1138 q 763 1116 759 1120 q 732 1078 751 1088 q 713 1069 724 1074 q 573 1211 658 1109 l 536 1257 l 519 1257 q 478 1211 503 1237 l 425 1157 q 323 1069 359 1091 z "},"Ã":{"ha":1041,"x_min":16,"x_max":1033,"o":"m 23 58 l 127 87 l 456 1004 q 581 1036 490 1021 l 920 87 l 1028 64 l 1033 54 l 1023 0 l 699 0 l 696 6 l 702 58 l 789 87 l 692 361 l 309 361 l 216 87 l 309 64 l 313 54 l 304 0 l 20 0 l 16 6 l 23 58 m 664 441 l 496 893 l 336 441 l 664 441 m 600 1271 q 722 1348 647 1271 q 758 1318 748 1334 q 768 1297 767 1303 q 593 1172 660 1172 q 528 1193 562 1172 q 476 1224 494 1215 q 440 1234 459 1234 q 374 1207 409 1234 q 321 1160 340 1180 q 279 1197 296 1171 q 274 1211 275 1204 q 448 1333 382 1333 q 512 1312 479 1333 q 562 1281 545 1291 q 600 1271 580 1271 z "},"Ä":{"ha":1041,"x_min":16,"x_max":1033,"o":"m 23 58 l 127 87 l 456 1004 q 581 1036 490 1021 l 920 87 l 1028 64 l 1033 54 l 1023 0 l 699 0 l 696 6 l 702 58 l 789 87 l 692 361 l 309 361 l 216 87 l 309 64 l 313 54 l 304 0 l 20 0 l 16 6 l 23 58 m 664 441 l 496 893 l 336 441 l 664 441 m 707 1181 q 702 1175 707 1181 q 680 1161 696 1168 q 649 1153 665 1153 q 619 1159 633 1153 q 593 1177 604 1166 q 566 1224 566 1202 q 572 1261 566 1246 q 589 1288 578 1276 q 637 1315 614 1315 q 676 1309 661 1315 q 703 1293 691 1303 q 732 1246 732 1268 q 726 1209 732 1224 q 707 1181 719 1194 m 457 1188 q 448 1178 457 1188 q 423 1161 439 1168 q 392 1153 408 1153 q 362 1159 377 1153 q 336 1177 348 1166 q 309 1225 309 1203 q 315 1261 309 1246 q 332 1288 321 1276 q 389 1315 356 1315 q 439 1298 420 1315 q 475 1238 475 1267 q 457 1188 475 1208 z "},"Å":{"ha":1041,"x_min":16,"x_max":1033,"o":"m 23 58 l 127 87 l 456 1004 q 581 1036 490 1021 l 920 87 l 1028 64 l 1033 54 l 1023 0 l 699 0 l 696 6 l 702 58 l 789 87 l 692 361 l 309 361 l 216 87 l 309 64 l 313 54 l 304 0 l 20 0 l 16 6 l 23 58 m 664 441 l 496 893 l 336 441 l 664 441 m 516 1083 q 461 1094 487 1083 q 416 1124 435 1105 q 374 1225 374 1164 q 421 1329 374 1284 q 528 1371 467 1371 q 627 1333 587 1371 q 667 1236 667 1295 q 621 1126 667 1169 q 516 1083 576 1083 m 519 1310 q 454 1237 454 1310 q 471 1177 454 1196 q 526 1144 499 1144 q 586 1217 586 1144 q 570 1278 586 1258 q 519 1310 543 1310 z "},"Æ":{"ha":1392,"x_min":47,"x_max":1338,"o":"m 54 58 l 158 87 l 652 933 l 604 945 l 599 954 l 608 1012 l 1324 1012 l 1301 806 q 1246 809 1275 801 l 1206 932 l 826 932 l 826 557 l 1129 557 l 1163 653 q 1216 653 1182 658 l 1216 380 q 1163 380 1187 376 l 1129 476 l 826 476 l 826 79 l 1222 79 l 1279 244 q 1332 244 1302 251 l 1338 0 l 597 0 l 594 6 l 600 58 l 698 87 l 698 348 l 402 348 l 251 87 l 343 64 l 348 54 l 338 0 l 52 0 l 47 6 l 54 58 m 698 428 l 698 857 l 449 428 l 698 428 z "},"Ç":{"ha":1042,"x_min":53,"x_max":917,"o":"m 477 -148 q 446 -111 460 -138 l 484 -22 q 168 141 288 -3 q 53 471 53 278 q 91 689 53 588 q 199 864 130 789 q 365 980 268 938 q 558 1023 461 1023 q 916 949 774 1023 l 865 733 q 806 741 827 733 q 799 865 806 827 q 671 915 751 899 q 520 930 592 930 q 390 903 449 930 q 288 825 332 877 q 192 526 192 713 q 313 176 192 304 q 578 62 420 62 q 811 138 711 62 q 823 270 820 169 q 842 275 832 273 l 861 278 q 880 279 870 279 l 917 67 q 757 3 848 26 q 588 -23 666 -19 l 568 -82 q 626 -72 601 -70 q 701 -109 675 -75 q 724 -187 726 -142 q 698 -261 721 -232 q 640 -313 675 -291 q 471 -359 567 -359 q 464 -332 464 -351 q 465 -300 463 -313 q 570 -270 532 -297 q 609 -173 623 -234 q 549 -126 598 -126 q 477 -148 500 -126 z "},"È":{"ha":923,"x_min":59,"x_max":803,"o":"m 65 58 l 163 87 l 163 922 l 68 945 l 64 954 l 73 1012 l 776 1012 l 753 806 q 696 809 728 801 l 657 932 l 291 932 l 291 557 l 567 557 l 601 653 q 653 653 620 658 l 653 380 q 601 380 624 376 l 567 476 l 291 476 l 291 79 l 686 79 l 744 244 q 797 244 767 251 l 803 0 l 62 0 l 59 6 l 65 58 m 437 1369 q 621 1143 500 1251 q 598 1106 612 1117 q 564 1091 584 1095 q 391 1241 468 1150 q 350 1295 367 1268 q 437 1369 376 1352 z "},"É":{"ha":923,"x_min":59,"x_max":803,"o":"m 65 58 l 163 87 l 163 922 l 68 945 l 64 954 l 73 1012 l 776 1012 l 753 806 q 696 809 728 801 l 657 932 l 291 932 l 291 557 l 567 557 l 601 653 q 653 653 620 658 l 653 380 q 601 380 624 376 l 567 476 l 291 476 l 291 79 l 686 79 l 744 244 q 797 244 767 251 l 803 0 l 62 0 l 59 6 l 65 58 m 407 1091 q 373 1106 387 1095 q 350 1143 359 1117 q 496 1310 431 1216 q 533 1369 517 1340 q 621 1295 594 1352 q 471 1136 565 1211 q 407 1091 440 1112 z "},"Ê":{"ha":923,"x_min":59,"x_max":803,"o":"m 65 58 l 163 87 l 163 922 l 68 945 l 64 954 l 73 1012 l 776 1012 l 753 806 q 696 809 728 801 l 657 932 l 291 932 l 291 557 l 567 557 l 601 653 q 653 653 620 658 l 653 380 q 601 380 624 376 l 567 476 l 291 476 l 291 79 l 686 79 l 744 244 q 797 244 767 251 l 803 0 l 62 0 l 59 6 l 65 58 m 289 1069 q 259 1092 269 1077 q 243 1118 250 1106 q 271 1146 253 1126 q 349 1238 323 1206 l 427 1336 q 444 1359 440 1354 q 539 1359 491 1368 q 560 1329 545 1350 l 710 1138 q 728 1116 724 1120 q 697 1078 717 1088 q 678 1069 689 1074 q 538 1211 623 1109 l 501 1257 l 484 1257 q 444 1211 468 1237 l 391 1157 q 289 1069 324 1091 z "},"Ë":{"ha":923,"x_min":59,"x_max":803,"o":"m 65 58 l 163 87 l 163 922 l 68 945 l 64 954 l 73 1012 l 776 1012 l 753 806 q 696 809 728 801 l 657 932 l 291 932 l 291 557 l 567 557 l 601 653 q 653 653 620 658 l 653 380 q 601 380 624 376 l 567 476 l 291 476 l 291 79 l 686 79 l 744 244 q 797 244 767 251 l 803 0 l 62 0 l 59 6 l 65 58 m 673 1181 q 667 1175 673 1181 q 646 1161 661 1168 q 614 1153 630 1153 q 584 1159 599 1153 q 558 1177 570 1166 q 532 1224 532 1202 q 538 1261 532 1246 q 555 1288 544 1276 q 603 1315 579 1315 q 641 1309 626 1315 q 669 1293 656 1303 q 698 1246 698 1268 q 691 1209 698 1224 q 673 1181 684 1194 m 422 1188 q 413 1178 422 1188 q 389 1161 404 1168 q 358 1153 373 1153 q 328 1159 342 1153 q 301 1177 313 1166 q 274 1225 274 1203 q 280 1261 274 1246 q 297 1288 286 1276 q 355 1315 321 1315 q 405 1298 385 1315 q 440 1238 440 1267 q 422 1188 440 1208 z "},"Ì":{"ha":463,"x_min":64,"x_max":403,"o":"m 74 58 l 168 87 l 168 925 l 69 948 l 64 957 l 74 1012 l 397 1012 l 399 1006 l 393 954 l 295 925 l 295 87 l 398 64 l 403 54 l 393 0 l 71 0 l 67 6 l 74 58 m 183 1369 q 367 1143 246 1251 q 343 1106 357 1117 q 309 1091 330 1095 q 136 1241 214 1150 q 96 1295 113 1268 q 183 1369 121 1352 z "},"Í":{"ha":463,"x_min":64,"x_max":403,"o":"m 74 58 l 168 87 l 168 925 l 69 948 l 64 957 l 74 1012 l 397 1012 l 399 1006 l 393 954 l 295 925 l 295 87 l 398 64 l 403 54 l 393 0 l 71 0 l 67 6 l 74 58 m 153 1091 q 119 1106 132 1095 q 96 1143 105 1117 q 242 1310 177 1216 q 279 1369 263 1340 q 367 1295 340 1352 q 216 1136 311 1211 q 153 1091 186 1112 z "},"Î":{"ha":463,"x_min":-11,"x_max":474,"o":"m 74 58 l 168 87 l 168 925 l 69 948 l 64 957 l 74 1012 l 397 1012 l 399 1006 l 393 954 l 295 925 l 295 87 l 398 64 l 403 54 l 393 0 l 71 0 l 67 6 l 74 58 m 35 1069 q 5 1092 14 1077 q -11 1118 -4 1106 q 17 1146 -1 1126 q 95 1238 69 1206 l 172 1336 q 189 1359 186 1354 q 285 1359 237 1368 q 306 1329 290 1350 l 456 1138 q 474 1116 470 1120 q 443 1078 463 1088 q 424 1069 435 1074 q 284 1211 369 1109 l 247 1257 l 230 1257 q 189 1211 214 1237 l 136 1157 q 35 1069 70 1091 z "},"Ï":{"ha":463,"x_min":20,"x_max":444,"o":"m 74 58 l 168 87 l 168 925 l 69 948 l 64 957 l 74 1012 l 397 1012 l 399 1006 l 393 954 l 295 925 l 295 87 l 398 64 l 403 54 l 393 0 l 71 0 l 67 6 l 74 58 m 418 1181 q 413 1175 418 1181 q 391 1161 407 1168 q 360 1153 376 1153 q 330 1159 345 1153 q 304 1177 315 1166 q 277 1224 277 1202 q 283 1261 277 1246 q 300 1288 290 1276 q 348 1315 325 1315 q 387 1309 372 1315 q 414 1293 402 1303 q 444 1246 444 1268 q 437 1209 444 1224 q 418 1181 430 1194 m 168 1188 q 159 1178 168 1188 q 134 1161 150 1168 q 103 1153 119 1153 q 74 1159 88 1153 q 47 1177 59 1166 q 20 1225 20 1203 q 26 1261 20 1246 q 43 1288 32 1276 q 100 1315 67 1315 q 151 1298 131 1315 q 186 1238 186 1267 q 168 1188 186 1208 z "},"Ð":{"ha":1039,"x_min":-5,"x_max":941,"o":"m 12 58 l 113 87 l 113 467 l 9 467 q 19 546 -5 509 l 113 546 l 113 918 l 15 943 l 10 953 l 20 1012 l 471 1012 q 814 873 686 1012 q 941 509 941 736 q 791 143 941 290 q 430 0 644 0 l 9 0 l 5 6 l 12 58 m 414 932 q 237 918 330 932 l 237 546 l 513 546 q 503 467 521 504 l 237 467 l 237 104 q 432 88 331 88 q 598 112 534 88 q 708 182 662 135 q 804 471 804 283 q 690 817 804 692 q 414 932 585 932 z "},"Ñ":{"ha":1156,"x_min":60,"x_max":1097,"o":"m 75 58 l 178 87 l 178 927 l 65 948 l 60 957 l 70 1012 l 294 1012 l 926 238 l 926 924 l 810 948 l 806 957 l 815 1012 l 1094 1012 l 1097 1006 l 1090 954 l 1006 925 l 1006 0 q 966 -24 994 -24 l 258 849 l 258 87 l 351 64 l 355 54 l 346 0 l 71 0 l 68 6 l 75 58 m 691 1271 q 813 1348 739 1271 q 849 1318 840 1334 q 859 1297 859 1303 q 685 1172 751 1172 q 619 1193 653 1172 q 568 1224 585 1215 q 532 1234 551 1234 q 466 1207 500 1234 q 412 1160 431 1180 q 371 1197 388 1171 q 366 1211 366 1204 q 539 1333 473 1333 q 604 1312 571 1333 q 654 1281 636 1291 q 691 1271 671 1271 z "},"Ò":{"ha":1156,"x_min":85,"x_max":1071,"o":"m 216 122 q 185 156 216 122 q 120 282 154 191 q 85 465 85 374 q 104 625 85 555 q 157 755 123 695 q 238 865 191 816 q 343 949 286 915 q 586 1023 463 1023 q 796 984 709 1023 q 944 878 883 945 q 1071 516 1071 736 q 920 130 1071 287 q 694 -5 825 32 q 541 -24 629 -24 q 366 15 453 -24 q 216 122 278 54 m 224 532 q 254 340 224 429 q 335 190 283 252 q 603 64 440 64 q 840 163 751 64 q 932 454 932 267 q 823 808 932 674 q 564 936 722 936 q 315 832 406 936 q 224 532 224 727 m 530 1369 q 713 1143 593 1251 q 690 1106 704 1117 q 656 1091 676 1095 q 483 1241 560 1150 q 442 1295 459 1268 q 530 1369 468 1352 z "},"Ó":{"ha":1156,"x_min":85,"x_max":1071,"o":"m 216 122 q 185 156 216 122 q 120 282 154 191 q 85 465 85 374 q 104 625 85 555 q 157 755 123 695 q 238 865 191 816 q 343 949 286 915 q 586 1023 463 1023 q 796 984 709 1023 q 944 878 883 945 q 1071 516 1071 736 q 920 130 1071 287 q 694 -5 825 32 q 541 -24 629 -24 q 366 15 453 -24 q 216 122 278 54 m 224 532 q 254 340 224 429 q 335 190 283 252 q 603 64 440 64 q 840 163 751 64 q 932 454 932 267 q 823 808 932 674 q 564 936 722 936 q 315 832 406 936 q 224 532 224 727 m 499 1091 q 465 1106 479 1095 q 442 1143 452 1117 q 589 1310 524 1216 q 625 1369 610 1340 q 713 1295 686 1352 q 563 1136 657 1211 q 499 1091 532 1112 z "},"Ô":{"ha":1156,"x_min":85,"x_max":1071,"o":"m 216 122 q 185 156 216 122 q 120 282 154 191 q 85 465 85 374 q 104 625 85 555 q 157 755 123 695 q 238 865 191 816 q 343 949 286 915 q 586 1023 463 1023 q 796 984 709 1023 q 944 878 883 945 q 1071 516 1071 736 q 920 130 1071 287 q 694 -5 825 32 q 541 -24 629 -24 q 366 15 453 -24 q 216 122 278 54 m 224 532 q 254 340 224 429 q 335 190 283 252 q 603 64 440 64 q 840 163 751 64 q 932 454 932 267 q 823 808 932 674 q 564 936 722 936 q 315 832 406 936 q 224 532 224 727 m 381 1069 q 352 1092 361 1077 q 336 1118 342 1106 q 363 1146 345 1126 q 441 1238 416 1206 l 519 1336 q 536 1359 532 1354 q 631 1359 583 1368 q 652 1329 637 1350 l 802 1138 q 821 1116 817 1120 q 789 1078 809 1088 q 770 1069 781 1074 q 631 1211 715 1109 l 593 1257 l 576 1257 q 536 1211 560 1237 l 483 1157 q 381 1069 416 1091 z "},"Õ":{"ha":1156,"x_min":85,"x_max":1071,"o":"m 216 122 q 185 156 216 122 q 120 282 154 191 q 85 465 85 374 q 104 625 85 555 q 157 755 123 695 q 238 865 191 816 q 343 949 286 915 q 586 1023 463 1023 q 796 984 709 1023 q 944 878 883 945 q 1071 516 1071 736 q 920 130 1071 287 q 694 -5 825 32 q 541 -24 629 -24 q 366 15 453 -24 q 216 122 278 54 m 224 532 q 254 340 224 429 q 335 190 283 252 q 603 64 440 64 q 840 163 751 64 q 932 454 932 267 q 823 808 932 674 q 564 936 722 936 q 315 832 406 936 q 224 532 224 727 m 657 1271 q 779 1348 705 1271 q 815 1318 806 1334 q 825 1297 825 1303 q 651 1172 718 1172 q 585 1193 619 1172 q 534 1224 551 1215 q 498 1234 517 1234 q 432 1207 467 1234 q 378 1160 397 1180 q 337 1197 354 1171 q 332 1211 332 1204 q 505 1333 439 1333 q 570 1312 537 1333 q 620 1281 602 1291 q 657 1271 637 1271 z "},"Ö":{"ha":1156,"x_min":85,"x_max":1071,"o":"m 216 122 q 185 156 216 122 q 120 282 154 191 q 85 465 85 374 q 104 625 85 555 q 157 755 123 695 q 238 865 191 816 q 343 949 286 915 q 586 1023 463 1023 q 796 984 709 1023 q 944 878 883 945 q 1071 516 1071 736 q 920 130 1071 287 q 694 -5 825 32 q 541 -24 629 -24 q 366 15 453 -24 q 216 122 278 54 m 224 532 q 254 340 224 429 q 335 190 283 252 q 603 64 440 64 q 840 163 751 64 q 932 454 932 267 q 823 808 932 674 q 564 936 722 936 q 315 832 406 936 q 224 532 224 727 m 765 1181 q 759 1175 765 1181 q 738 1161 753 1168 q 707 1153 722 1153 q 676 1159 691 1153 q 650 1177 662 1166 q 624 1224 624 1202 q 630 1261 624 1246 q 647 1288 636 1276 q 695 1315 671 1315 q 733 1309 718 1315 q 761 1293 749 1303 q 790 1246 790 1268 q 783 1209 790 1224 q 765 1181 777 1194 m 514 1188 q 505 1178 514 1188 q 481 1161 496 1168 q 450 1153 465 1153 q 420 1159 435 1153 q 393 1177 406 1166 q 366 1225 366 1203 q 372 1261 366 1246 q 389 1288 378 1276 q 447 1315 414 1315 q 497 1298 477 1315 q 532 1238 532 1267 q 514 1188 532 1208 z "},"×":{"ha":810,"x_min":172,"x_max":638,"o":"m 355 389 l 172 573 q 221 623 185 608 l 405 439 l 589 623 q 623 597 616 608 q 635 578 630 587 l 450 393 l 638 206 q 618 176 629 186 q 589 157 608 166 l 401 344 l 216 160 q 172 206 184 174 l 355 389 z "},"Ø":{"ha":1156,"x_min":85,"x_max":1071,"o":"m 694 -5 q 566 -24 629 -24 q 445 -12 502 -24 l 412 -110 q 345 -87 386 -110 l 377 10 q 164 191 241 65 q 85 479 85 318 q 239 865 85 705 q 465 1004 334 965 q 594 1023 530 1023 q 715 1010 658 1023 l 742 1090 q 786 1080 766 1090 q 811 1065 806 1070 l 785 988 q 996 808 920 934 q 1071 516 1071 682 q 920 130 1071 287 q 694 -5 825 32 m 682 913 q 556 936 626 936 q 422 909 486 936 q 315 832 359 883 q 224 540 224 727 q 336 188 224 321 q 414 119 372 146 l 682 913 m 478 86 q 606 64 537 64 q 736 89 675 64 q 840 163 796 114 q 932 454 932 267 q 823 810 932 677 q 747 879 789 851 l 478 86 z "},"Ù":{"ha":1039,"x_min":34,"x_max":1005,"o":"m 121 925 l 39 948 l 34 957 l 43 1012 l 366 1012 l 370 1006 l 362 954 l 250 925 l 250 380 q 318 141 250 218 q 528 64 387 64 q 730 136 648 64 q 814 338 814 211 l 814 925 l 711 948 l 706 957 l 715 1012 l 1002 1012 l 1005 1006 l 999 954 l 901 925 l 901 334 q 792 75 901 173 q 497 -24 681 -24 q 218 70 316 -24 q 121 323 121 162 l 121 925 m 471 1369 q 654 1143 534 1251 q 631 1106 645 1117 q 597 1091 617 1095 q 424 1241 501 1150 q 383 1295 400 1268 q 471 1369 409 1352 z "},"Ú":{"ha":1039,"x_min":34,"x_max":1005,"o":"m 121 925 l 39 948 l 34 957 l 43 1012 l 366 1012 l 370 1006 l 362 954 l 250 925 l 250 380 q 318 141 250 218 q 528 64 387 64 q 730 136 648 64 q 814 338 814 211 l 814 925 l 711 948 l 706 957 l 715 1012 l 1002 1012 l 1005 1006 l 999 954 l 901 925 l 901 334 q 792 75 901 173 q 497 -24 681 -24 q 218 70 316 -24 q 121 323 121 162 l 121 925 m 440 1091 q 406 1106 420 1095 q 383 1143 393 1117 q 530 1310 465 1216 q 566 1369 551 1340 q 654 1295 627 1352 q 504 1136 598 1211 q 440 1091 473 1112 z "},"Û":{"ha":1039,"x_min":34,"x_max":1005,"o":"m 121 925 l 39 948 l 34 957 l 43 1012 l 366 1012 l 370 1006 l 362 954 l 250 925 l 250 380 q 318 141 250 218 q 528 64 387 64 q 730 136 648 64 q 814 338 814 211 l 814 925 l 711 948 l 706 957 l 715 1012 l 1002 1012 l 1005 1006 l 999 954 l 901 925 l 901 334 q 792 75 901 173 q 497 -24 681 -24 q 218 70 316 -24 q 121 323 121 162 l 121 925 m 322 1069 q 293 1092 302 1077 q 277 1118 283 1106 q 304 1146 286 1126 q 382 1238 357 1206 l 460 1336 q 477 1359 473 1354 q 572 1359 524 1368 q 593 1329 578 1350 l 743 1138 q 762 1116 758 1120 q 730 1078 750 1088 q 711 1069 722 1074 q 572 1211 656 1109 l 534 1257 l 517 1257 q 477 1211 501 1237 l 424 1157 q 322 1069 357 1091 z "},"Ü":{"ha":1039,"x_min":34,"x_max":1005,"o":"m 121 925 l 39 948 l 34 957 l 43 1012 l 366 1012 l 370 1006 l 362 954 l 250 925 l 250 380 q 318 141 250 218 q 528 64 387 64 q 730 136 648 64 q 814 338 814 211 l 814 925 l 711 948 l 706 957 l 715 1012 l 1002 1012 l 1005 1006 l 999 954 l 901 925 l 901 334 q 792 75 901 173 q 497 -24 681 -24 q 218 70 316 -24 q 121 323 121 162 l 121 925 m 706 1181 q 700 1175 706 1181 q 679 1161 694 1168 q 648 1153 663 1153 q 617 1159 632 1153 q 591 1177 603 1166 q 565 1224 565 1202 q 571 1261 565 1246 q 588 1288 577 1276 q 636 1315 612 1315 q 674 1309 659 1315 q 702 1293 690 1303 q 731 1246 731 1268 q 724 1209 731 1224 q 706 1181 718 1194 m 455 1188 q 446 1178 455 1188 q 422 1161 437 1168 q 391 1153 406 1153 q 361 1159 376 1153 q 334 1177 347 1166 q 307 1225 307 1203 q 313 1261 307 1246 q 330 1288 319 1276 q 388 1315 355 1315 q 438 1298 418 1315 q 473 1238 473 1267 q 455 1188 473 1208 z "},"Ý":{"ha":811,"x_min":-40,"x_max":852,"o":"m 248 58 l 345 87 l 345 370 l 59 925 l -35 948 l -40 957 l -30 1012 l 318 1012 l 321 1006 l 315 954 l 213 925 l 423 462 l 635 920 l 536 948 l 531 957 l 541 1012 l 848 1012 l 852 1006 l 845 954 l 745 925 l 473 379 l 473 87 l 572 64 l 577 54 l 568 0 l 245 0 l 241 6 l 248 58 m 327 1091 q 293 1106 307 1095 q 270 1143 279 1117 q 416 1310 351 1216 q 453 1369 437 1340 q 541 1295 514 1352 q 391 1136 485 1211 q 327 1091 360 1112 z "},"Þ":{"ha":811,"x_min":39,"x_max":755,"o":"m 387 227 q 271 233 308 227 l 271 87 l 418 64 l 422 54 l 413 0 l 44 0 l 39 7 l 47 58 l 143 87 l 143 925 l 44 948 l 39 957 l 49 1012 l 372 1012 l 375 1006 l 368 954 l 271 925 l 271 800 l 430 800 q 755 521 755 800 q 646 294 755 371 q 387 227 552 227 m 386 721 q 271 707 326 721 l 271 311 q 358 307 297 307 q 466 318 418 307 q 547 355 513 330 q 619 521 619 410 q 560 659 619 603 q 386 721 496 721 z "},"ß":{"ha":811,"x_min":52,"x_max":783,"o":"m 347 27 q 396 131 351 90 q 525 56 454 75 q 571 49 549 49 q 612 55 593 49 q 646 72 631 60 q 677 139 677 98 q 664 204 677 180 q 629 247 650 228 q 580 282 608 267 l 524 313 q 423 384 450 355 q 370 517 370 442 q 399 621 370 578 q 437 663 414 642 l 489 711 q 566 909 566 783 q 464 1034 566 1001 q 389 1044 430 1044 q 323 1036 349 1044 q 283 1006 298 1027 q 256 850 256 967 l 256 0 l 56 0 l 52 6 l 58 58 l 146 87 l 146 801 q 219 1028 146 940 q 431 1123 297 1123 q 613 1060 543 1123 q 678 918 678 1002 q 606 732 678 819 q 564 685 585 707 q 498 619 511 638 q 475 551 475 586 q 489 493 475 517 q 524 450 502 469 q 572 415 545 431 l 629 382 q 729 312 701 342 q 783 176 783 252 q 712 30 783 86 q 531 -24 644 -24 q 347 27 418 -24 z "},"à":{"ha":695,"x_min":54,"x_max":682,"o":"m 585 98 q 675 105 600 98 l 682 96 l 667 40 l 479 -24 l 470 -14 l 458 78 l 417 45 q 277 -24 332 -24 q 179 -5 222 -24 q 109 45 137 14 q 54 193 54 106 q 94 304 54 269 q 231 354 132 338 q 388 376 330 369 q 452 385 445 384 l 452 444 q 313 626 452 626 q 132 583 245 626 q 104 642 104 603 q 351 711 245 711 q 560 469 560 711 l 560 128 q 585 98 560 98 m 174 210 q 247 85 174 122 q 293 73 269 73 q 337 80 316 73 q 379 96 359 87 q 419 117 400 106 l 452 137 l 452 303 q 254 289 333 303 q 174 210 174 274 m 325 800 q 111 1003 191 882 q 199 1078 138 1061 q 330 903 244 995 q 382 852 356 876 q 325 800 366 807 z "},"á":{"ha":695,"x_min":54,"x_max":682,"o":"m 585 98 q 675 105 600 98 l 682 96 l 667 40 l 479 -24 l 470 -14 l 458 78 l 417 45 q 277 -24 332 -24 q 179 -5 222 -24 q 109 45 137 14 q 54 193 54 106 q 94 304 54 269 q 231 354 132 338 q 388 376 330 369 q 452 385 445 384 l 452 444 q 313 626 452 626 q 132 583 245 626 q 104 642 104 603 q 351 711 245 711 q 560 469 560 711 l 560 128 q 585 98 560 98 m 174 210 q 247 85 174 122 q 293 73 269 73 q 337 80 316 73 q 379 96 359 87 q 419 117 400 106 l 452 137 l 452 303 q 254 289 333 303 q 174 210 174 274 m 326 800 q 268 852 284 807 q 452 1078 386 958 q 540 1003 513 1061 q 389 845 485 920 q 326 800 359 821 z "},"â":{"ha":695,"x_min":54,"x_max":682,"o":"m 585 98 q 675 105 600 98 l 682 96 l 667 40 l 479 -24 l 470 -14 l 458 78 l 417 45 q 277 -24 332 -24 q 179 -5 222 -24 q 109 45 137 14 q 54 193 54 106 q 94 304 54 269 q 231 354 132 338 q 388 376 330 369 q 452 385 445 384 l 452 444 q 313 626 452 626 q 132 583 245 626 q 104 642 104 603 q 351 711 245 711 q 560 469 560 711 l 560 128 q 585 98 560 98 m 174 210 q 247 85 174 122 q 293 73 269 73 q 337 80 316 73 q 379 96 359 87 q 419 117 400 106 l 452 137 l 452 303 q 254 289 333 303 q 174 210 174 274 m 121 800 q 92 822 101 808 q 75 848 82 836 q 102 876 85 857 q 181 968 155 936 l 258 1066 q 275 1089 272 1084 q 371 1089 323 1099 q 391 1059 376 1080 q 560 846 549 859 q 529 808 549 818 q 511 800 522 804 q 431 872 471 829 q 333 987 358 955 l 316 987 q 275 941 300 968 l 223 888 q 121 800 159 824 z "},"ã":{"ha":695,"x_min":54,"x_max":682,"o":"m 585 98 q 675 105 600 98 l 682 96 l 667 40 l 479 -24 l 470 -14 l 458 78 l 417 45 q 277 -24 332 -24 q 179 -5 222 -24 q 109 45 137 14 q 54 193 54 106 q 94 304 54 269 q 231 354 132 338 q 388 376 330 369 q 452 385 445 384 l 452 444 q 313 626 452 626 q 132 583 245 626 q 104 642 104 603 q 351 711 245 711 q 560 469 560 711 l 560 128 q 585 98 560 98 m 174 210 q 247 85 174 122 q 293 73 269 73 q 337 80 316 73 q 379 96 359 87 q 419 117 400 106 l 452 137 l 452 303 q 254 289 333 303 q 174 210 174 274 m 404 940 q 526 1016 450 940 q 562 988 551 1004 q 572 966 572 972 q 398 841 465 841 q 333 862 367 841 q 281 893 299 884 q 245 903 264 903 q 125 827 194 903 q 90 857 100 842 q 79 879 80 873 q 225 997 159 972 q 258 1002 239 1002 q 295 992 276 1002 q 332 971 315 983 q 367 950 350 960 q 404 940 385 940 z "},"ä":{"ha":695,"x_min":54,"x_max":682,"o":"m 585 98 q 675 105 600 98 l 682 96 l 667 40 l 479 -24 l 470 -14 l 458 78 l 417 45 q 277 -24 332 -24 q 179 -5 222 -24 q 109 45 137 14 q 54 193 54 106 q 94 304 54 269 q 231 354 132 338 q 388 376 330 369 q 452 385 445 384 l 452 444 q 313 626 452 626 q 132 583 245 626 q 104 642 104 603 q 351 711 245 711 q 560 469 560 711 l 560 128 q 585 98 560 98 m 174 210 q 247 85 174 122 q 293 73 269 73 q 337 80 316 73 q 379 96 359 87 q 419 117 400 106 l 452 137 l 452 303 q 254 289 333 303 q 174 210 174 274 m 532 854 q 523 844 532 854 q 499 827 514 835 q 468 819 484 819 q 438 826 453 819 q 412 842 424 832 q 385 889 385 867 q 391 926 385 911 q 408 954 397 941 q 465 981 432 981 q 515 964 495 981 q 551 904 551 934 q 532 854 551 873 m 248 854 q 239 844 248 854 q 214 827 230 835 q 183 819 199 819 q 154 826 168 819 q 127 842 139 832 q 100 889 100 866 q 106 926 100 911 q 123 954 113 941 q 180 981 148 981 q 231 964 211 981 q 267 904 267 934 q 248 854 267 873 z "},"å":{"ha":695,"x_min":54,"x_max":682,"o":"m 585 98 q 675 105 600 98 l 682 96 l 667 40 l 479 -24 l 470 -14 l 458 78 l 417 45 q 277 -24 332 -24 q 179 -5 222 -24 q 109 45 137 14 q 54 193 54 106 q 94 304 54 269 q 231 354 132 338 q 388 376 330 369 q 452 385 445 384 l 452 444 q 313 626 452 626 q 132 583 245 626 q 104 642 104 603 q 351 711 245 711 q 560 469 560 711 l 560 128 q 585 98 560 98 m 174 210 q 247 85 174 122 q 293 73 269 73 q 337 80 316 73 q 379 96 359 87 q 419 117 400 106 l 452 137 l 452 303 q 254 289 333 303 q 174 210 174 274 m 326 825 q 266 837 294 825 q 216 867 237 848 q 172 972 172 909 q 224 1083 172 1036 q 339 1128 274 1128 q 447 1088 405 1128 q 490 985 490 1048 q 440 869 490 916 q 326 825 392 825 m 329 1063 q 259 986 259 1063 q 310 895 259 922 q 337 888 323 888 q 402 966 402 888 q 378 1038 402 1008 q 329 1063 356 1063 z "},"æ":{"ha":1155,"x_min":85,"x_max":1070,"o":"m 1018 154 q 1056 104 1053 139 q 848 -19 952 5 q 790 -24 824 -24 q 717 -14 756 -24 q 644 17 677 -3 q 535 123 577 56 l 515 104 q 311 -24 391 -24 q 140 45 203 -24 q 85 193 85 106 q 125 304 85 269 q 262 354 163 338 q 419 376 362 369 q 483 385 476 384 l 483 444 q 345 626 483 626 q 163 583 276 626 q 136 642 136 603 q 372 711 277 711 q 575 589 536 711 q 690 679 624 646 q 823 711 755 711 q 936 688 890 711 q 1010 627 981 665 q 1070 433 1070 551 q 1064 375 1070 399 q 785 359 1057 359 l 694 359 q 594 361 647 359 q 678 152 595 232 q 844 81 751 81 q 1018 154 936 81 m 650 423 q 947 436 840 423 q 903 570 947 509 q 791 635 857 635 q 667 581 719 635 q 597 423 610 523 l 650 423 m 509 165 q 483 303 483 223 q 291 291 376 303 q 227 262 247 282 q 206 210 206 243 q 215 155 206 177 q 240 114 224 132 q 328 73 276 73 q 471 134 385 73 q 509 165 493 151 z "},"ç":{"ha":694,"x_min":69,"x_max":644,"o":"m 318 -148 q 287 -111 301 -138 l 326 -18 q 136 100 205 6 q 69 321 69 191 q 179 597 69 483 q 443 711 289 711 q 621 665 558 711 q 600 601 618 630 q 562 556 583 572 q 371 634 469 634 q 238 554 294 634 q 182 364 182 475 q 264 153 182 234 q 431 81 337 81 q 606 154 536 81 q 644 104 644 137 q 430 -22 526 -5 l 409 -82 q 467 -72 442 -70 q 542 -109 517 -75 q 565 -187 568 -142 q 539 -261 562 -232 q 481 -313 517 -291 q 313 -359 408 -359 q 305 -332 305 -351 q 306 -300 304 -313 q 411 -270 373 -297 q 450 -173 464 -234 q 390 -126 439 -126 q 318 -148 341 -126 z "},"è":{"ha":695,"x_min":54,"x_max":643,"o":"m 591 154 q 629 104 626 140 q 420 -19 526 5 q 374 -24 397 -24 q 142 76 231 -24 q 54 321 54 174 q 159 597 54 481 q 271 680 208 650 q 398 711 334 711 q 508 688 463 711 q 583 627 553 665 q 643 433 643 551 q 637 375 643 399 q 358 358 629 358 q 168 361 268 358 q 251 152 169 231 q 416 81 324 81 q 591 154 509 81 m 224 423 q 521 436 427 423 q 477 570 521 509 q 364 635 430 635 q 240 582 292 635 q 171 423 184 526 l 224 423 m 385 800 q 170 1003 251 882 q 258 1078 197 1061 q 389 903 304 995 q 442 852 416 876 q 385 800 426 807 z "},"é":{"ha":695,"x_min":54,"x_max":643,"o":"m 591 154 q 629 104 626 140 q 420 -19 526 5 q 374 -24 397 -24 q 142 76 231 -24 q 54 321 54 174 q 159 597 54 481 q 271 680 208 650 q 398 711 334 711 q 508 688 463 711 q 583 627 553 665 q 643 433 643 551 q 637 375 643 399 q 358 358 629 358 q 168 361 268 358 q 251 152 169 231 q 416 81 324 81 q 591 154 509 81 m 224 423 q 521 436 427 423 q 477 570 521 509 q 364 635 430 635 q 240 582 292 635 q 171 423 184 526 l 224 423 m 385 800 q 328 852 344 807 q 511 1078 446 958 q 600 1003 572 1061 q 449 845 545 920 q 385 800 418 821 z "},"ê":{"ha":695,"x_min":54,"x_max":643,"o":"m 591 154 q 629 104 626 140 q 420 -19 526 5 q 374 -24 397 -24 q 142 76 231 -24 q 54 321 54 174 q 159 597 54 481 q 271 680 208 650 q 398 711 334 711 q 508 688 463 711 q 583 627 553 665 q 643 433 643 551 q 637 375 643 399 q 358 358 629 358 q 168 361 268 358 q 251 152 169 231 q 416 81 324 81 q 591 154 509 81 m 224 423 q 521 436 427 423 q 477 570 521 509 q 364 635 430 635 q 240 582 292 635 q 171 423 184 526 l 224 423 m 180 800 q 151 822 161 808 q 135 848 142 836 q 162 876 144 857 q 241 968 215 936 l 318 1066 q 335 1089 332 1084 q 431 1089 382 1099 q 451 1059 436 1080 q 620 846 609 859 q 589 808 608 818 q 570 800 581 804 q 491 872 530 829 q 393 987 418 955 l 376 987 q 334 941 359 968 l 283 888 q 180 800 219 824 z "},"ë":{"ha":695,"x_min":54,"x_max":643,"o":"m 591 154 q 629 104 626 140 q 420 -19 526 5 q 374 -24 397 -24 q 142 76 231 -24 q 54 321 54 174 q 159 597 54 481 q 271 680 208 650 q 398 711 334 711 q 508 688 463 711 q 583 627 553 665 q 643 433 643 551 q 637 375 643 399 q 358 358 629 358 q 168 361 268 358 q 251 152 169 231 q 416 81 324 81 q 591 154 509 81 m 224 423 q 521 436 427 423 q 477 570 521 509 q 364 635 430 635 q 240 582 292 635 q 171 423 184 526 l 224 423 m 592 854 q 583 844 592 854 q 558 827 574 835 q 528 819 543 819 q 498 826 513 819 q 472 842 484 832 q 444 889 444 867 q 450 926 444 911 q 467 954 456 941 q 524 981 492 981 q 574 964 555 981 q 610 904 610 934 q 592 854 610 873 m 308 854 q 299 844 308 854 q 274 827 290 835 q 243 819 258 819 q 213 826 228 819 q 187 842 199 832 q 160 889 160 866 q 166 926 160 911 q 183 954 172 941 q 240 981 208 981 q 290 964 271 981 q 326 904 326 934 q 308 854 326 873 z "},"ì":{"ha":463,"x_min":28,"x_max":404,"o":"m 95 58 l 184 87 l 184 535 l 90 575 l 83 583 l 90 620 l 281 698 l 293 692 l 293 87 l 401 64 l 404 54 l 397 0 l 93 0 l 88 6 l 95 58 m 243 800 q 28 1003 109 882 q 117 1078 56 1061 q 248 903 162 995 q 300 852 274 876 q 243 800 284 807 z "},"í":{"ha":463,"x_min":83,"x_max":458,"o":"m 95 58 l 184 87 l 184 535 l 90 575 l 83 583 l 90 620 l 281 698 l 293 692 l 293 87 l 401 64 l 404 54 l 397 0 l 93 0 l 88 6 l 95 58 m 243 800 q 186 852 202 807 q 370 1078 304 958 q 458 1003 431 1061 q 307 845 403 920 q 243 800 277 821 z "},"î":{"ha":463,"x_min":-6,"x_max":479,"o":"m 95 58 l 184 87 l 184 535 l 90 575 l 83 583 l 90 620 l 281 698 l 293 692 l 293 87 l 401 64 l 404 54 l 397 0 l 93 0 l 88 6 l 95 58 m 39 800 q 10 822 20 808 q -6 848 1 836 q 21 876 3 857 q 100 968 74 936 l 177 1066 q 194 1089 191 1084 q 290 1089 241 1099 q 310 1059 295 1080 q 479 846 468 859 q 448 808 467 818 q 429 800 440 804 q 350 872 389 829 q 252 987 277 955 l 235 987 q 193 941 218 968 l 142 888 q 39 800 78 824 z "},"ï":{"ha":463,"x_min":19,"x_max":469,"o":"m 95 58 l 184 87 l 184 535 l 90 575 l 83 583 l 90 620 l 281 698 l 293 692 l 293 87 l 401 64 l 404 54 l 397 0 l 93 0 l 88 6 l 95 58 m 451 854 q 442 844 451 854 q 417 827 433 835 q 387 819 402 819 q 357 826 372 819 q 331 842 342 832 q 303 889 303 867 q 309 926 303 911 q 326 954 315 941 q 383 981 351 981 q 433 964 414 981 q 469 904 469 934 q 451 854 469 873 m 167 854 q 158 844 167 854 q 133 827 149 835 q 102 819 117 819 q 72 826 87 819 q 46 842 58 832 q 19 889 19 866 q 25 926 19 911 q 42 954 31 941 q 99 981 66 981 q 149 964 130 981 q 185 904 185 934 q 167 854 185 873 z "},"ð":{"ha":811,"x_min":53,"x_max":745,"o":"m 280 1059 q 455 951 379 1009 l 635 1041 q 663 984 657 1023 l 507 904 q 707 578 644 772 q 745 361 745 464 q 718 192 745 258 q 642 77 690 125 q 385 -24 541 -24 q 144 79 238 -24 q 53 329 53 180 q 161 598 53 503 q 402 682 256 682 q 543 650 491 682 q 426 863 485 802 q 247 773 247 771 q 219 831 222 793 l 376 910 q 240 1009 302 972 q 262 1050 242 1036 q 280 1059 270 1057 m 175 370 q 197 243 175 301 q 253 142 218 184 q 416 52 326 52 q 609 186 564 52 q 624 300 624 232 q 608 427 624 369 q 565 524 593 484 q 412 607 507 607 q 175 370 175 607 z "},"ñ":{"ha":926,"x_min":83,"x_max":870,"o":"m 501 608 q 292 556 407 608 l 292 87 l 401 64 l 404 54 l 396 0 l 92 0 l 87 6 l 94 58 l 184 87 l 184 540 l 90 581 l 83 589 l 90 626 l 268 698 l 279 692 l 279 608 q 534 711 435 711 q 693 648 636 711 q 749 479 749 587 l 749 87 l 867 64 l 870 54 l 862 0 l 539 0 l 536 6 l 543 58 l 640 87 l 640 447 q 501 608 640 608 m 540 940 q 662 1016 586 940 q 697 988 687 1004 q 708 966 707 972 q 534 841 600 841 q 469 862 503 841 q 417 893 435 884 q 380 903 399 903 q 261 827 330 903 q 225 857 235 842 q 215 879 216 873 q 361 997 295 972 q 393 1002 375 1002 q 431 992 412 1002 q 468 971 450 983 q 503 950 486 960 q 540 940 520 940 z "},"ò":{"ha":810,"x_min":60,"x_max":751,"o":"m 60 332 q 89 479 60 409 q 167 600 117 549 q 420 711 273 711 q 663 609 571 711 q 751 357 751 511 q 645 84 751 195 q 392 -24 541 -24 q 151 79 245 -24 q 60 332 60 180 m 238 571 q 224 555 238 571 q 195 489 210 538 q 180 370 180 439 q 202 243 180 301 q 258 142 224 184 q 422 52 332 52 q 614 193 571 52 q 630 313 630 242 q 608 444 630 385 q 552 546 586 504 q 476 612 517 589 q 390 635 434 635 q 306 620 345 635 q 238 571 266 604 m 405 800 q 191 1003 271 882 q 279 1078 218 1061 q 410 903 324 995 q 463 852 436 876 q 405 800 446 807 z "},"ó":{"ha":810,"x_min":60,"x_max":751,"o":"m 60 332 q 89 479 60 409 q 167 600 117 549 q 420 711 273 711 q 663 609 571 711 q 751 357 751 511 q 645 84 751 195 q 392 -24 541 -24 q 151 79 245 -24 q 60 332 60 180 m 238 571 q 224 555 238 571 q 195 489 210 538 q 180 370 180 439 q 202 243 180 301 q 258 142 224 184 q 422 52 332 52 q 614 193 571 52 q 630 313 630 242 q 608 444 630 385 q 552 546 586 504 q 476 612 517 589 q 390 635 434 635 q 306 620 345 635 q 238 571 266 604 m 406 800 q 348 852 364 807 q 532 1078 466 958 q 620 1003 593 1061 q 469 845 565 920 q 406 800 439 821 z "},"ô":{"ha":810,"x_min":60,"x_max":751,"o":"m 60 332 q 89 479 60 409 q 167 600 117 549 q 420 711 273 711 q 663 609 571 711 q 751 357 751 511 q 645 84 751 195 q 392 -24 541 -24 q 151 79 245 -24 q 60 332 60 180 m 238 571 q 224 555 238 571 q 195 489 210 538 q 180 370 180 439 q 202 243 180 301 q 258 142 224 184 q 422 52 332 52 q 614 193 571 52 q 630 313 630 242 q 608 444 630 385 q 552 546 586 504 q 476 612 517 589 q 390 635 434 635 q 306 620 345 635 q 238 571 266 604 m 201 800 q 172 822 181 808 q 155 848 162 836 q 182 876 165 857 q 261 968 235 936 l 338 1066 q 355 1089 352 1084 q 451 1089 403 1099 q 471 1059 456 1080 q 640 846 629 859 q 609 808 629 818 q 591 800 602 804 q 511 872 551 829 q 413 987 438 955 l 396 987 q 355 941 380 968 l 303 888 q 201 800 239 824 z "},"õ":{"ha":810,"x_min":60,"x_max":751,"o":"m 60 332 q 89 479 60 409 q 167 600 117 549 q 420 711 273 711 q 663 609 571 711 q 751 357 751 511 q 645 84 751 195 q 392 -24 541 -24 q 151 79 245 -24 q 60 332 60 180 m 238 571 q 224 555 238 571 q 195 489 210 538 q 180 370 180 439 q 202 243 180 301 q 258 142 224 184 q 422 52 332 52 q 614 193 571 52 q 630 313 630 242 q 608 444 630 385 q 552 546 586 504 q 476 612 517 589 q 390 635 434 635 q 306 620 345 635 q 238 571 266 604 m 484 940 q 606 1016 530 940 q 642 988 631 1004 q 652 966 652 972 q 478 841 545 841 q 413 862 447 841 q 361 893 379 884 q 325 903 344 903 q 205 827 274 903 q 170 857 180 842 q 159 879 160 873 q 305 997 239 972 q 338 1002 319 1002 q 375 992 356 1002 q 412 971 395 983 q 447 950 430 960 q 484 940 465 940 z "},"ö":{"ha":810,"x_min":60,"x_max":751,"o":"m 60 332 q 89 479 60 409 q 167 600 117 549 q 420 711 273 711 q 663 609 571 711 q 751 357 751 511 q 645 84 751 195 q 392 -24 541 -24 q 151 79 245 -24 q 60 332 60 180 m 238 571 q 224 555 238 571 q 195 489 210 538 q 180 370 180 439 q 202 243 180 301 q 258 142 224 184 q 422 52 332 52 q 614 193 571 52 q 630 313 630 242 q 608 444 630 385 q 552 546 586 504 q 476 612 517 589 q 390 635 434 635 q 306 620 345 635 q 238 571 266 604 m 612 854 q 603 844 612 854 q 579 827 594 835 q 548 819 564 819 q 518 826 533 819 q 492 842 504 832 q 465 889 465 867 q 471 926 465 911 q 488 954 477 941 q 545 981 512 981 q 595 964 575 981 q 631 904 631 934 q 612 854 631 873 m 328 854 q 319 844 328 854 q 294 827 310 835 q 263 819 279 819 q 234 826 248 819 q 208 842 219 832 q 180 889 180 866 q 186 926 180 911 q 203 954 193 941 q 260 981 228 981 q 311 964 291 981 q 347 904 347 934 q 328 854 347 873 z "},"÷":{"ha":810,"x_min":96,"x_max":706,"o":"m 456 568 q 451 562 456 568 q 429 548 445 555 q 398 540 414 540 q 368 546 382 540 q 342 564 353 553 q 315 611 315 589 q 321 647 315 633 q 338 674 328 662 q 386 701 363 701 q 424 695 409 701 q 452 678 439 689 q 481 632 481 654 q 475 595 481 610 q 456 568 468 581 m 700 425 q 706 393 706 402 q 700 361 706 384 l 109 361 q 109 425 96 393 l 700 425 m 349 105 q 340 114 349 105 q 323 136 330 122 q 315 165 315 151 q 321 195 315 180 q 338 222 328 210 q 386 249 363 249 q 424 243 409 249 q 452 227 439 237 q 481 180 481 202 q 475 143 481 158 q 456 116 468 128 q 396 88 430 88 q 349 105 368 88 z "},"ø":{"ha":810,"x_min":60,"x_max":751,"o":"m 388 -24 q 235 12 310 -24 l 176 -70 q 115 -29 134 -63 l 174 54 q 60 329 60 157 q 167 600 60 489 q 420 711 273 711 q 600 661 520 711 l 655 741 q 714 701 697 737 l 653 617 q 751 357 751 515 q 645 84 751 195 q 388 -24 541 -24 m 537 562 q 395 635 468 635 q 195 488 239 635 q 180 372 180 439 q 250 152 180 245 l 537 562 m 292 107 q 422 52 355 52 q 614 193 571 52 q 630 308 630 242 q 572 518 630 423 l 292 107 z "},"ù":{"ha":811,"x_min":58,"x_max":791,"o":"m 317 90 q 401 78 347 78 q 561 139 456 78 l 561 541 l 465 583 l 460 591 l 465 628 l 656 698 l 669 693 l 669 136 q 674 113 669 121 q 690 105 680 105 q 716 106 701 105 l 745 109 q 783 113 763 111 l 791 104 l 774 47 l 589 -16 l 580 -6 l 572 78 l 566 79 l 533 56 q 432 -4 479 17 q 343 -24 384 -24 q 261 -8 303 -24 q 190 39 219 9 q 131 209 131 101 l 131 559 l 64 593 l 58 600 l 64 637 l 229 698 l 239 692 l 239 239 q 317 90 239 122 m 397 800 q 182 1003 263 882 q 271 1078 210 1061 q 401 903 316 995 q 454 852 428 876 q 397 800 438 807 z "},"ú":{"ha":811,"x_min":58,"x_max":791,"o":"m 317 90 q 401 78 347 78 q 561 139 456 78 l 561 541 l 465 583 l 460 591 l 465 628 l 656 698 l 669 693 l 669 136 q 674 113 669 121 q 690 105 680 105 q 716 106 701 105 l 745 109 q 783 113 763 111 l 791 104 l 774 47 l 589 -16 l 580 -6 l 572 78 l 566 79 l 533 56 q 432 -4 479 17 q 343 -24 384 -24 q 261 -8 303 -24 q 190 39 219 9 q 131 209 131 101 l 131 559 l 64 593 l 58 600 l 64 637 l 229 698 l 239 692 l 239 239 q 317 90 239 122 m 397 800 q 340 852 356 807 q 524 1078 458 958 q 612 1003 585 1061 q 461 845 557 920 q 397 800 431 821 z "},"û":{"ha":811,"x_min":58,"x_max":791,"o":"m 317 90 q 401 78 347 78 q 561 139 456 78 l 561 541 l 465 583 l 460 591 l 465 628 l 656 698 l 669 693 l 669 136 q 674 113 669 121 q 690 105 680 105 q 716 106 701 105 l 745 109 q 783 113 763 111 l 791 104 l 774 47 l 589 -16 l 580 -6 l 572 78 l 566 79 l 533 56 q 432 -4 479 17 q 343 -24 384 -24 q 261 -8 303 -24 q 190 39 219 9 q 131 209 131 101 l 131 559 l 64 593 l 58 600 l 64 637 l 229 698 l 239 692 l 239 239 q 317 90 239 122 m 193 800 q 163 822 173 808 q 147 848 154 836 q 174 876 157 857 q 253 968 227 936 l 330 1066 q 347 1089 344 1084 q 443 1089 395 1099 q 463 1059 448 1080 q 632 846 621 859 q 601 808 621 818 q 583 800 593 804 q 503 872 543 829 q 405 987 430 955 l 388 987 q 347 941 372 968 l 295 888 q 193 800 231 824 z "},"ü":{"ha":811,"x_min":58,"x_max":791,"o":"m 317 90 q 401 78 347 78 q 561 139 456 78 l 561 541 l 465 583 l 460 591 l 465 628 l 656 698 l 669 693 l 669 136 q 674 113 669 121 q 690 105 680 105 q 716 106 701 105 l 745 109 q 783 113 763 111 l 791 104 l 774 47 l 589 -16 l 580 -6 l 572 78 l 566 79 l 533 56 q 432 -4 479 17 q 343 -24 384 -24 q 261 -8 303 -24 q 190 39 219 9 q 131 209 131 101 l 131 559 l 64 593 l 58 600 l 64 637 l 229 698 l 239 692 l 239 239 q 317 90 239 122 m 604 854 q 595 844 604 854 q 571 827 586 835 q 540 819 555 819 q 510 826 525 819 q 484 842 496 832 q 456 889 456 867 q 463 926 456 911 q 479 954 469 941 q 536 981 504 981 q 587 964 567 981 q 623 904 623 934 q 604 854 623 873 m 320 854 q 311 844 320 854 q 286 827 302 835 q 255 819 271 819 q 225 826 240 819 q 199 842 211 832 q 172 889 172 866 q 178 926 172 911 q 195 954 184 941 q 252 981 220 981 q 302 964 283 981 q 338 904 338 934 q 320 854 338 873 z "},"ý":{"ha":810,"x_min":42,"x_max":780,"o":"m 180 -305 q 366 3 307 -115 l 125 605 l 47 625 l 42 633 l 50 687 l 332 687 l 336 680 l 330 631 l 254 605 l 426 110 l 432 110 q 508 305 475 215 l 565 463 q 612 607 592 542 l 515 625 l 511 633 l 519 687 l 775 687 l 780 680 l 770 625 l 699 605 l 498 104 q 423 -68 462 16 l 353 -218 l 281 -365 q 208 -335 243 -365 q 180 -305 192 -322 m 433 800 q 376 852 392 807 q 559 1078 494 958 q 648 1003 621 1061 q 497 845 593 920 q 433 800 467 821 z "},"þ":{"ha":810,"x_min":1,"x_max":730,"o":"m 632 93 q 520 7 585 39 q 383 -24 455 -24 q 222 0 311 -24 l 222 -264 l 358 -288 l 361 -297 l 353 -352 l 22 -352 l 18 -343 l 24 -294 l 114 -264 l 114 936 l 5 963 l 1 972 l 5 1009 l 211 1086 l 222 1080 l 222 626 q 416 711 337 711 q 552 685 496 711 q 647 614 608 660 q 730 372 730 520 q 632 93 730 208 m 367 607 q 222 567 298 607 l 222 140 q 338 62 264 89 q 411 52 369 52 q 491 72 452 52 q 557 129 529 92 q 616 329 616 208 q 552 535 616 461 q 367 607 489 607 z "},"ÿ":{"ha":810,"x_min":42,"x_max":780,"o":"m 180 -305 q 366 3 307 -115 l 125 605 l 47 625 l 42 633 l 50 687 l 332 687 l 336 680 l 330 631 l 254 605 l 426 110 l 432 110 q 508 305 475 215 l 565 463 q 612 607 592 542 l 515 625 l 511 633 l 519 687 l 775 687 l 780 680 l 770 625 l 699 605 l 498 104 q 423 -68 462 16 l 353 -218 l 281 -365 q 208 -335 243 -365 q 180 -305 192 -322 m 640 854 q 631 844 640 854 q 607 827 622 835 q 576 819 591 819 q 546 826 561 819 q 520 842 532 832 q 492 889 492 867 q 498 926 492 911 q 515 954 505 941 q 572 981 540 981 q 623 964 603 981 q 659 904 659 934 q 640 854 659 873 m 356 854 q 347 844 356 854 q 322 827 338 835 q 291 819 307 819 q 261 826 276 819 q 235 842 247 832 q 208 889 208 866 q 214 926 208 911 q 231 954 220 941 q 288 981 256 981 q 338 964 319 981 q 374 904 374 934 q 356 854 374 873 z "},"Ā":{"ha":1041,"x_min":16,"x_max":1033,"o":"m 23 58 l 127 87 l 456 1004 q 581 1036 490 1021 l 920 87 l 1028 64 l 1033 54 l 1023 0 l 699 0 l 696 6 l 702 58 l 789 87 l 692 361 l 309 361 l 216 87 l 309 64 l 313 54 l 304 0 l 20 0 l 16 6 l 23 58 m 664 441 l 496 893 l 336 441 l 664 441 m 364 1131 q 374 1211 350 1173 l 677 1211 q 667 1131 687 1167 l 364 1131 z "},"ā":{"ha":695,"x_min":54,"x_max":682,"o":"m 585 98 q 675 105 600 98 l 682 96 l 667 40 l 479 -24 l 470 -14 l 458 78 l 417 45 q 277 -24 332 -24 q 179 -5 222 -24 q 109 45 137 14 q 54 193 54 106 q 94 304 54 269 q 231 354 132 338 q 388 376 330 369 q 452 385 445 384 l 452 444 q 313 626 452 626 q 132 583 245 626 q 104 642 104 603 q 351 711 245 711 q 560 469 560 711 l 560 128 q 585 98 560 98 m 174 210 q 247 85 174 122 q 293 73 269 73 q 337 80 316 73 q 379 96 359 87 q 419 117 400 106 l 452 137 l 452 303 q 254 289 333 303 q 174 210 174 274 m 115 820 q 124 899 100 862 l 522 899 q 513 820 532 857 l 115 820 z "},"Ă":{"ha":1041,"x_min":16,"x_max":1033,"o":"m 23 58 l 127 87 l 456 1004 q 581 1036 490 1021 l 920 87 l 1028 64 l 1033 54 l 1023 0 l 699 0 l 696 6 l 702 58 l 789 87 l 692 361 l 309 361 l 216 87 l 309 64 l 313 54 l 304 0 l 20 0 l 16 6 l 23 58 m 664 441 l 496 893 l 336 441 l 664 441 m 518 1133 q 441 1148 475 1133 q 383 1190 408 1164 q 320 1322 338 1239 q 375 1338 344 1343 q 469 1226 399 1254 q 521 1217 492 1217 q 669 1338 633 1217 q 721 1320 705 1340 q 655 1194 707 1249 q 518 1133 596 1133 z "},"ă":{"ha":695,"x_min":54,"x_max":682,"o":"m 585 98 q 675 105 600 98 l 682 96 l 667 40 l 479 -24 l 470 -14 l 458 78 l 417 45 q 277 -24 332 -24 q 179 -5 222 -24 q 109 45 137 14 q 54 193 54 106 q 94 304 54 269 q 231 354 132 338 q 388 376 330 369 q 452 385 445 384 l 452 444 q 313 626 452 626 q 132 583 245 626 q 104 642 104 603 q 351 711 245 711 q 560 469 560 711 l 560 128 q 585 98 560 98 m 174 210 q 247 85 174 122 q 293 73 269 73 q 337 80 316 73 q 379 96 359 87 q 419 117 400 106 l 452 137 l 452 303 q 254 289 333 303 q 174 210 174 274 m 323 821 q 246 837 280 821 q 188 879 212 852 q 125 1010 143 926 q 180 1027 148 1029 q 274 914 205 941 q 326 905 298 905 q 474 1027 439 905 q 526 1008 507 1029 q 460 882 513 938 q 323 821 401 821 z "},"Ą":{"ha":1041,"x_min":16,"x_max":1033,"o":"m 824 -191 q 880 -244 824 -244 q 939 -226 905 -244 q 972 -208 972 -208 q 985 -214 977 -208 q 1002 -249 1002 -229 q 911 -312 959 -294 q 833 -331 864 -331 q 781 -322 802 -331 q 745 -296 760 -313 q 714 -206 714 -262 q 767 -60 714 -134 q 821 0 790 -28 l 699 0 l 696 6 l 702 58 l 789 87 l 692 361 l 309 361 l 216 87 l 309 64 l 313 54 l 304 0 l 20 0 l 16 6 l 23 58 l 127 87 l 456 1004 q 581 1036 490 1021 l 920 87 l 1028 64 l 1033 54 l 1023 0 l 915 0 q 838 -114 865 -45 q 824 -191 824 -149 m 664 441 l 496 893 l 336 441 l 664 441 z "},"ą":{"ha":695,"x_min":54,"x_max":682,"o":"m 458 87 q 278 -24 351 -24 q 109 45 170 -24 q 54 193 54 107 q 94 304 54 269 q 231 354 132 338 q 388 376 330 369 q 452 385 445 384 l 452 444 q 313 626 452 626 q 132 583 245 626 q 104 642 104 603 q 351 711 245 711 q 560 469 560 711 l 560 128 q 585 98 560 98 q 675 105 600 98 l 682 96 l 667 40 l 640 31 q 492 -130 509 -18 q 487 -191 487 -161 q 543 -244 487 -244 q 602 -226 569 -244 q 636 -208 635 -208 q 649 -214 641 -208 q 667 -249 667 -230 q 574 -313 621 -294 q 496 -331 527 -331 q 444 -322 465 -331 q 408 -297 422 -313 q 377 -212 377 -264 q 472 -16 377 -111 l 470 -14 l 458 87 m 452 146 l 452 303 q 274 293 333 303 q 195 262 215 282 q 174 210 174 243 q 183 155 174 177 q 208 114 192 132 q 300 73 245 73 q 452 146 354 73 z "},"Ć":{"ha":1042,"x_min":53,"x_max":917,"o":"m 865 733 q 806 741 827 733 q 799 865 806 827 q 671 915 751 899 q 520 930 592 930 q 390 903 449 930 q 288 825 332 877 q 192 526 192 713 q 313 176 192 304 q 578 62 420 62 q 811 138 711 62 q 823 270 820 169 q 842 275 832 273 l 861 278 q 880 279 870 279 l 917 67 q 697 -11 831 16 q 545 -24 627 -24 q 398 -6 463 -24 q 279 45 333 12 q 183 124 225 78 q 113 225 141 170 q 53 463 53 338 q 91 689 53 588 q 199 864 130 789 q 365 980 268 938 q 558 1023 461 1023 q 916 949 774 1023 l 865 733 m 498 1091 q 464 1106 477 1095 q 441 1143 450 1117 q 587 1310 522 1216 q 624 1369 608 1340 q 712 1295 685 1352 q 562 1136 656 1211 q 498 1091 531 1112 z "},"ć":{"ha":694,"x_min":69,"x_max":644,"o":"m 562 556 q 371 634 469 634 q 238 554 294 634 q 182 364 182 475 q 264 153 182 234 q 431 81 337 81 q 606 154 536 81 q 644 104 644 137 q 443 -19 538 5 q 401 -24 422 -24 q 157 76 248 -24 q 69 321 69 172 q 179 597 69 483 q 443 711 289 711 q 621 665 558 711 q 600 601 618 630 q 562 556 583 572 m 397 800 q 340 852 356 807 q 524 1078 458 958 q 612 1003 585 1061 q 461 845 557 920 q 397 800 431 821 z "},"Ĉ":{"ha":1042,"x_min":53,"x_max":917,"o":"m 865 733 q 806 741 827 733 q 799 865 806 827 q 671 915 751 899 q 520 930 592 930 q 390 903 449 930 q 288 825 332 877 q 192 526 192 713 q 313 176 192 304 q 578 62 420 62 q 811 138 711 62 q 823 270 820 169 q 842 275 832 273 l 861 278 q 880 279 870 279 l 917 67 q 697 -11 831 16 q 545 -24 627 -24 q 398 -6 463 -24 q 279 45 333 12 q 183 124 225 78 q 113 225 141 170 q 53 463 53 338 q 91 689 53 588 q 199 864 130 789 q 365 980 268 938 q 558 1023 461 1023 q 916 949 774 1023 l 865 733 m 380 1069 q 350 1092 359 1077 q 334 1118 341 1106 q 362 1146 344 1126 q 440 1238 414 1206 l 517 1336 q 534 1359 531 1354 q 630 1359 582 1368 q 651 1329 635 1350 l 801 1138 q 819 1116 815 1120 q 788 1078 808 1088 q 769 1069 780 1074 q 629 1211 714 1109 l 592 1257 l 575 1257 q 534 1211 559 1237 l 481 1157 q 380 1069 415 1091 z "},"ĉ":{"ha":694,"x_min":69,"x_max":644,"o":"m 562 556 q 371 634 469 634 q 238 554 294 634 q 182 364 182 475 q 264 153 182 234 q 431 81 337 81 q 606 154 536 81 q 644 104 644 137 q 443 -19 538 5 q 401 -24 422 -24 q 157 76 248 -24 q 69 321 69 172 q 179 597 69 483 q 443 711 289 711 q 621 665 558 711 q 600 601 618 630 q 562 556 583 572 m 193 800 q 163 822 173 808 q 147 848 154 836 q 174 876 157 857 q 253 968 227 936 l 330 1066 q 347 1089 344 1084 q 443 1089 395 1099 q 463 1059 448 1080 q 632 846 621 859 q 601 808 621 818 q 583 800 593 804 q 503 872 543 829 q 405 987 430 955 l 388 987 q 347 941 372 968 l 295 888 q 193 800 231 824 z "},"Ċ":{"ha":1042,"x_min":53,"x_max":917,"o":"m 865 733 q 806 741 827 733 q 799 865 806 827 q 671 915 751 899 q 520 930 592 930 q 390 903 449 930 q 288 825 332 877 q 192 526 192 713 q 313 176 192 304 q 578 62 420 62 q 811 138 711 62 q 823 270 820 169 q 842 275 832 273 l 861 278 q 880 279 870 279 l 917 67 q 697 -11 831 16 q 545 -24 627 -24 q 398 -6 463 -24 q 279 45 333 12 q 183 124 225 78 q 113 225 141 170 q 53 463 53 338 q 91 689 53 588 q 199 864 130 789 q 365 980 268 938 q 558 1023 461 1023 q 916 949 774 1023 l 865 733 m 642 1146 q 633 1136 642 1146 q 608 1119 624 1126 q 577 1111 593 1111 q 547 1117 562 1111 q 520 1134 532 1124 q 494 1180 494 1158 q 500 1218 494 1203 q 517 1244 506 1232 q 574 1272 541 1272 q 624 1255 604 1272 q 660 1195 660 1225 q 642 1146 660 1166 z "},"ċ":{"ha":694,"x_min":69,"x_max":644,"o":"m 562 556 q 371 634 469 634 q 238 554 294 634 q 182 364 182 475 q 264 153 182 234 q 431 81 337 81 q 606 154 536 81 q 644 104 644 137 q 443 -19 538 5 q 401 -24 422 -24 q 157 76 248 -24 q 69 321 69 172 q 179 597 69 483 q 443 711 289 711 q 621 665 558 711 q 600 601 618 630 q 562 556 583 572 m 348 781 q 339 790 348 781 q 322 812 330 798 q 315 842 315 827 q 321 871 315 857 q 338 898 327 886 q 385 925 362 925 q 424 919 408 925 q 452 902 439 913 q 481 856 481 878 q 474 819 481 834 q 455 792 467 804 q 395 764 429 764 q 348 781 367 764 z "},"Č":{"ha":1042,"x_min":53,"x_max":917,"o":"m 865 733 q 806 741 827 733 q 799 865 806 827 q 671 915 751 899 q 520 930 592 930 q 390 903 449 930 q 288 825 332 877 q 192 526 192 713 q 313 176 192 304 q 578 62 420 62 q 811 138 711 62 q 823 270 820 169 q 842 275 832 273 l 861 278 q 880 279 870 279 l 917 67 q 697 -11 831 16 q 545 -24 627 -24 q 398 -6 463 -24 q 279 45 333 12 q 183 124 225 78 q 113 225 141 170 q 53 463 53 338 q 91 689 53 588 q 199 864 130 789 q 365 980 268 938 q 558 1023 461 1023 q 916 949 774 1023 l 865 733 m 349 1319 q 397 1367 371 1357 q 530 1236 449 1333 l 566 1192 l 584 1192 l 620 1234 q 755 1369 697 1327 q 786 1352 777 1360 q 804 1323 796 1343 q 623 1090 635 1112 q 583 1086 606 1086 q 526 1090 540 1086 q 509 1116 521 1099 q 450 1198 469 1173 l 378 1286 q 349 1319 362 1306 z "},"č":{"ha":694,"x_min":69,"x_max":644,"o":"m 562 556 q 371 634 469 634 q 238 554 294 634 q 182 364 182 475 q 264 153 182 234 q 431 81 337 81 q 606 154 536 81 q 644 104 644 137 q 443 -19 538 5 q 401 -24 422 -24 q 157 76 248 -24 q 69 321 69 172 q 179 597 69 483 q 443 711 289 711 q 621 665 558 711 q 600 601 618 630 q 562 556 583 572 m 347 805 q 330 831 342 814 q 237 956 259 929 q 199 1002 237 956 q 170 1035 183 1022 q 193 1068 183 1059 q 218 1083 203 1077 q 350 951 270 1048 q 387 907 350 951 l 405 907 q 521 1038 488 1006 q 576 1085 554 1069 q 614 1060 606 1072 q 625 1038 621 1048 q 443 805 456 828 q 393 800 419 800 q 347 805 367 800 z "},"Ď":{"ha":1039,"x_min":26,"x_max":948,"o":"m 33 58 l 133 87 l 133 918 l 35 943 l 31 953 l 40 1012 l 477 1012 q 821 873 693 1012 q 948 509 948 736 q 798 143 948 290 q 437 0 650 0 l 29 0 l 26 6 l 33 58 m 426 932 q 258 918 347 932 l 258 104 q 446 88 351 88 q 605 112 541 88 q 715 182 669 135 q 811 471 811 283 q 697 817 811 692 q 426 932 592 932 m 295 1319 q 342 1367 317 1357 q 475 1236 395 1333 l 512 1192 l 530 1192 l 566 1234 q 701 1369 643 1327 q 732 1352 722 1360 q 750 1323 742 1343 q 568 1090 581 1112 q 529 1086 552 1086 q 472 1090 486 1086 q 454 1116 467 1099 q 395 1198 414 1173 l 324 1286 q 295 1319 308 1306 z "},"ď":{"ha":926,"x_min":71,"x_max":941,"o":"m 430 711 q 584 682 512 711 l 584 960 l 471 987 l 463 997 l 471 1034 l 681 1109 l 692 1103 l 692 136 q 697 113 692 121 q 713 105 702 105 q 738 106 724 105 q 768 110 752 108 l 803 113 l 811 104 l 795 47 l 613 -16 l 603 -6 l 592 70 q 450 -16 518 9 q 404 -24 425 -24 q 159 76 250 -24 q 71 321 71 172 q 170 597 71 486 q 430 711 271 711 m 584 130 l 584 553 q 473 625 543 600 q 399 635 442 635 q 316 616 356 635 q 246 562 275 597 q 185 364 185 488 q 267 153 185 234 q 426 81 340 81 q 584 130 511 81 m 783 996 q 774 1023 774 1007 q 782 1054 774 1040 q 800 1081 789 1069 q 849 1109 827 1109 q 886 1101 871 1109 q 914 1078 902 1092 q 941 1014 941 1048 q 934 949 941 980 q 917 892 928 918 q 789 733 876 792 q 759 768 762 739 q 772 781 760 768 q 797 812 783 793 q 832 895 832 863 q 823 943 832 926 q 804 972 814 960 l 783 996 z "},"Đ":{"ha":1039,"x_min":-7,"x_max":948,"o":"m 33 58 l 133 87 l 133 467 l 7 467 q 16 546 -7 509 l 133 546 l 133 918 l 35 943 l 31 953 l 40 1012 l 477 1012 q 821 873 693 1012 q 948 509 948 736 q 798 143 948 290 q 437 0 650 0 l 29 0 l 26 6 l 33 58 m 426 932 q 258 918 347 932 l 258 546 l 509 546 q 500 467 518 505 l 258 467 l 258 104 q 446 88 351 88 q 605 112 541 88 q 715 182 669 135 q 811 471 811 283 q 697 817 811 692 q 426 932 592 932 z "},"đ":{"ha":810,"x_min":71,"x_max":811,"o":"m 430 711 q 584 682 512 711 l 584 792 l 402 792 q 412 872 388 834 l 584 872 l 584 960 l 471 987 l 463 997 l 471 1034 l 681 1109 l 692 1103 l 692 872 l 764 872 q 754 792 772 826 l 692 792 l 692 136 q 697 113 692 121 q 713 105 702 105 q 738 106 724 105 q 768 110 752 108 l 803 113 l 811 104 l 795 47 l 613 -16 l 603 -6 l 592 70 q 450 -16 518 9 q 404 -24 425 -24 q 159 76 250 -24 q 71 321 71 172 q 170 597 71 486 q 430 711 271 711 m 584 130 l 584 553 q 473 625 543 600 q 399 635 442 635 q 316 616 356 635 q 246 562 275 597 q 185 364 185 488 q 267 153 185 234 q 426 81 340 81 q 584 130 511 81 z "},"Ē":{"ha":923,"x_min":59,"x_max":803,"o":"m 65 58 l 163 87 l 163 922 l 68 945 l 64 954 l 73 1012 l 776 1012 l 753 806 q 696 809 728 801 l 657 932 l 291 932 l 291 557 l 567 557 l 601 653 q 653 653 620 658 l 653 380 q 601 380 624 376 l 567 476 l 291 476 l 291 79 l 686 79 l 744 244 q 797 244 767 251 l 803 0 l 62 0 l 59 6 l 65 58 m 330 1131 q 339 1211 315 1173 l 642 1211 q 633 1131 652 1167 l 330 1131 z "},"ē":{"ha":695,"x_min":54,"x_max":643,"o":"m 591 154 q 629 104 626 140 q 420 -19 526 5 q 374 -24 397 -24 q 142 76 231 -24 q 54 321 54 174 q 159 597 54 481 q 271 680 208 650 q 398 711 334 711 q 508 688 463 711 q 583 627 553 665 q 643 433 643 551 q 637 375 643 399 q 358 358 629 358 q 168 361 268 358 q 251 152 169 231 q 416 81 324 81 q 591 154 509 81 m 224 423 q 521 436 427 423 q 477 570 521 509 q 364 635 430 635 q 240 582 292 635 q 171 423 184 526 l 224 423 m 174 820 q 184 899 160 862 l 582 899 q 572 820 592 857 l 174 820 z "},"Ĕ":{"ha":923,"x_min":59,"x_max":803,"o":"m 65 58 l 163 87 l 163 922 l 68 945 l 64 954 l 73 1012 l 776 1012 l 753 806 q 696 809 728 801 l 657 932 l 291 932 l 291 557 l 567 557 l 601 653 q 653 653 620 658 l 653 380 q 601 380 624 376 l 567 476 l 291 476 l 291 79 l 686 79 l 744 244 q 797 244 767 251 l 803 0 l 62 0 l 59 6 l 65 58 m 484 1133 q 407 1148 441 1133 q 349 1190 373 1164 q 286 1322 304 1239 q 340 1338 309 1343 q 435 1226 364 1254 q 486 1217 458 1217 q 635 1338 599 1217 q 686 1320 671 1340 q 621 1194 673 1249 q 484 1133 562 1133 z "},"ĕ":{"ha":695,"x_min":54,"x_max":643,"o":"m 591 154 q 629 104 626 140 q 420 -19 526 5 q 374 -24 397 -24 q 142 76 231 -24 q 54 321 54 174 q 159 597 54 481 q 271 680 208 650 q 398 711 334 711 q 508 688 463 711 q 583 627 553 665 q 643 433 643 551 q 637 375 643 399 q 358 358 629 358 q 168 361 268 358 q 251 152 169 231 q 416 81 324 81 q 591 154 509 81 m 224 423 q 521 436 427 423 q 477 570 521 509 q 364 635 430 635 q 240 582 292 635 q 171 423 184 526 l 224 423 m 382 821 q 306 837 340 821 q 248 879 272 852 q 184 1010 203 926 q 240 1027 208 1029 q 334 914 264 941 q 386 905 357 905 q 534 1027 499 905 q 585 1008 567 1029 q 519 882 572 938 q 382 821 461 821 z "},"Ė":{"ha":923,"x_min":59,"x_max":803,"o":"m 65 58 l 163 87 l 163 922 l 68 945 l 64 954 l 73 1012 l 776 1012 l 753 806 q 696 809 728 801 l 657 932 l 291 932 l 291 557 l 567 557 l 601 653 q 653 653 620 658 l 653 380 q 601 380 624 376 l 567 476 l 291 476 l 291 79 l 686 79 l 744 244 q 797 244 767 251 l 803 0 l 62 0 l 59 6 l 65 58 m 551 1146 q 542 1136 551 1146 q 517 1119 533 1126 q 486 1111 502 1111 q 456 1117 471 1111 q 429 1134 441 1124 q 403 1180 403 1158 q 409 1218 403 1203 q 426 1244 415 1232 q 483 1272 450 1272 q 533 1255 513 1272 q 569 1195 569 1225 q 551 1146 569 1166 z "},"ė":{"ha":695,"x_min":54,"x_max":643,"o":"m 591 154 q 629 104 626 140 q 420 -19 526 5 q 374 -24 397 -24 q 142 76 231 -24 q 54 321 54 174 q 159 597 54 481 q 271 680 208 650 q 398 711 334 711 q 508 688 463 711 q 583 627 553 665 q 643 433 643 551 q 637 375 643 399 q 358 358 629 358 q 168 361 268 358 q 251 152 169 231 q 416 81 324 81 q 591 154 509 81 m 224 423 q 521 436 427 423 q 477 570 521 509 q 364 635 430 635 q 240 582 292 635 q 171 423 184 526 l 224 423 m 336 781 q 327 790 336 781 q 310 812 317 798 q 302 842 302 827 q 309 871 302 857 q 326 898 315 886 q 373 925 350 925 q 412 919 396 925 q 440 902 427 913 q 469 856 469 878 q 462 819 469 834 q 443 792 455 804 q 383 764 416 764 q 336 781 355 764 z "},"Ę":{"ha":923,"x_min":59,"x_max":803,"o":"m 624 -191 q 680 -244 624 -244 q 739 -226 705 -244 q 772 -208 772 -208 q 785 -214 777 -208 q 802 -249 802 -229 q 711 -312 759 -294 q 633 -331 664 -331 q 581 -322 602 -331 q 545 -296 559 -313 q 514 -206 514 -262 q 585 -60 514 -134 q 656 0 616 -28 l 62 0 l 59 6 l 65 58 l 163 87 l 163 922 l 68 945 l 64 954 l 73 1012 l 776 1012 l 753 806 q 696 809 728 801 l 657 932 l 291 932 l 291 557 l 567 557 l 601 653 q 653 653 620 658 l 653 380 q 601 380 624 376 l 567 476 l 291 476 l 291 79 l 686 79 l 744 244 q 797 244 767 251 l 803 0 l 749 0 q 696 -43 724 -13 q 655 -94 669 -73 q 624 -191 624 -142 z "},"ę":{"ha":695,"x_min":54,"x_max":643,"o":"m 421 -191 q 477 -244 421 -244 q 537 -226 505 -244 q 570 -208 569 -208 q 583 -214 574 -208 q 600 -249 600 -229 q 508 -313 555 -294 q 429 -331 460 -331 q 377 -322 398 -331 q 342 -296 357 -313 q 311 -206 311 -262 q 412 -20 311 -121 q 374 -24 393 -24 q 142 76 231 -24 q 54 321 54 174 q 159 597 54 481 q 271 680 208 650 q 398 711 334 711 q 508 688 463 711 q 583 627 553 665 q 643 433 643 551 q 637 375 643 399 q 358 358 629 358 q 168 361 268 358 q 251 152 169 231 q 416 81 324 81 q 591 154 509 81 q 629 104 626 140 q 593 72 612 86 l 557 45 l 544 31 q 431 -140 461 -57 q 421 -191 421 -166 m 224 423 q 521 436 427 423 q 477 570 521 509 q 364 635 430 635 q 240 582 292 635 q 171 423 184 526 l 224 423 z "},"Ě":{"ha":923,"x_min":59,"x_max":803,"o":"m 65 58 l 163 87 l 163 922 l 68 945 l 64 954 l 73 1012 l 776 1012 l 753 806 q 696 809 728 801 l 657 932 l 291 932 l 291 557 l 567 557 l 601 653 q 653 653 620 658 l 653 380 q 601 380 624 376 l 567 476 l 291 476 l 291 79 l 686 79 l 744 244 q 797 244 767 251 l 803 0 l 62 0 l 59 6 l 65 58 m 258 1319 q 306 1367 280 1357 q 439 1236 358 1333 l 475 1192 l 493 1192 l 529 1234 q 664 1369 606 1327 q 695 1352 686 1360 q 713 1323 705 1343 q 532 1090 545 1112 q 492 1086 515 1086 q 435 1090 449 1086 q 418 1116 430 1099 q 359 1198 378 1173 l 288 1286 q 258 1319 271 1306 z "},"ě":{"ha":695,"x_min":54,"x_max":643,"o":"m 591 154 q 629 104 626 140 q 420 -19 526 5 q 374 -24 397 -24 q 142 76 231 -24 q 54 321 54 174 q 159 597 54 481 q 271 680 208 650 q 398 711 334 711 q 508 688 463 711 q 583 627 553 665 q 643 433 643 551 q 637 375 643 399 q 358 358 629 358 q 168 361 268 358 q 251 152 169 231 q 416 81 324 81 q 591 154 509 81 m 224 423 q 521 436 427 423 q 477 570 521 509 q 364 635 430 635 q 240 582 292 635 q 171 423 184 526 l 224 423 m 335 805 q 317 831 330 814 q 225 956 247 929 q 187 1002 225 956 q 158 1035 171 1022 q 181 1068 171 1059 q 205 1083 191 1077 q 338 951 258 1048 q 374 907 338 951 l 393 907 q 509 1038 475 1006 q 564 1085 542 1069 q 602 1060 594 1072 q 613 1038 609 1048 q 431 805 444 828 q 381 800 407 800 q 335 805 355 800 z "},"Ĝ":{"ha":1039,"x_min":53,"x_max":977,"o":"m 117 216 q 102 243 117 216 q 70 333 86 271 q 53 469 53 395 q 70 616 53 543 q 119 752 87 690 q 197 864 151 814 q 300 949 243 914 q 567 1023 419 1023 q 819 986 704 1023 q 924 941 886 964 l 875 734 q 820 743 848 730 q 819 784 820 764 l 816 822 q 811 854 814 841 q 612 923 777 901 q 506 930 562 930 q 393 903 450 930 q 291 822 336 876 q 192 507 192 705 q 313 179 192 306 q 476 77 384 104 q 565 64 520 64 q 648 71 609 64 q 719 90 687 78 q 818 144 778 110 l 818 378 l 608 399 l 608 462 l 977 462 l 977 407 l 945 387 l 945 102 q 640 -19 838 5 q 533 -24 594 -24 q 408 -7 471 -24 q 290 42 344 10 q 192 118 235 74 q 117 216 148 162 m 318 1069 q 289 1092 298 1077 q 273 1118 279 1106 q 300 1146 282 1126 q 378 1238 353 1206 l 456 1336 q 473 1359 469 1354 q 568 1359 520 1368 q 589 1329 574 1350 l 739 1138 q 758 1116 753 1120 q 726 1078 746 1088 q 707 1069 718 1074 q 568 1211 652 1109 l 530 1257 l 513 1257 q 473 1211 497 1237 l 420 1157 q 318 1069 353 1091 z "},"ĝ":{"ha":810,"x_min":80,"x_max":770,"o":"m 341 229 q 280 161 280 194 q 297 111 280 125 q 410 76 328 84 q 555 56 491 67 q 660 24 618 45 q 741 -121 741 -16 q 647 -294 741 -228 q 399 -363 551 -363 q 158 -293 249 -363 q 80 -157 80 -233 q 115 -78 80 -104 l 155 -43 q 214 5 179 -22 q 155 110 155 38 q 190 180 155 153 q 231 208 206 194 l 285 241 q 134 376 170 281 q 121 459 121 408 q 148 561 121 511 q 217 646 174 611 q 425 716 305 716 l 609 709 q 752 728 703 709 q 770 680 770 703 q 763 628 770 647 q 727 618 749 618 q 692 623 706 618 q 666 632 679 627 q 614 650 633 648 l 609 640 q 674 522 659 602 q 679 462 679 500 q 655 378 679 425 q 591 298 631 332 q 391 225 506 225 q 341 229 372 225 m 410 298 q 471 308 444 298 q 520 337 499 318 q 567 448 567 379 q 513 589 567 534 q 389 642 461 642 q 274 595 319 642 q 231 482 231 551 q 283 349 231 400 q 410 298 335 298 m 191 -136 q 205 -190 191 -161 q 247 -241 219 -218 q 413 -292 307 -292 q 576 -243 524 -292 q 621 -132 621 -202 q 572 -69 621 -87 q 439 -42 528 -52 q 257 -14 296 -26 q 191 -136 191 -60 m 211 800 q 182 822 191 808 q 165 848 172 836 q 193 876 175 857 q 271 968 245 936 l 349 1066 q 366 1089 362 1084 q 461 1089 413 1099 q 481 1059 467 1080 q 650 846 640 859 q 619 808 639 818 q 601 800 612 804 q 522 872 561 829 q 423 987 448 955 l 406 987 q 365 941 390 968 l 313 888 q 211 800 250 824 z "},"Ğ":{"ha":1039,"x_min":53,"x_max":977,"o":"m 117 216 q 102 243 117 216 q 70 333 86 271 q 53 469 53 395 q 70 616 53 543 q 119 752 87 690 q 197 864 151 814 q 300 949 243 914 q 567 1023 419 1023 q 819 986 704 1023 q 924 941 886 964 l 875 734 q 820 743 848 730 q 819 784 820 764 l 816 822 q 811 854 814 841 q 612 923 777 901 q 506 930 562 930 q 393 903 450 930 q 291 822 336 876 q 192 507 192 705 q 313 179 192 306 q 476 77 384 104 q 565 64 520 64 q 648 71 609 64 q 719 90 687 78 q 818 144 778 110 l 818 378 l 608 399 l 608 462 l 977 462 l 977 407 l 945 387 l 945 102 q 640 -19 838 5 q 533 -24 594 -24 q 408 -7 471 -24 q 290 42 344 10 q 192 118 235 74 q 117 216 148 162 m 513 1133 q 436 1148 470 1133 q 378 1190 402 1164 q 315 1322 333 1239 q 370 1338 338 1343 q 464 1226 393 1254 q 515 1217 487 1217 q 664 1338 628 1217 q 715 1320 700 1340 q 650 1194 702 1249 q 513 1133 591 1133 z "},"ğ":{"ha":810,"x_min":80,"x_max":770,"o":"m 341 229 q 280 161 280 194 q 297 111 280 125 q 410 76 328 84 q 555 56 491 67 q 660 24 618 45 q 741 -121 741 -16 q 647 -294 741 -228 q 399 -363 551 -363 q 158 -293 249 -363 q 80 -157 80 -233 q 115 -78 80 -104 l 155 -43 q 214 5 179 -22 q 155 110 155 38 q 190 180 155 153 q 231 208 206 194 l 285 241 q 134 376 170 281 q 121 459 121 408 q 148 561 121 511 q 217 646 174 611 q 425 716 305 716 l 609 709 q 752 728 703 709 q 770 680 770 703 q 763 628 770 647 q 727 618 749 618 q 692 623 706 618 q 666 632 679 627 q 614 650 633 648 l 609 640 q 674 522 659 602 q 679 462 679 500 q 655 378 679 425 q 591 298 631 332 q 391 225 506 225 q 341 229 372 225 m 410 298 q 471 308 444 298 q 520 337 499 318 q 567 448 567 379 q 513 589 567 534 q 389 642 461 642 q 274 595 319 642 q 231 482 231 551 q 283 349 231 400 q 410 298 335 298 m 191 -136 q 205 -190 191 -161 q 247 -241 219 -218 q 413 -292 307 -292 q 576 -243 524 -292 q 621 -132 621 -202 q 572 -69 621 -87 q 439 -42 528 -52 q 257 -14 296 -26 q 191 -136 191 -60 m 413 821 q 336 837 370 821 q 278 879 302 852 q 215 1010 233 926 q 271 1027 238 1029 q 364 914 295 941 q 416 905 388 905 q 564 1027 530 905 q 616 1008 597 1029 q 550 882 603 938 q 413 821 492 821 z "},"Ġ":{"ha":1039,"x_min":53,"x_max":977,"o":"m 117 216 q 102 243 117 216 q 70 333 86 271 q 53 469 53 395 q 70 616 53 543 q 119 752 87 690 q 197 864 151 814 q 300 949 243 914 q 567 1023 419 1023 q 819 986 704 1023 q 924 941 886 964 l 875 734 q 820 743 848 730 q 819 784 820 764 l 816 822 q 811 854 814 841 q 612 923 777 901 q 506 930 562 930 q 393 903 450 930 q 291 822 336 876 q 192 507 192 705 q 313 179 192 306 q 476 77 384 104 q 565 64 520 64 q 648 71 609 64 q 719 90 687 78 q 818 144 778 110 l 818 378 l 608 399 l 608 462 l 977 462 l 977 407 l 945 387 l 945 102 q 640 -19 838 5 q 533 -24 594 -24 q 408 -7 471 -24 q 290 42 344 10 q 192 118 235 74 q 117 216 148 162 m 580 1146 q 571 1136 580 1146 q 547 1119 562 1126 q 515 1111 531 1111 q 485 1117 500 1111 q 458 1134 471 1124 q 432 1180 432 1158 q 438 1218 432 1203 q 455 1244 444 1232 q 512 1272 479 1272 q 562 1255 543 1272 q 598 1195 598 1225 q 580 1146 598 1166 z "},"ġ":{"ha":810,"x_min":80,"x_max":770,"o":"m 341 229 q 280 161 280 194 q 297 111 280 125 q 410 76 328 84 q 555 56 491 67 q 660 24 618 45 q 741 -121 741 -16 q 647 -294 741 -228 q 399 -363 551 -363 q 158 -293 249 -363 q 80 -157 80 -233 q 115 -78 80 -104 l 155 -43 q 214 5 179 -22 q 155 110 155 38 q 190 180 155 153 q 231 208 206 194 l 285 241 q 134 376 170 281 q 121 459 121 408 q 148 561 121 511 q 217 646 174 611 q 425 716 305 716 l 609 709 q 752 728 703 709 q 770 680 770 703 q 763 628 770 647 q 727 618 749 618 q 692 623 706 618 q 666 632 679 627 q 614 650 633 648 l 609 640 q 674 522 659 602 q 679 462 679 500 q 655 378 679 425 q 591 298 631 332 q 391 225 506 225 q 341 229 372 225 m 410 298 q 471 308 444 298 q 520 337 499 318 q 567 448 567 379 q 513 589 567 534 q 389 642 461 642 q 274 595 319 642 q 231 482 231 551 q 283 349 231 400 q 410 298 335 298 m 191 -136 q 205 -190 191 -161 q 247 -241 219 -218 q 413 -292 307 -292 q 576 -243 524 -292 q 621 -132 621 -202 q 572 -69 621 -87 q 439 -42 528 -52 q 257 -14 296 -26 q 191 -136 191 -60 m 367 781 q 357 790 367 781 q 340 812 348 798 q 333 842 333 827 q 339 871 333 857 q 356 898 345 886 q 404 925 380 925 q 442 919 427 925 q 471 902 458 913 q 499 856 499 878 q 492 819 499 834 q 473 792 486 804 q 414 764 447 764 q 367 781 385 764 z "},"Ģ":{"ha":1039,"x_min":53,"x_max":977,"o":"m 117 216 q 102 243 117 216 q 70 333 86 271 q 53 469 53 395 q 70 616 53 543 q 119 752 87 690 q 197 864 151 814 q 300 949 243 914 q 567 1023 419 1023 q 819 986 704 1023 q 924 941 886 964 l 875 734 q 820 743 848 730 q 819 784 820 764 l 816 822 q 811 854 814 841 q 612 923 777 901 q 506 930 562 930 q 393 903 450 930 q 291 822 336 876 q 192 507 192 705 q 313 179 192 306 q 476 77 384 104 q 565 64 520 64 q 648 71 609 64 q 719 90 687 78 q 818 144 778 110 l 818 378 l 608 399 l 608 462 l 977 462 l 977 407 l 945 387 l 945 102 q 640 -19 838 5 q 533 -24 594 -24 q 408 -7 471 -24 q 290 42 344 10 q 192 118 235 74 q 117 216 148 162 m 440 -123 q 459 -82 440 -98 q 553 -62 507 -43 q 600 -105 585 -75 q 606 -144 606 -120 q 601 -196 606 -169 q 586 -245 595 -223 q 475 -362 552 -326 q 450 -346 454 -357 q 444 -327 445 -335 q 464 -304 450 -327 q 491 -235 491 -260 q 487 -199 491 -211 q 478 -179 484 -186 q 466 -166 472 -171 q 453 -156 459 -161 q 440 -123 440 -144 z "},"ģ":{"ha":810,"x_min":80,"x_max":770,"o":"m 341 229 q 280 161 280 194 q 297 111 280 125 q 410 76 328 84 q 555 56 491 67 q 660 24 618 45 q 741 -121 741 -16 q 647 -294 741 -228 q 399 -363 551 -363 q 158 -293 249 -363 q 80 -157 80 -233 q 115 -78 80 -104 l 155 -43 q 214 5 179 -22 q 155 110 155 38 q 190 180 155 153 q 231 208 206 194 l 285 241 q 134 376 170 281 q 121 459 121 408 q 148 561 121 511 q 217 646 174 611 q 425 716 305 716 l 609 709 q 752 728 703 709 q 770 680 770 703 q 763 628 770 647 q 727 618 749 618 q 692 623 706 618 q 666 632 679 627 q 614 650 633 648 l 609 640 q 674 522 659 602 q 679 462 679 500 q 655 378 679 425 q 591 298 631 332 q 391 225 506 225 q 341 229 372 225 m 410 298 q 471 308 444 298 q 520 337 499 318 q 567 448 567 379 q 513 589 567 534 q 389 642 461 642 q 274 595 319 642 q 231 482 231 551 q 283 349 231 400 q 410 298 335 298 m 191 -136 q 205 -190 191 -161 q 247 -241 219 -218 q 413 -292 307 -292 q 576 -243 524 -292 q 621 -132 621 -202 q 572 -69 621 -87 q 439 -42 528 -52 q 257 -14 296 -26 q 191 -136 191 -60 m 474 949 q 483 922 483 938 q 476 891 483 905 q 457 864 469 876 q 408 836 430 836 q 371 844 387 836 q 343 867 355 853 q 317 931 317 897 q 323 996 317 965 q 340 1053 330 1027 q 469 1212 382 1153 q 498 1177 496 1206 q 486 1164 497 1177 q 460 1133 474 1152 q 425 1050 425 1082 q 434 1002 425 1019 q 454 972 444 985 l 474 949 z "},"Ĥ":{"ha":1041,"x_min":33,"x_max":1013,"o":"m 39 58 l 136 87 l 136 925 l 42 948 l 37 957 l 47 1012 l 370 1012 l 373 1006 l 367 954 l 264 925 l 264 553 l 777 553 l 777 925 l 682 948 l 677 957 l 688 1012 l 1010 1012 l 1013 1006 l 1007 954 l 905 925 l 905 87 l 1004 64 l 1008 54 l 999 0 l 676 0 l 673 6 l 680 58 l 777 87 l 777 473 l 264 473 l 264 87 l 363 64 l 368 54 l 358 0 l 36 0 l 33 6 l 39 58 m 324 1069 q 295 1092 304 1077 q 279 1118 286 1106 q 307 1146 288 1126 q 385 1238 359 1206 l 462 1336 q 479 1359 475 1354 q 574 1359 526 1368 q 595 1329 580 1350 l 745 1138 q 764 1116 760 1120 q 732 1078 752 1088 q 713 1069 724 1074 q 574 1211 659 1109 l 536 1257 l 519 1257 q 479 1211 503 1237 l 426 1157 q 324 1069 359 1091 z "},"ĥ":{"ha":926,"x_min":-18,"x_max":873,"o":"m 504 608 q 293 556 408 608 l 293 87 l 402 64 l 407 54 l 397 0 l 93 0 l 90 6 l 96 58 l 184 87 l 184 914 l 77 941 l 71 949 l 77 986 l 282 1062 l 293 1056 l 293 617 q 536 711 436 711 q 695 644 637 711 q 750 471 750 580 l 750 87 l 868 64 l 873 54 l 865 0 l 543 0 l 538 6 l 544 58 l 642 87 l 642 439 q 504 608 642 608 m 28 1076 q -1 1097 8 1083 q -18 1124 -11 1112 q 9 1152 -8 1132 q 88 1244 62 1211 l 165 1341 q 182 1364 179 1359 q 278 1364 230 1375 q 298 1335 283 1355 q 467 1122 456 1135 q 436 1084 456 1093 q 418 1076 429 1080 q 338 1147 378 1104 q 240 1262 265 1230 l 223 1262 q 182 1217 207 1243 l 130 1163 q 28 1076 66 1099 z "},"Ħ":{"ha":1155,"x_min":38,"x_max":1113,"o":"m 100 58 l 197 87 l 197 692 l 52 692 q 62 771 38 734 l 197 771 l 197 925 l 102 948 l 98 957 l 107 1012 l 430 1012 l 433 1006 l 427 954 l 325 925 l 325 771 l 838 771 l 838 925 l 743 948 l 738 957 l 748 1012 l 1070 1012 l 1074 1006 l 1067 954 l 965 925 l 965 771 l 1103 771 q 1093 692 1113 726 l 965 692 l 965 87 l 1064 64 l 1069 54 l 1059 0 l 736 0 l 734 6 l 740 58 l 838 87 l 838 473 l 325 473 l 325 87 l 424 64 l 429 54 l 418 0 l 96 0 l 93 6 l 100 58 m 838 553 l 838 692 l 325 692 l 325 553 l 838 553 z "},"ħ":{"ha":899,"x_min":48,"x_max":873,"o":"m 504 608 q 293 556 408 608 l 293 87 l 402 64 l 407 54 l 397 0 l 93 0 l 90 6 l 96 58 l 184 87 l 184 792 l 62 792 q 72 872 48 834 l 184 872 l 184 962 l 77 989 l 71 997 l 77 1034 l 282 1109 l 293 1103 l 293 872 l 423 872 q 413 792 433 826 l 293 792 l 293 617 q 536 711 436 711 q 695 644 637 711 q 750 471 750 580 l 750 87 l 868 64 l 873 54 l 865 0 l 543 0 l 538 6 l 544 58 l 642 87 l 642 439 q 504 608 642 608 z "},"Ĩ":{"ha":463,"x_min":-15,"x_max":479,"o":"m 74 58 l 168 87 l 168 925 l 69 948 l 64 957 l 74 1012 l 397 1012 l 399 1006 l 393 954 l 295 925 l 295 87 l 398 64 l 403 54 l 393 0 l 71 0 l 67 6 l 74 58 m 311 1271 q 433 1348 358 1271 q 469 1318 459 1334 q 479 1297 478 1303 q 304 1172 371 1172 q 239 1193 273 1172 q 188 1224 205 1215 q 151 1234 170 1234 q 85 1207 120 1234 q 32 1160 51 1180 q -9 1197 7 1171 q -15 1211 -14 1204 q 159 1333 93 1333 q 223 1312 191 1333 q 273 1281 256 1291 q 311 1271 291 1271 z "},"ĩ":{"ha":463,"x_min":-2,"x_max":491,"o":"m 95 58 l 184 87 l 184 535 l 90 575 l 83 583 l 90 620 l 281 698 l 293 692 l 293 87 l 401 64 l 404 54 l 397 0 l 93 0 l 88 6 l 95 58 m 323 940 q 445 1016 369 940 q 480 988 470 1004 q 491 966 490 972 q 317 841 383 841 q 252 862 286 841 q 200 893 218 884 q 163 903 182 903 q 44 827 113 903 q 8 857 18 842 q -2 879 -1 873 q 144 997 78 972 q 176 1002 158 1002 q 214 992 195 1002 q 251 971 233 983 q 286 950 269 960 q 323 940 303 940 z "},"Ī":{"ha":463,"x_min":61,"x_max":403,"o":"m 74 58 l 168 87 l 168 925 l 69 948 l 64 957 l 74 1012 l 397 1012 l 399 1006 l 393 954 l 295 925 l 295 87 l 398 64 l 403 54 l 393 0 l 71 0 l 67 6 l 74 58 m 75 1131 q 85 1211 61 1173 l 388 1211 q 378 1131 398 1167 l 75 1131 z "},"ī":{"ha":123,"x_min":18,"x_max":450,"o":"m 95 58 l 184 87 l 184 535 l 90 575 l 83 583 l 90 620 l 281 698 l 293 692 l 293 87 l 401 64 l 404 54 l 397 0 l 93 0 l 88 6 l 95 58 m 33 820 q 42 899 18 862 l 440 899 q 431 820 450 857 l 33 820 z "},"Ĭ":{"ha":463,"x_min":31,"x_max":432,"o":"m 74 58 l 168 87 l 168 925 l 69 948 l 64 957 l 74 1012 l 397 1012 l 399 1006 l 393 954 l 295 925 l 295 87 l 398 64 l 403 54 l 393 0 l 71 0 l 67 6 l 74 58 m 229 1133 q 153 1148 186 1133 q 94 1190 119 1164 q 31 1322 50 1239 q 86 1338 55 1343 q 180 1226 110 1254 q 232 1217 203 1217 q 380 1338 345 1217 q 432 1320 416 1340 q 366 1194 418 1249 q 229 1133 307 1133 z "},"ĭ":{"ha":123,"x_min":43,"x_max":444,"o":"m 95 58 l 184 87 l 184 535 l 90 575 l 83 583 l 90 620 l 281 698 l 293 692 l 293 87 l 401 64 l 404 54 l 397 0 l 93 0 l 88 6 l 95 58 m 241 821 q 165 837 199 821 q 106 879 131 852 q 43 1010 62 926 q 99 1027 66 1029 q 193 914 123 941 q 245 905 216 905 q 393 1027 358 905 q 444 1008 426 1029 q 378 882 431 938 q 241 821 320 821 z "},"Į":{"ha":463,"x_min":64,"x_max":403,"o":"m 217 -191 q 273 -244 217 -244 q 332 -226 298 -244 q 366 -208 365 -208 q 378 -214 370 -208 q 395 -249 395 -229 q 304 -312 352 -294 q 226 -331 257 -331 q 174 -322 195 -331 q 138 -296 153 -313 q 107 -213 107 -262 q 209 0 107 -99 l 71 0 l 67 6 l 74 58 l 168 87 l 168 925 l 69 948 l 64 957 l 74 1012 l 397 1012 l 399 1006 l 393 954 l 295 925 l 295 87 l 398 64 l 403 54 l 393 0 l 303 0 q 237 -97 256 -45 q 217 -191 217 -149 z "},"į":{"ha":463,"x_min":83,"x_max":404,"o":"m 300 854 q 291 844 300 854 q 266 827 281 835 q 235 820 250 820 q 205 826 220 820 q 179 844 191 833 q 153 890 153 867 q 159 927 153 912 q 176 954 165 941 q 233 981 201 981 q 283 963 263 981 q 319 904 319 932 q 300 854 319 873 m 217 -191 q 273 -244 217 -244 q 332 -226 298 -244 q 366 -208 365 -208 q 378 -214 370 -208 q 395 -249 395 -229 q 304 -312 352 -294 q 226 -331 257 -331 q 174 -322 195 -331 q 138 -296 153 -313 q 107 -213 107 -262 q 209 0 107 -99 l 93 0 l 88 6 l 95 58 l 184 87 l 184 535 l 90 575 l 83 583 l 90 620 l 281 698 l 293 692 l 293 87 l 401 64 l 404 54 l 397 0 l 303 0 q 237 -97 256 -45 q 217 -191 217 -149 z "},"İ":{"ha":463,"x_min":64,"x_max":403,"o":"m 74 58 l 168 87 l 168 925 l 69 948 l 64 957 l 74 1012 l 397 1012 l 399 1006 l 393 954 l 295 925 l 295 87 l 398 64 l 403 54 l 393 0 l 71 0 l 67 6 l 74 58 m 297 1146 q 288 1136 297 1146 q 263 1119 279 1126 q 232 1111 248 1111 q 202 1117 216 1111 q 175 1134 187 1124 q 149 1180 149 1158 q 155 1218 149 1203 q 172 1244 161 1232 q 229 1272 196 1272 q 279 1255 259 1272 q 315 1195 315 1225 q 297 1146 315 1166 z "},"ı":{"ha":463,"x_min":83,"x_max":404,"o":"m 95 58 l 184 87 l 184 535 l 90 575 l 83 583 l 90 620 l 281 698 l 293 692 l 293 87 l 401 64 l 404 54 l 397 0 l 93 0 l 88 6 l 95 58 z "},"Ĳ":{"ha":926,"x_min":64,"x_max":867,"o":"m 74 58 l 168 87 l 168 925 l 69 948 l 64 957 l 74 1012 l 397 1012 l 399 1006 l 393 954 l 295 925 l 295 87 l 398 64 l 403 54 l 393 0 l 71 0 l 67 6 l 74 58 m 631 925 l 536 948 l 532 957 l 541 1012 l 864 1012 l 867 1006 l 861 954 l 759 925 l 759 27 q 513 -331 759 -212 q 490 -273 495 -313 q 585 -180 545 -250 q 631 1 631 -99 l 631 925 z "},"ĳ":{"ha":926,"x_min":83,"x_max":793,"o":"m 300 854 q 291 844 300 854 q 266 827 281 835 q 235 820 250 820 q 205 826 220 820 q 179 844 191 833 q 153 890 153 867 q 159 927 153 912 q 176 954 165 941 q 233 981 201 981 q 283 963 263 981 q 319 904 319 932 q 300 854 319 873 m 95 58 l 184 87 l 184 535 l 90 575 l 83 583 l 90 620 l 281 698 l 293 692 l 293 87 l 401 64 l 404 54 l 397 0 l 93 0 l 88 6 l 95 58 m 776 854 q 767 844 776 854 q 743 827 758 835 q 712 820 728 820 q 682 826 696 820 q 655 844 667 833 q 629 889 629 867 q 635 927 629 912 q 652 954 641 941 q 709 981 676 981 q 758 963 739 981 q 793 904 793 932 q 776 854 793 873 m 659 535 l 566 575 l 560 583 l 566 620 l 757 698 l 768 692 l 768 -9 q 688 -251 768 -154 q 541 -363 636 -315 q 519 -305 521 -342 q 613 -212 572 -283 q 659 -31 659 -132 l 659 535 z "},"Ĵ":{"ha":463,"x_min":-26,"x_max":458,"o":"m 168 925 l 73 948 l 69 957 l 78 1012 l 401 1012 l 404 1006 l 398 954 l 296 925 l 296 27 q 50 -331 296 -212 q 26 -273 32 -313 q 121 -180 81 -250 q 168 1 168 -99 l 168 925 m 19 1069 q -11 1092 -1 1077 q -26 1118 -20 1106 q 1 1146 -17 1126 q 79 1238 54 1206 l 157 1336 q 174 1359 170 1354 q 269 1359 221 1368 q 290 1329 275 1350 l 440 1138 q 458 1116 454 1120 q 427 1078 447 1088 q 408 1069 419 1074 q 269 1211 353 1109 l 231 1257 l 214 1257 q 174 1211 198 1237 l 121 1157 q 19 1069 54 1091 z "},"ĵ":{"ha":464,"x_min":-1,"x_max":484,"o":"m 197 535 l 104 575 l 98 583 l 104 620 l 294 698 l 305 692 l 305 -9 q 226 -251 305 -154 q 79 -363 174 -315 q 56 -305 58 -342 q 151 -212 110 -283 q 197 -31 197 -132 l 197 535 m 44 800 q 15 822 24 808 q -1 848 5 836 q 26 876 8 857 q 104 968 79 936 l 182 1066 q 199 1089 195 1084 q 294 1089 246 1099 q 315 1059 300 1080 q 484 846 473 859 q 452 808 472 818 q 434 800 445 804 q 355 872 394 829 q 256 987 281 955 l 239 987 q 198 941 223 968 l 146 888 q 44 800 83 824 z "},"Ķ":{"ha":926,"x_min":54,"x_max":920,"o":"m 61 58 l 158 88 l 158 922 l 64 945 l 59 954 l 68 1012 l 391 1012 l 395 1006 l 389 951 l 286 922 l 286 497 l 667 927 l 572 946 l 568 954 l 576 1012 l 900 1012 l 903 1006 l 897 953 l 800 919 l 460 558 l 822 87 l 917 64 l 920 54 l 911 0 l 586 0 l 581 6 l 587 58 l 659 87 l 380 470 l 286 374 l 286 87 l 385 64 l 390 54 l 380 0 l 58 0 l 54 6 l 61 58 m 429 -123 q 448 -82 429 -98 q 541 -62 495 -43 q 588 -105 574 -75 q 595 -144 595 -120 q 589 -196 595 -169 q 574 -245 583 -223 q 463 -362 541 -326 q 438 -346 443 -357 q 433 -327 433 -335 q 452 -304 439 -327 q 479 -235 479 -260 q 476 -199 479 -211 q 466 -179 472 -186 q 454 -166 460 -171 q 441 -156 448 -161 q 429 -123 429 -144 z "},"ķ":{"ha":811,"x_min":60,"x_max":813,"o":"m 85 58 l 173 87 l 173 960 l 66 987 l 60 997 l 66 1034 l 271 1109 l 281 1103 l 281 369 l 545 605 l 449 625 l 444 633 l 452 687 l 758 687 l 761 680 l 754 631 l 657 599 l 429 410 l 715 87 l 810 64 l 813 54 l 806 0 l 502 0 l 497 6 l 504 58 l 575 87 l 350 347 l 281 290 l 281 87 l 391 64 l 395 54 l 385 0 l 81 0 l 79 6 l 85 58 m 374 -123 q 393 -82 374 -98 q 486 -62 440 -43 q 533 -105 519 -75 q 540 -144 540 -120 q 534 -196 540 -169 q 519 -245 528 -223 q 408 -362 486 -326 q 383 -346 388 -357 q 378 -327 378 -335 q 397 -304 384 -327 q 425 -235 425 -260 q 421 -199 425 -211 q 411 -179 417 -186 q 399 -166 406 -171 q 387 -156 393 -161 q 374 -123 374 -144 z "},"ĸ":{"ha":811,"x_min":74,"x_max":813,"o":"m 85 58 l 173 87 l 173 553 l 80 593 l 74 602 l 80 639 l 271 711 l 281 704 l 281 369 l 545 605 l 449 625 l 444 633 l 452 687 l 758 687 l 761 680 l 754 631 l 657 599 l 429 410 l 715 87 l 810 64 l 813 54 l 806 0 l 502 0 l 497 6 l 504 58 l 575 87 l 350 347 l 281 290 l 281 87 l 391 64 l 395 54 l 385 0 l 81 0 l 79 6 l 85 58 z "},"Ĺ":{"ha":810,"x_min":53,"x_max":747,"o":"m 59 58 l 157 87 l 157 925 l 61 948 l 56 957 l 66 1012 l 406 1012 l 409 1006 l 402 954 l 285 925 l 285 79 l 626 79 l 688 252 q 741 252 708 256 l 747 0 l 56 0 l 53 6 l 59 58 m 269 1072 q 211 1123 227 1078 q 395 1349 329 1229 q 483 1274 456 1332 q 332 1116 428 1192 q 269 1072 302 1092 z "},"ĺ":{"ha":464,"x_min":66,"x_max":448,"o":"m 92 58 l 180 87 l 180 865 l 73 892 l 66 902 l 73 939 l 277 1015 l 288 1008 l 288 87 l 397 64 l 402 54 l 392 0 l 89 0 l 85 6 l 92 58 m 233 1090 q 176 1142 192 1097 q 359 1368 294 1248 q 448 1293 420 1351 q 297 1135 393 1211 q 233 1090 267 1111 z "},"Ļ":{"ha":810,"x_min":53,"x_max":747,"o":"m 59 58 l 157 87 l 157 925 l 61 948 l 56 957 l 66 1012 l 406 1012 l 409 1006 l 402 954 l 285 925 l 285 79 l 626 79 l 688 252 q 741 252 708 256 l 747 0 l 56 0 l 53 6 l 59 58 m 342 -123 q 361 -82 342 -98 q 454 -62 408 -43 q 501 -105 487 -75 q 508 -144 508 -120 q 502 -196 508 -169 q 488 -245 496 -223 q 376 -362 454 -326 q 351 -346 356 -357 q 346 -327 347 -335 q 366 -304 352 -327 q 393 -235 393 -260 q 389 -199 393 -211 q 379 -179 385 -186 q 367 -166 374 -171 q 355 -156 361 -161 q 342 -123 342 -144 z "},"ļ":{"ha":464,"x_min":66,"x_max":402,"o":"m 92 58 l 180 87 l 180 960 l 73 987 l 66 997 l 73 1034 l 277 1109 l 288 1103 l 288 87 l 397 64 l 402 54 l 392 0 l 89 0 l 85 6 l 92 58 m 143 -123 q 162 -82 143 -98 q 256 -62 210 -43 q 302 -105 288 -75 q 309 -144 309 -120 q 303 -196 309 -169 q 289 -245 298 -223 q 178 -362 255 -326 q 153 -346 157 -357 q 147 -327 148 -335 q 167 -304 153 -327 q 194 -235 194 -260 q 190 -199 194 -211 q 181 -179 186 -186 q 169 -166 175 -171 q 156 -156 162 -161 q 143 -123 143 -144 z "},"Ľ":{"ha":810,"x_min":53,"x_max":747,"o":"m 59 58 l 157 87 l 157 925 l 61 948 l 56 957 l 66 1012 l 406 1012 l 409 1006 l 402 954 l 285 925 l 285 79 l 626 79 l 688 252 q 741 252 708 256 l 747 0 l 56 0 l 53 6 l 59 58 m 486 907 q 477 935 477 919 q 485 966 477 951 q 503 993 492 981 q 552 1021 530 1021 q 589 1013 574 1021 q 617 990 605 1004 q 644 926 644 960 q 637 861 644 892 q 620 804 631 830 q 492 645 578 704 q 462 680 465 651 q 475 692 463 680 q 500 724 486 705 q 535 807 535 775 q 526 855 535 838 q 507 884 517 872 l 486 907 z "},"ľ":{"ha":579,"x_min":66,"x_max":546,"o":"m 92 58 l 180 87 l 180 960 l 73 987 l 66 997 l 73 1034 l 277 1109 l 288 1103 l 288 87 l 397 64 l 402 54 l 392 0 l 89 0 l 85 6 l 92 58 m 389 996 q 380 1023 380 1007 q 387 1054 380 1040 q 406 1081 394 1069 q 454 1109 433 1109 q 492 1101 476 1109 q 519 1078 507 1092 q 546 1014 546 1048 q 539 949 546 980 q 522 892 533 918 q 394 733 481 792 q 364 768 367 739 q 377 781 366 768 q 402 812 389 793 q 437 895 437 863 q 428 943 437 926 q 409 972 419 960 l 389 996 z "},"Ŀ":{"ha":810,"x_min":53,"x_max":747,"o":"m 59 58 l 157 87 l 157 925 l 61 948 l 56 957 l 66 1012 l 406 1012 l 409 1006 l 402 954 l 285 925 l 285 79 l 626 79 l 688 252 q 741 252 708 256 l 747 0 l 56 0 l 53 6 l 59 58 m 587 450 q 578 459 587 450 q 561 481 568 467 q 553 511 553 496 q 559 541 553 526 q 576 567 566 555 q 624 594 601 594 q 663 588 647 594 q 691 571 678 582 q 720 525 720 547 q 713 488 720 503 q 694 461 706 473 q 634 433 667 433 q 587 450 606 433 z "},"ŀ":{"ha":701,"x_min":66,"x_max":521,"o":"m 92 58 l 180 87 l 180 960 l 73 987 l 66 997 l 73 1034 l 277 1109 l 288 1103 l 288 87 l 397 64 l 402 54 l 392 0 l 89 0 l 85 6 l 92 58 m 388 412 q 379 420 388 412 q 362 443 370 429 q 355 472 355 457 q 361 502 355 487 q 378 528 367 517 q 425 555 402 555 q 464 549 448 555 q 492 532 479 543 q 521 487 521 509 q 514 450 521 465 q 495 422 507 435 q 435 395 469 395 q 388 412 407 395 z "},"Ł":{"ha":810,"x_min":-25,"x_max":747,"o":"m 59 58 l 157 87 l 157 462 l -2 406 q -25 474 -25 432 l 157 540 l 157 925 l 61 948 l 56 957 l 66 1012 l 406 1012 l 409 1006 l 402 954 l 285 925 l 285 593 l 535 684 q 556 612 553 652 l 285 515 l 285 79 l 626 79 l 688 252 q 741 252 708 256 l 747 0 l 56 0 l 53 6 l 59 58 z "},"ł":{"ha":464,"x_min":66,"x_max":404,"o":"m 92 58 l 180 87 l 180 531 l 95 497 q 71 566 68 528 l 180 601 l 180 960 l 73 987 l 66 997 l 73 1034 l 277 1109 l 288 1103 l 288 641 l 382 679 q 404 609 404 643 l 288 570 l 288 87 l 397 64 l 402 54 l 392 0 l 89 0 l 85 6 l 92 58 z "},"Ń":{"ha":1156,"x_min":60,"x_max":1097,"o":"m 75 58 l 178 87 l 178 927 l 65 948 l 60 957 l 70 1012 l 294 1012 l 926 238 l 926 924 l 810 948 l 806 957 l 815 1012 l 1094 1012 l 1097 1006 l 1090 954 l 1006 925 l 1006 0 q 966 -24 994 -24 l 258 849 l 258 87 l 351 64 l 355 54 l 346 0 l 71 0 l 68 6 l 75 58 m 533 1091 q 499 1106 513 1095 q 476 1143 486 1117 q 623 1310 557 1216 q 659 1369 644 1340 q 747 1295 720 1352 q 597 1136 691 1211 q 533 1091 566 1112 z "},"ń":{"ha":926,"x_min":83,"x_max":870,"o":"m 501 608 q 292 556 407 608 l 292 87 l 401 64 l 404 54 l 396 0 l 92 0 l 87 6 l 94 58 l 184 87 l 184 540 l 90 581 l 83 589 l 90 626 l 268 698 l 279 692 l 279 608 q 534 711 435 711 q 693 648 636 711 q 749 479 749 587 l 749 87 l 867 64 l 870 54 l 862 0 l 539 0 l 536 6 l 543 58 l 640 87 l 640 447 q 501 608 640 608 m 461 800 q 404 852 420 807 q 587 1078 522 958 q 675 1003 648 1061 q 525 845 621 920 q 461 800 494 821 z "},"Ņ":{"ha":1156,"x_min":60,"x_max":1097,"o":"m 75 58 l 178 87 l 178 927 l 65 948 l 60 957 l 70 1012 l 294 1012 l 926 238 l 926 924 l 810 948 l 806 957 l 815 1012 l 1094 1012 l 1097 1006 l 1090 954 l 1006 925 l 1006 0 q 966 -24 994 -24 l 258 849 l 258 87 l 351 64 l 355 54 l 346 0 l 71 0 l 68 6 l 75 58 m 537 -106 q 556 -65 537 -81 q 650 -45 604 -26 q 696 -88 682 -58 q 703 -127 703 -103 q 697 -179 703 -152 q 683 -229 692 -206 q 572 -345 649 -309 q 547 -329 551 -340 q 541 -310 542 -318 q 561 -288 547 -310 q 588 -218 588 -243 q 584 -182 588 -194 q 575 -162 581 -170 q 563 -149 569 -154 q 550 -139 556 -144 q 537 -106 537 -127 z "},"ņ":{"ha":926,"x_min":83,"x_max":870,"o":"m 501 608 q 292 556 407 608 l 292 87 l 401 64 l 404 54 l 396 0 l 92 0 l 87 6 l 94 58 l 184 87 l 184 540 l 90 581 l 83 589 l 90 626 l 268 698 l 279 692 l 279 608 q 534 711 435 711 q 693 648 636 711 q 749 479 749 587 l 749 87 l 867 64 l 870 54 l 862 0 l 539 0 l 536 6 l 543 58 l 640 87 l 640 447 q 501 608 640 608 m 384 -123 q 403 -82 384 -98 q 496 -62 450 -43 q 543 -105 529 -75 q 550 -144 550 -120 q 544 -196 550 -169 q 530 -245 538 -223 q 418 -362 496 -326 q 393 -346 398 -357 q 388 -327 389 -335 q 408 -304 394 -327 q 435 -235 435 -260 q 431 -199 435 -211 q 421 -179 427 -186 q 409 -166 416 -171 q 397 -156 403 -161 q 384 -123 384 -144 z "},"Ň":{"ha":1156,"x_min":60,"x_max":1097,"o":"m 75 58 l 178 87 l 178 927 l 65 948 l 60 957 l 70 1012 l 294 1012 l 926 238 l 926 924 l 810 948 l 806 957 l 815 1012 l 1094 1012 l 1097 1006 l 1090 954 l 1006 925 l 1006 0 q 966 -24 994 -24 l 258 849 l 258 87 l 351 64 l 355 54 l 346 0 l 71 0 l 68 6 l 75 58 m 385 1319 q 432 1367 406 1357 q 565 1236 484 1333 l 602 1192 l 619 1192 l 655 1234 q 790 1369 732 1327 q 822 1352 812 1360 q 840 1323 831 1343 q 658 1090 671 1112 q 618 1086 642 1086 q 562 1090 575 1086 q 544 1116 556 1099 q 485 1198 504 1173 l 414 1286 q 385 1319 397 1306 z "},"ň":{"ha":926,"x_min":83,"x_max":870,"o":"m 501 608 q 292 556 407 608 l 292 87 l 401 64 l 404 54 l 396 0 l 92 0 l 87 6 l 94 58 l 184 87 l 184 540 l 90 581 l 83 589 l 90 626 l 268 698 l 279 692 l 279 608 q 534 711 435 711 q 693 648 636 711 q 749 479 749 587 l 749 87 l 867 64 l 870 54 l 862 0 l 539 0 l 536 6 l 543 58 l 640 87 l 640 447 q 501 608 640 608 m 411 805 q 393 831 406 814 q 301 956 323 929 q 263 1002 301 956 q 234 1035 247 1022 q 257 1068 247 1059 q 281 1083 267 1077 q 414 951 334 1048 q 450 907 414 951 l 469 907 q 585 1038 551 1006 q 640 1085 618 1069 q 677 1060 670 1072 q 689 1038 685 1048 q 507 805 519 828 q 457 800 483 800 q 411 805 431 800 z "},"Ŋ":{"ha":1156,"x_min":60,"x_max":1097,"o":"m 75 58 l 178 87 l 178 913 l 65 935 l 60 943 l 70 998 l 294 998 l 926 238 l 926 910 l 810 935 l 806 943 l 815 998 l 1094 998 l 1097 992 l 1090 941 l 1006 911 l 1006 27 q 864 -267 1006 -153 q 760 -331 819 -302 q 737 -273 740 -312 q 831 -180 791 -250 q 878 1 878 -100 l 878 83 l 258 836 l 258 87 l 351 64 l 355 54 l 346 0 l 71 0 l 68 6 l 75 58 z "},"ŋ":{"ha":926,"x_min":83,"x_max":749,"o":"m 501 608 q 292 556 407 608 l 292 87 l 401 64 l 404 54 l 396 0 l 92 0 l 87 6 l 94 58 l 184 87 l 184 540 l 90 581 l 83 589 l 90 626 l 268 698 l 279 692 l 279 608 q 534 711 435 711 q 693 648 636 711 q 749 479 749 587 l 749 -9 q 522 -363 749 -253 q 500 -305 503 -345 q 594 -212 554 -282 q 640 -31 640 -132 l 640 447 q 501 608 640 608 z "},"Ō":{"ha":1156,"x_min":85,"x_max":1071,"o":"m 216 122 q 185 156 216 122 q 120 282 154 191 q 85 465 85 374 q 104 625 85 555 q 157 755 123 695 q 238 865 191 816 q 343 949 286 915 q 586 1023 463 1023 q 796 984 709 1023 q 944 878 883 945 q 1071 516 1071 736 q 920 130 1071 287 q 694 -5 825 32 q 541 -24 629 -24 q 366 15 453 -24 q 216 122 278 54 m 224 532 q 254 340 224 429 q 335 190 283 252 q 603 64 440 64 q 840 163 751 64 q 932 454 932 267 q 823 808 932 674 q 564 936 722 936 q 315 832 406 936 q 224 532 224 727 m 422 1131 q 431 1211 408 1173 l 734 1211 q 725 1131 745 1167 l 422 1131 z "},"ō":{"ha":810,"x_min":60,"x_max":751,"o":"m 60 332 q 89 479 60 409 q 167 600 117 549 q 420 711 273 711 q 663 609 571 711 q 751 357 751 511 q 645 84 751 195 q 392 -24 541 -24 q 151 79 245 -24 q 60 332 60 180 m 238 571 q 224 555 238 571 q 195 489 210 538 q 180 370 180 439 q 202 243 180 301 q 258 142 224 184 q 422 52 332 52 q 614 193 571 52 q 630 313 630 242 q 608 444 630 385 q 552 546 586 504 q 476 612 517 589 q 390 635 434 635 q 306 620 345 635 q 238 571 266 604 m 195 820 q 204 899 180 862 l 602 899 q 593 820 612 857 l 195 820 z "},"Ŏ":{"ha":1156,"x_min":85,"x_max":1071,"o":"m 216 122 q 185 156 216 122 q 120 282 154 191 q 85 465 85 374 q 104 625 85 555 q 157 755 123 695 q 238 865 191 816 q 343 949 286 915 q 586 1023 463 1023 q 796 984 709 1023 q 944 878 883 945 q 1071 516 1071 736 q 920 130 1071 287 q 694 -5 825 32 q 541 -24 629 -24 q 366 15 453 -24 q 216 122 278 54 m 224 532 q 254 340 224 429 q 335 190 283 252 q 603 64 440 64 q 840 163 751 64 q 932 454 932 267 q 823 808 932 674 q 564 936 722 936 q 315 832 406 936 q 224 532 224 727 m 576 1133 q 499 1148 533 1133 q 441 1190 465 1164 q 378 1322 396 1239 q 433 1338 401 1343 q 527 1226 456 1254 q 578 1217 550 1217 q 727 1338 691 1217 q 779 1320 763 1340 q 713 1194 765 1249 q 576 1133 654 1133 z "},"ŏ":{"ha":810,"x_min":60,"x_max":751,"o":"m 60 332 q 89 479 60 409 q 167 600 117 549 q 420 711 273 711 q 663 609 571 711 q 751 357 751 511 q 645 84 751 195 q 392 -24 541 -24 q 151 79 245 -24 q 60 332 60 180 m 238 571 q 224 555 238 571 q 195 489 210 538 q 180 370 180 439 q 202 243 180 301 q 258 142 224 184 q 422 52 332 52 q 614 193 571 52 q 630 313 630 242 q 608 444 630 385 q 552 546 586 504 q 476 612 517 589 q 390 635 434 635 q 306 620 345 635 q 238 571 266 604 m 403 821 q 326 837 360 821 q 268 879 292 852 q 205 1010 223 926 q 260 1027 228 1029 q 354 914 285 941 q 406 905 378 905 q 554 1027 519 905 q 606 1008 587 1029 q 540 882 593 938 q 403 821 481 821 z "},"Ő":{"ha":1156,"x_min":85,"x_max":1071,"o":"m 216 122 q 185 156 216 122 q 120 282 154 191 q 85 465 85 374 q 104 625 85 555 q 157 755 123 695 q 238 865 191 816 q 343 949 286 915 q 586 1023 463 1023 q 796 984 709 1023 q 944 878 883 945 q 1071 516 1071 736 q 920 130 1071 287 q 694 -5 825 32 q 541 -24 629 -24 q 366 15 453 -24 q 216 122 278 54 m 224 532 q 254 340 224 429 q 335 190 283 252 q 603 64 440 64 q 840 163 751 64 q 932 454 932 267 q 823 808 932 674 q 564 936 722 936 q 315 832 406 936 q 224 532 224 727 m 422 1110 q 555 1369 517 1244 q 656 1313 620 1364 q 541 1128 621 1221 q 486 1072 515 1098 q 445 1082 461 1067 q 422 1110 429 1097 m 642 1125 q 804 1366 749 1242 q 897 1299 868 1354 q 703 1078 836 1179 q 642 1125 662 1075 z "},"ő":{"ha":810,"x_min":60,"x_max":751,"o":"m 60 332 q 89 479 60 409 q 167 600 117 549 q 420 711 273 711 q 663 609 571 711 q 751 357 751 511 q 645 84 751 195 q 392 -24 541 -24 q 151 79 245 -24 q 60 332 60 180 m 238 571 q 224 555 238 571 q 195 489 210 538 q 180 370 180 439 q 202 243 180 301 q 258 142 224 184 q 422 52 332 52 q 614 193 571 52 q 630 313 630 242 q 608 444 630 385 q 552 546 586 504 q 476 612 517 589 q 390 635 434 635 q 306 620 345 635 q 238 571 266 604 m 233 787 q 168 826 191 781 q 277 1020 230 911 q 302 1085 292 1054 q 402 1029 368 1078 q 287 844 367 939 q 233 787 261 814 m 387 840 q 551 1081 494 956 q 643 1014 616 1069 q 508 844 601 931 q 448 794 479 817 q 401 817 422 792 q 387 840 393 827 z "},"Œ":{"ha":1392,"x_min":53,"x_max":1341,"o":"m 678 0 q 511 -24 602 -24 q 333 15 420 -24 q 183 122 245 54 q 53 479 53 266 q 206 865 53 705 q 433 1004 301 965 q 560 1023 498 1023 q 671 1012 622 1023 l 1327 1012 l 1305 806 q 1249 809 1278 801 l 1208 932 l 829 932 l 829 557 l 1133 557 l 1166 653 q 1219 653 1187 658 l 1219 380 q 1166 380 1190 376 l 1133 476 l 829 476 l 829 79 l 1225 79 l 1283 244 q 1335 244 1306 251 l 1341 0 l 678 0 m 701 888 q 537 936 622 936 q 390 909 453 936 q 283 832 327 883 q 192 540 192 727 q 302 190 192 322 q 570 64 408 64 q 701 88 641 64 l 701 888 z "},"œ":{"ha":1385,"x_min":91,"x_max":1294,"o":"m 1241 154 q 1279 104 1276 140 q 1070 -19 1175 5 q 1010 -24 1047 -24 q 928 -11 973 -24 q 846 28 884 3 q 734 165 771 79 q 519 -11 661 29 q 411 -24 473 -24 q 287 3 349 -24 q 182 79 226 31 q 91 329 91 180 q 141 523 91 433 q 357 697 214 654 q 452 711 403 711 q 633 661 551 711 q 753 514 720 608 q 879 657 799 604 q 1053 711 959 711 q 1234 627 1169 711 q 1294 433 1294 549 q 1288 375 1294 399 q 1008 358 1278 358 q 892 359 936 358 l 817 361 q 901 152 819 232 q 1067 81 975 81 q 1241 154 1159 81 m 873 423 q 1171 436 1080 423 q 1127 570 1171 509 q 1014 635 1080 635 q 890 582 943 635 q 821 423 833 524 l 873 423 m 270 571 q 256 555 270 571 q 227 489 242 538 q 212 370 212 439 q 234 243 212 301 q 290 142 256 184 q 454 52 363 52 q 646 193 602 52 q 661 313 661 242 q 639 444 661 385 q 583 546 617 504 q 507 612 549 589 q 421 635 465 635 q 337 620 376 635 q 270 571 297 604 z "},"Ŕ":{"ha":926,"x_min":53,"x_max":888,"o":"m 415 435 q 285 439 326 435 l 285 87 l 418 64 l 422 54 l 413 0 l 58 0 l 53 7 l 61 58 l 157 87 l 157 925 l 62 948 l 58 957 l 67 1012 l 460 1012 q 785 712 785 1012 q 716 530 785 602 q 551 444 656 467 q 661 317 610 408 q 703 238 682 278 q 747 161 723 197 q 878 59 804 80 l 888 46 l 877 0 l 724 -16 q 614 116 677 -9 l 541 267 q 415 435 473 404 m 412 932 q 285 919 348 932 l 285 519 q 383 514 317 514 q 495 524 448 514 q 576 557 543 534 q 648 719 648 608 q 589 872 648 814 q 412 932 528 932 m 391 1091 q 357 1106 371 1095 q 334 1143 344 1117 q 481 1310 416 1216 q 517 1369 502 1340 q 606 1295 578 1352 q 455 1136 549 1211 q 391 1091 425 1112 z "},"ŕ":{"ha":578,"x_min":62,"x_max":569,"o":"m 522 551 q 431 597 484 597 q 323 509 387 597 q 271 420 296 470 l 271 87 l 441 64 l 444 54 l 437 0 l 72 0 l 67 6 l 73 58 l 163 87 l 163 540 l 68 581 l 62 589 l 68 626 l 248 698 l 258 692 l 271 516 q 425 703 329 665 q 487 711 447 711 q 569 688 527 711 q 522 551 566 597 m 332 800 q 275 852 291 807 q 458 1078 393 958 q 547 1003 519 1061 q 396 845 492 920 q 332 800 366 821 z "},"Ŗ":{"ha":926,"x_min":53,"x_max":888,"o":"m 415 435 q 285 439 326 435 l 285 87 l 418 64 l 422 54 l 413 0 l 58 0 l 53 7 l 61 58 l 157 87 l 157 925 l 62 948 l 58 957 l 67 1012 l 460 1012 q 785 712 785 1012 q 716 530 785 602 q 551 444 656 467 q 661 317 610 408 q 703 238 682 278 q 747 161 723 197 q 878 59 804 80 l 888 46 l 877 0 l 724 -16 q 614 116 677 -9 l 541 267 q 415 435 473 404 m 412 932 q 285 919 348 932 l 285 519 q 383 514 317 514 q 495 524 448 514 q 576 557 543 534 q 648 719 648 608 q 589 872 648 814 q 412 932 528 932 m 395 -123 q 414 -82 395 -98 q 508 -62 462 -43 q 555 -105 541 -75 q 562 -144 562 -120 q 556 -196 562 -169 q 541 -245 550 -223 q 430 -362 507 -326 q 405 -346 410 -357 q 399 -327 400 -335 q 419 -304 406 -327 q 446 -235 446 -260 q 443 -199 446 -211 q 433 -179 439 -186 q 421 -166 427 -171 q 408 -156 414 -161 q 395 -123 395 -144 z "},"ŗ":{"ha":578,"x_min":62,"x_max":569,"o":"m 522 551 q 431 597 484 597 q 323 509 387 597 q 271 420 296 470 l 271 87 l 441 64 l 444 54 l 437 0 l 72 0 l 67 6 l 73 58 l 163 87 l 163 540 l 68 581 l 62 589 l 68 626 l 248 698 l 258 692 l 271 516 q 425 703 329 665 q 487 711 447 711 q 569 688 527 711 q 522 551 566 597 m 135 -123 q 154 -82 135 -98 q 248 -62 201 -43 q 294 -105 280 -75 q 301 -144 301 -120 q 295 -196 301 -169 q 281 -245 290 -223 q 170 -362 247 -326 q 144 -346 149 -357 q 139 -327 140 -335 q 159 -304 145 -327 q 186 -235 186 -260 q 182 -199 186 -211 q 173 -179 178 -186 q 160 -166 167 -171 q 148 -156 154 -161 q 135 -123 135 -144 z "},"Ř":{"ha":926,"x_min":53,"x_max":888,"o":"m 415 435 q 285 439 326 435 l 285 87 l 418 64 l 422 54 l 413 0 l 58 0 l 53 7 l 61 58 l 157 87 l 157 925 l 62 948 l 58 957 l 67 1012 l 460 1012 q 785 712 785 1012 q 716 530 785 602 q 551 444 656 467 q 661 317 610 408 q 703 238 682 278 q 747 161 723 197 q 878 59 804 80 l 888 46 l 877 0 l 724 -16 q 614 116 677 -9 l 541 267 q 415 435 473 404 m 412 932 q 285 919 348 932 l 285 519 q 383 514 317 514 q 495 524 448 514 q 576 557 543 534 q 648 719 648 608 q 589 872 648 814 q 412 932 528 932 m 243 1319 q 290 1367 264 1357 q 423 1236 342 1333 l 460 1192 l 477 1192 l 513 1234 q 648 1369 591 1327 q 680 1352 670 1360 q 698 1323 690 1343 q 516 1090 529 1112 q 477 1086 500 1086 q 420 1090 433 1086 q 402 1116 414 1099 q 343 1198 362 1173 l 272 1286 q 243 1319 256 1306 z "},"ř":{"ha":578,"x_min":62,"x_max":569,"o":"m 522 551 q 431 597 484 597 q 323 509 387 597 q 271 420 296 470 l 271 87 l 441 64 l 444 54 l 437 0 l 72 0 l 67 6 l 73 58 l 163 87 l 163 540 l 68 581 l 62 589 l 68 626 l 248 698 l 258 692 l 271 516 q 425 703 329 665 q 487 711 447 711 q 569 688 527 711 q 522 551 566 597 m 282 805 q 264 831 277 814 q 172 956 194 929 q 134 1002 172 956 q 105 1035 118 1022 q 128 1068 118 1059 q 153 1083 138 1077 q 285 951 205 1048 q 321 907 285 951 l 340 907 q 456 1038 422 1006 q 511 1085 489 1069 q 549 1060 541 1072 q 560 1038 556 1048 q 378 805 391 828 q 328 800 354 800 q 282 805 302 800 z "},"Ś":{"ha":811,"x_min":91,"x_max":734,"o":"m 138 276 q 192 267 168 279 q 199 152 192 182 q 342 72 256 100 q 432 58 387 58 q 510 67 478 58 q 566 96 543 76 q 618 229 618 140 q 538 354 618 298 q 458 403 503 380 l 365 449 q 201 552 245 509 q 134 639 156 595 q 113 742 113 682 q 137 853 113 801 q 205 943 161 905 q 435 1023 296 1023 q 716 943 580 1023 l 668 732 q 616 739 645 728 q 614 782 616 762 q 612 823 613 802 q 607 857 610 843 q 370 935 509 935 q 260 891 300 935 q 224 797 224 852 q 247 709 224 741 q 304 651 269 677 q 385 602 340 625 l 479 554 q 645 448 601 492 q 712 360 690 405 q 734 253 734 315 q 708 139 734 191 q 637 50 683 87 q 386 -24 543 -24 q 160 20 254 -24 q 91 64 118 39 l 138 276 m 327 1091 q 293 1106 307 1095 q 270 1143 279 1117 q 416 1310 351 1216 q 453 1369 437 1340 q 541 1295 514 1352 q 391 1136 485 1211 q 327 1091 360 1112 z "},"ś":{"ha":579,"x_min":59,"x_max":527,"o":"m 450 573 q 273 640 363 640 q 191 582 212 640 q 184 539 184 565 q 199 490 184 513 q 238 448 214 467 q 293 415 262 430 l 355 385 q 469 315 439 344 q 527 176 527 255 q 452 30 527 87 q 271 -24 380 -24 q 130 -6 180 -24 q 59 27 79 13 q 109 131 64 90 q 252 53 175 74 q 303 46 278 46 q 350 52 328 46 q 388 69 372 57 q 425 136 425 95 q 411 200 425 177 q 372 241 396 223 q 317 273 348 258 l 254 301 q 142 369 172 338 q 83 511 83 429 q 153 654 83 596 q 324 711 222 711 q 505 680 420 711 q 484 620 500 649 q 450 573 467 590 m 287 800 q 229 852 245 807 q 413 1078 347 958 q 501 1003 474 1061 q 351 845 446 920 q 287 800 320 821 z "},"Ŝ":{"ha":811,"x_min":91,"x_max":734,"o":"m 138 276 q 192 267 168 279 q 199 152 192 182 q 342 72 256 100 q 432 58 387 58 q 510 67 478 58 q 566 96 543 76 q 618 229 618 140 q 538 354 618 298 q 458 403 503 380 l 365 449 q 201 552 245 509 q 134 639 156 595 q 113 742 113 682 q 137 853 113 801 q 205 943 161 905 q 435 1023 296 1023 q 716 943 580 1023 l 668 732 q 616 739 645 728 q 614 782 616 762 q 612 823 613 802 q 607 857 610 843 q 370 935 509 935 q 260 891 300 935 q 224 797 224 852 q 247 709 224 741 q 304 651 269 677 q 385 602 340 625 l 479 554 q 645 448 601 492 q 712 360 690 405 q 734 253 734 315 q 708 139 734 191 q 637 50 683 87 q 386 -24 543 -24 q 160 20 254 -24 q 91 64 118 39 l 138 276 m 209 1069 q 179 1092 189 1077 q 163 1118 170 1106 q 191 1146 173 1126 q 269 1238 243 1206 l 347 1336 q 363 1359 360 1354 q 459 1359 411 1368 q 480 1329 465 1350 l 630 1138 q 648 1116 644 1120 q 617 1078 637 1088 q 598 1069 609 1074 q 458 1211 543 1109 l 421 1257 l 404 1257 q 363 1211 388 1237 l 311 1157 q 209 1069 244 1091 z "},"ŝ":{"ha":579,"x_min":37,"x_max":527,"o":"m 450 573 q 273 640 363 640 q 191 582 212 640 q 184 539 184 565 q 199 490 184 513 q 238 448 214 467 q 293 415 262 430 l 355 385 q 469 315 439 344 q 527 176 527 255 q 452 30 527 87 q 271 -24 380 -24 q 130 -6 180 -24 q 59 27 79 13 q 109 131 64 90 q 252 53 175 74 q 303 46 278 46 q 350 52 328 46 q 388 69 372 57 q 425 136 425 95 q 411 200 425 177 q 372 241 396 223 q 317 273 348 258 l 254 301 q 142 369 172 338 q 83 511 83 429 q 153 654 83 596 q 324 711 222 711 q 505 680 420 711 q 484 620 500 649 q 450 573 467 590 m 83 800 q 54 822 63 808 q 37 848 44 836 q 64 876 47 857 q 143 968 117 936 l 220 1066 q 237 1089 234 1084 q 333 1089 285 1099 q 353 1059 338 1080 q 522 846 511 859 q 491 808 511 818 q 473 800 484 804 q 393 872 433 829 q 295 987 320 955 l 278 987 q 237 941 262 968 l 185 888 q 83 800 121 824 z "},"Ş":{"ha":811,"x_min":91,"x_max":734,"o":"m 325 -148 q 294 -111 308 -138 l 331 -22 q 91 64 171 -9 l 138 276 q 192 267 168 279 q 199 152 192 182 q 342 72 256 100 q 432 58 387 58 q 510 67 478 58 q 566 96 543 76 q 618 229 618 140 q 538 354 618 298 q 458 403 503 380 l 365 449 q 201 552 245 509 q 134 639 156 595 q 113 742 113 682 q 137 853 113 801 q 205 943 161 905 q 435 1023 296 1023 q 716 943 580 1023 l 668 732 q 616 739 645 728 q 614 782 616 762 q 612 823 613 802 q 607 857 610 843 q 370 935 509 935 q 260 891 300 935 q 224 797 224 852 q 247 709 224 741 q 304 651 269 677 q 385 602 340 625 l 479 554 q 645 448 601 492 q 712 360 690 405 q 734 255 734 315 q 712 148 734 196 q 652 64 691 99 q 436 -22 571 -9 l 416 -82 q 474 -72 449 -70 q 549 -109 524 -75 q 572 -187 574 -142 q 546 -261 569 -232 q 488 -313 524 -291 q 319 -359 415 -359 q 312 -332 312 -351 q 313 -300 311 -313 q 418 -270 380 -297 q 457 -173 471 -234 q 397 -126 446 -126 q 325 -148 348 -126 z "},"ş":{"ha":579,"x_min":59,"x_max":527,"o":"m 213 -21 q 59 27 111 -11 q 109 131 64 90 q 252 53 175 74 q 303 46 278 46 q 350 52 328 46 q 388 69 372 57 q 425 136 425 95 q 411 200 425 177 q 372 241 396 223 q 317 273 348 258 l 254 301 q 142 369 172 338 q 83 511 83 429 q 153 654 83 596 q 324 711 222 711 q 505 680 420 711 q 484 620 500 649 q 450 573 467 590 q 273 640 363 640 q 191 582 212 640 q 184 539 184 565 q 199 490 184 513 q 238 448 214 467 q 293 415 262 430 l 355 385 q 469 315 439 344 q 527 176 527 255 q 467 42 527 97 q 318 -21 410 -10 l 297 -82 q 355 -72 330 -70 q 430 -109 405 -75 q 453 -187 456 -142 q 428 -261 450 -232 q 370 -313 405 -291 q 201 -359 296 -359 q 193 -332 193 -351 q 194 -300 193 -313 q 300 -270 261 -297 q 338 -173 352 -234 q 278 -126 328 -126 q 206 -148 229 -126 q 175 -111 189 -138 l 213 -21 z "},"Š":{"ha":811,"x_min":91,"x_max":734,"o":"m 138 276 q 192 267 168 279 q 199 152 192 182 q 342 72 256 100 q 432 58 387 58 q 510 67 478 58 q 566 96 543 76 q 618 229 618 140 q 538 354 618 298 q 458 403 503 380 l 365 449 q 201 552 245 509 q 134 639 156 595 q 113 742 113 682 q 137 853 113 801 q 205 943 161 905 q 435 1023 296 1023 q 716 943 580 1023 l 668 732 q 616 739 645 728 q 614 782 616 762 q 612 823 613 802 q 607 857 610 843 q 370 935 509 935 q 260 891 300 935 q 224 797 224 852 q 247 709 224 741 q 304 651 269 677 q 385 602 340 625 l 479 554 q 645 448 601 492 q 712 360 690 405 q 734 253 734 315 q 708 139 734 191 q 637 50 683 87 q 386 -24 543 -24 q 160 20 254 -24 q 91 64 118 39 l 138 276 m 178 1319 q 226 1367 200 1357 q 359 1236 278 1333 l 395 1192 l 413 1192 l 449 1234 q 584 1369 526 1327 q 615 1352 606 1360 q 633 1323 625 1343 q 452 1090 465 1112 q 412 1086 435 1086 q 355 1090 369 1086 q 338 1116 350 1099 q 279 1198 298 1173 l 208 1286 q 178 1319 191 1306 z "},"š":{"ha":579,"x_min":59,"x_max":527,"o":"m 450 573 q 273 640 363 640 q 191 582 212 640 q 184 539 184 565 q 199 490 184 513 q 238 448 214 467 q 293 415 262 430 l 355 385 q 469 315 439 344 q 527 176 527 255 q 452 30 527 87 q 271 -24 380 -24 q 130 -6 180 -24 q 59 27 79 13 q 109 131 64 90 q 252 53 175 74 q 303 46 278 46 q 350 52 328 46 q 388 69 372 57 q 425 136 425 95 q 411 200 425 177 q 372 241 396 223 q 317 273 348 258 l 254 301 q 142 369 172 338 q 83 511 83 429 q 153 654 83 596 q 324 711 222 711 q 505 680 420 711 q 484 620 500 649 q 450 573 467 590 m 237 805 q 220 831 232 814 q 127 956 149 929 q 90 1002 127 956 q 60 1035 73 1022 q 83 1068 73 1059 q 108 1083 94 1077 q 240 951 160 1048 q 277 907 240 951 l 295 907 q 411 1038 378 1006 q 466 1085 444 1069 q 504 1060 496 1072 q 515 1038 511 1048 q 333 805 346 828 q 283 800 309 800 q 237 805 257 800 z "},"Ţ":{"ha":924,"x_min":55,"x_max":868,"o":"m 252 58 l 397 87 l 397 929 l 271 929 q 169 903 197 929 q 113 787 144 880 q 55 798 73 787 l 81 1012 l 840 1012 l 868 798 q 810 787 846 787 q 759 900 779 881 q 715 924 739 918 q 652 929 691 929 l 526 929 l 526 87 l 673 58 l 677 49 l 667 0 l 250 0 l 246 6 l 252 58 m 387 -123 q 406 -82 387 -98 q 499 -62 453 -43 q 546 -105 532 -75 q 553 -144 553 -120 q 547 -196 553 -169 q 532 -245 541 -223 q 421 -362 498 -326 q 396 -346 401 -357 q 391 -327 391 -335 q 410 -304 397 -327 q 437 -235 437 -260 q 434 -199 437 -211 q 424 -179 430 -186 q 412 -166 418 -171 q 399 -156 406 -161 q 387 -123 387 -144 z "},"ţ":{"ha":578,"x_min":47,"x_max":522,"o":"m 339 79 q 494 111 414 79 q 522 64 519 96 q 323 -24 402 -24 q 183 37 231 -24 q 141 182 141 90 l 141 608 l 52 608 q 47 631 47 620 q 57 659 47 646 l 156 693 l 205 876 l 252 876 l 252 682 q 488 688 327 682 q 488 682 488 685 l 489 665 q 473 608 489 627 l 252 608 l 252 187 q 269 119 252 142 q 339 79 300 79 m 197 -123 q 216 -82 197 -98 q 309 -62 263 -43 q 356 -105 342 -75 q 363 -144 363 -120 q 357 -196 363 -169 q 342 -245 351 -223 q 231 -362 309 -326 q 206 -346 211 -357 q 201 -327 201 -335 q 220 -304 207 -327 q 248 -235 248 -260 q 244 -199 248 -211 q 234 -179 240 -186 q 222 -166 229 -171 q 210 -156 216 -161 q 197 -123 197 -144 z "},"Ť":{"ha":924,"x_min":55,"x_max":868,"o":"m 252 58 l 397 87 l 397 929 l 271 929 q 169 903 197 929 q 113 787 144 880 q 55 798 73 787 l 81 1012 l 840 1012 l 868 798 q 810 787 846 787 q 759 900 779 881 q 715 924 739 918 q 652 929 691 929 l 526 929 l 526 87 l 673 58 l 677 49 l 667 0 l 250 0 l 246 6 l 252 58 m 234 1319 q 281 1367 256 1357 q 414 1236 334 1333 l 451 1192 l 469 1192 l 505 1234 q 640 1369 582 1327 q 671 1352 661 1360 q 689 1323 681 1343 q 507 1090 520 1112 q 468 1086 491 1086 q 411 1090 425 1086 q 393 1116 406 1099 q 334 1198 353 1173 l 263 1286 q 234 1319 247 1306 z "},"ť":{"ha":578,"x_min":47,"x_max":522,"o":"m 339 79 q 494 111 414 79 q 522 64 519 96 q 323 -24 402 -24 q 183 37 231 -24 q 141 182 141 90 l 141 608 l 52 608 q 47 631 47 620 q 57 659 47 646 l 156 693 l 205 876 l 252 876 l 252 682 q 488 688 327 682 q 488 682 488 685 l 489 665 q 473 608 489 627 l 252 608 l 252 187 q 269 119 252 142 q 339 79 300 79 m 357 998 q 348 1025 348 1009 q 355 1056 348 1042 q 374 1083 362 1071 q 422 1112 401 1112 q 460 1103 444 1112 q 488 1080 475 1094 q 514 1016 514 1050 q 508 951 514 982 q 490 895 501 920 q 362 735 449 794 q 332 770 335 741 q 345 783 334 770 q 370 814 357 795 q 406 897 406 865 q 396 945 406 928 q 377 975 387 962 l 357 998 z "},"Ŧ":{"ha":924,"x_min":55,"x_max":868,"o":"m 252 58 l 397 87 l 397 508 l 210 508 q 212 573 199 535 q 219 588 216 583 l 397 588 l 397 929 l 271 929 q 169 903 197 929 q 113 787 144 880 q 55 798 73 787 l 81 1012 l 840 1012 l 868 798 q 810 787 846 787 q 759 900 779 881 q 715 924 739 918 q 652 929 691 929 l 526 929 l 526 588 l 713 588 q 703 508 721 547 l 526 508 l 526 87 l 673 58 l 677 49 l 667 0 l 250 0 l 246 6 l 252 58 z "},"ŧ":{"ha":578,"x_min":43,"x_max":522,"o":"m 339 79 q 494 111 414 79 q 522 64 519 96 q 323 -24 402 -24 q 183 37 231 -24 q 141 182 141 90 l 141 413 l 53 412 q 60 477 43 437 q 67 492 64 487 l 141 493 l 141 608 l 52 608 q 47 631 47 620 q 57 659 47 646 l 156 693 l 205 876 l 252 876 l 252 682 q 488 688 327 682 q 488 682 488 685 l 489 665 q 473 608 489 627 l 252 608 l 252 494 l 420 497 q 406 417 430 447 l 252 414 l 252 187 q 269 119 252 142 q 339 79 300 79 z "},"Ũ":{"ha":1039,"x_min":34,"x_max":1005,"o":"m 121 925 l 39 948 l 34 957 l 43 1012 l 366 1012 l 370 1006 l 362 954 l 250 925 l 250 380 q 318 141 250 218 q 528 64 387 64 q 730 136 648 64 q 814 338 814 211 l 814 925 l 711 948 l 706 957 l 715 1012 l 1002 1012 l 1005 1006 l 999 954 l 901 925 l 901 334 q 792 75 901 173 q 497 -24 681 -24 q 218 70 316 -24 q 121 323 121 162 l 121 925 m 598 1271 q 720 1348 646 1271 q 756 1318 747 1334 q 766 1297 766 1303 q 592 1172 659 1172 q 526 1193 560 1172 q 475 1224 492 1215 q 439 1234 458 1234 q 373 1207 408 1234 q 319 1160 338 1180 q 278 1197 295 1171 q 273 1211 273 1204 q 446 1333 380 1333 q 511 1312 478 1333 q 561 1281 543 1291 q 598 1271 578 1271 z "},"ũ":{"ha":811,"x_min":58,"x_max":791,"o":"m 317 90 q 401 78 347 78 q 561 139 456 78 l 561 541 l 465 583 l 460 591 l 465 628 l 656 698 l 669 693 l 669 136 q 674 113 669 121 q 690 105 680 105 q 716 106 701 105 l 745 109 q 783 113 763 111 l 791 104 l 774 47 l 589 -16 l 580 -6 l 572 78 l 566 79 l 533 56 q 432 -4 479 17 q 343 -24 384 -24 q 261 -8 303 -24 q 190 39 219 9 q 131 209 131 101 l 131 559 l 64 593 l 58 600 l 64 637 l 229 698 l 239 692 l 239 239 q 317 90 239 122 m 476 940 q 598 1016 522 940 q 633 988 623 1004 q 644 966 644 972 q 470 841 536 841 q 405 862 439 841 q 353 893 371 884 q 317 903 336 903 q 197 827 266 903 q 162 857 172 842 q 151 879 152 873 q 297 997 231 972 q 330 1002 311 1002 q 367 992 348 1002 q 404 971 387 983 q 439 950 422 960 q 476 940 456 940 z "},"Ū":{"ha":1039,"x_min":34,"x_max":1005,"o":"m 121 925 l 39 948 l 34 957 l 43 1012 l 366 1012 l 370 1006 l 362 954 l 250 925 l 250 380 q 318 141 250 218 q 528 64 387 64 q 730 136 648 64 q 814 338 814 211 l 814 925 l 711 948 l 706 957 l 715 1012 l 1002 1012 l 1005 1006 l 999 954 l 901 925 l 901 334 q 792 75 901 173 q 497 -24 681 -24 q 218 70 316 -24 q 121 323 121 162 l 121 925 m 363 1131 q 372 1211 349 1173 l 675 1211 q 666 1131 686 1167 l 363 1131 z "},"ū":{"ha":811,"x_min":58,"x_max":791,"o":"m 317 90 q 401 78 347 78 q 561 139 456 78 l 561 541 l 465 583 l 460 591 l 465 628 l 656 698 l 669 693 l 669 136 q 674 113 669 121 q 690 105 680 105 q 716 106 701 105 l 745 109 q 783 113 763 111 l 791 104 l 774 47 l 589 -16 l 580 -6 l 572 78 l 566 79 l 533 56 q 432 -4 479 17 q 343 -24 384 -24 q 261 -8 303 -24 q 190 39 219 9 q 131 209 131 101 l 131 559 l 64 593 l 58 600 l 64 637 l 229 698 l 239 692 l 239 239 q 317 90 239 122 m 186 820 q 196 899 172 862 l 594 899 q 585 820 604 857 l 186 820 z "},"Ŭ":{"ha":1039,"x_min":34,"x_max":1005,"o":"m 121 925 l 39 948 l 34 957 l 43 1012 l 366 1012 l 370 1006 l 362 954 l 250 925 l 250 380 q 318 141 250 218 q 528 64 387 64 q 730 136 648 64 q 814 338 814 211 l 814 925 l 711 948 l 706 957 l 715 1012 l 1002 1012 l 1005 1006 l 999 954 l 901 925 l 901 334 q 792 75 901 173 q 497 -24 681 -24 q 218 70 316 -24 q 121 323 121 162 l 121 925 m 517 1133 q 440 1148 474 1133 q 382 1190 406 1164 q 319 1322 337 1239 q 374 1338 342 1343 q 468 1226 397 1254 q 519 1217 491 1217 q 668 1338 632 1217 q 720 1320 704 1340 q 654 1194 706 1249 q 517 1133 595 1133 z "},"ŭ":{"ha":811,"x_min":58,"x_max":791,"o":"m 317 90 q 401 78 347 78 q 561 139 456 78 l 561 541 l 465 583 l 460 591 l 465 628 l 656 698 l 669 693 l 669 136 q 674 113 669 121 q 690 105 680 105 q 716 106 701 105 l 745 109 q 783 113 763 111 l 791 104 l 774 47 l 589 -16 l 580 -6 l 572 78 l 566 79 l 533 56 q 432 -4 479 17 q 343 -24 384 -24 q 261 -8 303 -24 q 190 39 219 9 q 131 209 131 101 l 131 559 l 64 593 l 58 600 l 64 637 l 229 698 l 239 692 l 239 239 q 317 90 239 122 m 395 821 q 318 837 352 821 q 260 879 284 852 q 197 1010 215 926 q 252 1027 220 1029 q 346 914 277 941 q 398 905 370 905 q 546 1027 511 905 q 597 1008 579 1029 q 532 882 585 938 q 395 821 473 821 z "},"Ů":{"ha":1039,"x_min":34,"x_max":1005,"o":"m 121 925 l 39 948 l 34 957 l 43 1012 l 366 1012 l 370 1006 l 362 954 l 250 925 l 250 380 q 318 141 250 218 q 528 64 387 64 q 730 136 648 64 q 814 338 814 211 l 814 925 l 711 948 l 706 957 l 715 1012 l 1002 1012 l 1005 1006 l 999 954 l 901 925 l 901 334 q 792 75 901 173 q 497 -24 681 -24 q 218 70 316 -24 q 121 323 121 162 l 121 925 m 515 1083 q 459 1094 486 1083 q 414 1124 433 1105 q 373 1225 373 1164 q 420 1329 373 1284 q 526 1371 465 1371 q 626 1333 586 1371 q 665 1236 665 1295 q 619 1126 665 1169 q 515 1083 574 1083 m 517 1310 q 453 1237 453 1310 q 470 1177 453 1196 q 525 1144 498 1144 q 585 1217 585 1144 q 568 1278 585 1258 q 517 1310 541 1310 z "},"ů":{"ha":811,"x_min":58,"x_max":791,"o":"m 317 90 q 401 78 347 78 q 561 139 456 78 l 561 541 l 465 583 l 460 591 l 465 628 l 656 698 l 669 693 l 669 136 q 674 113 669 121 q 690 105 680 105 q 716 106 701 105 l 745 109 q 783 113 763 111 l 791 104 l 774 47 l 589 -16 l 580 -6 l 572 78 l 566 79 l 533 56 q 432 -4 479 17 q 343 -24 384 -24 q 261 -8 303 -24 q 190 39 219 9 q 131 209 131 101 l 131 559 l 64 593 l 58 600 l 64 637 l 229 698 l 239 692 l 239 239 q 317 90 239 122 m 398 825 q 338 837 366 825 q 288 867 309 848 q 244 972 244 909 q 296 1083 244 1036 q 411 1128 346 1128 q 519 1088 477 1128 q 562 985 562 1048 q 512 869 562 916 q 398 825 464 825 m 401 1063 q 331 986 331 1063 q 382 895 331 922 q 409 888 395 888 q 474 966 474 888 q 450 1038 474 1008 q 401 1063 428 1063 z "},"Ű":{"ha":1039,"x_min":34,"x_max":1005,"o":"m 121 925 l 39 948 l 34 957 l 43 1012 l 366 1012 l 370 1006 l 362 954 l 250 925 l 250 380 q 318 141 250 218 q 528 64 387 64 q 730 136 648 64 q 814 338 814 211 l 814 925 l 711 948 l 706 957 l 715 1012 l 1002 1012 l 1005 1006 l 999 954 l 901 925 l 901 334 q 792 75 901 173 q 497 -24 681 -24 q 218 70 316 -24 q 121 323 121 162 l 121 925 m 363 1110 q 496 1369 458 1244 q 597 1313 561 1364 q 481 1128 562 1221 q 427 1072 456 1098 q 386 1082 402 1067 q 363 1110 370 1097 m 583 1125 q 745 1366 690 1242 q 838 1299 809 1354 q 644 1078 777 1179 q 583 1125 603 1075 z "},"ű":{"ha":811,"x_min":58,"x_max":791,"o":"m 317 90 q 401 78 347 78 q 561 139 456 78 l 561 541 l 465 583 l 460 591 l 465 628 l 656 698 l 669 693 l 669 136 q 674 113 669 121 q 690 105 680 105 q 716 106 701 105 l 745 109 q 783 113 763 111 l 791 104 l 774 47 l 589 -16 l 580 -6 l 572 78 l 566 79 l 533 56 q 432 -4 479 17 q 343 -24 384 -24 q 261 -8 303 -24 q 190 39 219 9 q 131 209 131 101 l 131 559 l 64 593 l 58 600 l 64 637 l 229 698 l 239 692 l 239 239 q 317 90 239 122 m 224 787 q 159 826 183 781 q 269 1020 222 911 q 294 1085 284 1054 q 394 1029 359 1078 q 279 844 359 939 q 224 787 253 814 m 379 840 q 543 1081 486 956 q 635 1014 608 1069 q 500 844 593 931 q 440 794 471 817 q 393 817 414 792 q 379 840 385 827 z "},"Ų":{"ha":1038,"x_min":34,"x_max":1004,"o":"m 556 -244 q 615 -226 583 -244 q 648 -208 648 -208 q 661 -214 652 -208 q 679 -249 679 -229 q 587 -312 634 -294 q 509 -331 540 -331 q 456 -322 477 -331 q 420 -296 435 -313 q 390 -219 390 -261 q 401 -149 390 -176 q 429 -98 412 -121 q 500 -24 459 -57 l 489 -24 q 216 70 313 -24 q 121 323 121 162 l 121 911 l 39 935 l 34 943 l 43 998 l 366 998 l 370 992 l 362 941 l 250 911 l 250 380 q 315 141 250 218 q 515 64 380 64 q 726 136 642 64 q 813 338 813 212 l 813 911 l 714 935 l 709 943 l 719 998 l 1000 998 l 1004 992 l 997 941 l 900 911 l 900 334 q 736 45 900 138 q 651 3 689 19 q 588 -33 613 -14 q 544 -77 563 -52 q 500 -188 500 -132 q 556 -244 500 -244 z "},"ų":{"ha":811,"x_min":58,"x_max":791,"o":"m 436 -212 q 579 -2 436 -105 l 572 78 l 566 79 l 533 56 q 432 -4 479 17 q 343 -24 384 -24 q 261 -8 303 -24 q 190 39 219 9 q 131 209 131 101 l 131 559 l 64 593 l 58 600 l 64 637 l 229 698 l 239 692 l 239 239 q 317 90 239 122 q 401 78 347 78 q 561 139 456 78 l 561 541 l 465 583 l 460 591 l 465 628 l 656 698 l 669 693 l 669 136 q 674 113 669 121 q 690 105 680 105 q 716 106 701 105 l 745 109 q 783 113 763 111 l 791 104 l 774 47 l 759 42 q 600 -64 658 3 q 546 -186 546 -127 q 602 -244 546 -244 q 661 -226 628 -244 q 695 -208 694 -208 q 708 -214 700 -208 q 726 -249 726 -230 q 633 -313 680 -294 q 555 -331 586 -331 q 503 -322 524 -331 q 467 -297 481 -313 q 436 -212 436 -264 z "},"Ŵ":{"ha":1501,"x_min":-29,"x_max":1531,"o":"m 84 925 l -24 948 l -29 957 l -20 1012 l 317 1012 l 320 1006 l 314 954 l 226 925 l 462 115 l 710 949 q 831 994 752 991 l 1080 110 l 1326 925 l 1237 948 l 1232 957 l 1242 1012 l 1527 1012 l 1531 1006 l 1525 954 l 1421 925 l 1128 16 q 1002 -16 1079 -13 l 751 817 l 511 16 q 384 -16 460 -13 l 84 925 m 554 1069 q 525 1092 534 1077 q 509 1118 515 1106 q 536 1146 518 1126 q 614 1238 589 1206 l 692 1336 q 709 1359 705 1354 q 804 1359 756 1368 q 825 1329 810 1350 l 975 1138 q 994 1116 989 1120 q 962 1078 982 1088 q 943 1069 954 1074 q 804 1211 888 1109 l 766 1257 l 749 1257 q 709 1211 733 1237 l 656 1157 q 554 1069 589 1091 z "},"ŵ":{"ha":1039,"x_min":-19,"x_max":1063,"o":"m 43 605 l -14 625 l -19 633 l -12 687 l 254 687 l 259 680 l 252 631 l 178 605 l 317 128 l 500 650 q 539 672 516 666 q 574 680 562 679 l 751 132 l 904 607 l 807 625 l 802 633 l 810 687 l 1061 687 l 1063 680 l 1055 625 l 989 605 l 770 12 q 701 -16 757 -16 l 516 492 l 332 12 q 304 -9 321 -4 q 264 -16 286 -14 l 43 605 m 332 800 q 303 822 313 808 q 287 848 294 836 q 314 876 296 857 q 393 968 367 936 l 470 1066 q 487 1089 484 1084 q 583 1089 534 1099 q 603 1059 588 1080 q 772 846 761 859 q 741 808 760 818 q 722 800 733 804 q 643 872 682 829 q 545 987 570 955 l 528 987 q 486 941 511 968 l 435 888 q 332 800 371 824 z "},"Ŷ":{"ha":811,"x_min":-40,"x_max":852,"o":"m 248 58 l 345 87 l 345 370 l 59 925 l -35 948 l -40 957 l -30 1012 l 318 1012 l 321 1006 l 315 954 l 213 925 l 423 462 l 635 920 l 536 948 l 531 957 l 541 1012 l 848 1012 l 852 1006 l 845 954 l 745 925 l 473 379 l 473 87 l 572 64 l 577 54 l 568 0 l 245 0 l 241 6 l 248 58 m 209 1069 q 179 1092 189 1077 q 163 1118 170 1106 q 191 1146 173 1126 q 269 1238 243 1206 l 347 1336 q 363 1359 360 1354 q 459 1359 411 1368 q 480 1329 465 1350 l 630 1138 q 648 1116 644 1120 q 617 1078 637 1088 q 598 1069 609 1074 q 458 1211 543 1109 l 421 1257 l 404 1257 q 363 1211 388 1237 l 311 1157 q 209 1069 244 1091 z "},"ŷ":{"ha":810,"x_min":42,"x_max":780,"o":"m 180 -305 q 366 3 307 -115 l 125 605 l 47 625 l 42 633 l 50 687 l 332 687 l 336 680 l 330 631 l 254 605 l 426 110 l 432 110 q 508 305 475 215 l 565 463 q 612 607 592 542 l 515 625 l 511 633 l 519 687 l 775 687 l 780 680 l 770 625 l 699 605 l 498 104 q 423 -68 462 16 l 353 -218 l 281 -365 q 208 -335 243 -365 q 180 -305 192 -322 m 229 800 q 199 822 209 808 q 183 848 190 836 q 210 876 193 857 q 289 968 263 936 l 366 1066 q 383 1089 380 1084 q 479 1089 431 1099 q 499 1059 484 1080 q 668 846 657 859 q 637 808 656 818 q 618 800 629 804 q 539 872 578 829 q 441 987 466 955 l 424 987 q 382 941 408 968 l 331 888 q 229 800 267 824 z "},"Ÿ":{"ha":811,"x_min":-40,"x_max":852,"o":"m 248 58 l 345 87 l 345 370 l 59 925 l -35 948 l -40 957 l -30 1012 l 318 1012 l 321 1006 l 315 954 l 213 925 l 423 462 l 635 920 l 536 948 l 531 957 l 541 1012 l 848 1012 l 852 1006 l 845 954 l 745 925 l 473 379 l 473 87 l 572 64 l 577 54 l 568 0 l 245 0 l 241 6 l 248 58 m 593 1181 q 587 1175 593 1181 q 566 1161 581 1168 q 534 1153 550 1153 q 504 1159 519 1153 q 478 1177 490 1166 q 452 1224 452 1202 q 458 1261 452 1246 q 475 1288 464 1276 q 523 1315 499 1315 q 561 1309 546 1315 q 589 1293 576 1303 q 618 1246 618 1268 q 611 1209 618 1224 q 593 1181 604 1194 m 342 1188 q 333 1178 342 1188 q 309 1161 324 1168 q 278 1153 293 1153 q 248 1159 262 1153 q 221 1177 233 1166 q 194 1225 194 1203 q 200 1261 194 1246 q 217 1288 206 1276 q 275 1315 241 1315 q 325 1298 305 1315 q 360 1238 360 1267 q 342 1188 360 1208 z "},"Ź":{"ha":922,"x_min":49,"x_max":858,"o":"m 68 0 q 49 58 52 18 l 683 935 l 208 935 l 168 793 q 113 789 138 785 l 90 1012 l 848 1012 q 853 994 851 1003 q 852 951 858 970 l 233 77 l 726 77 l 766 219 q 798 224 785 224 q 822 222 810 224 l 844 0 l 68 0 m 379 1091 q 345 1106 359 1095 q 322 1143 332 1117 q 469 1310 404 1216 q 505 1369 490 1340 q 593 1295 566 1352 q 443 1136 537 1211 q 379 1091 412 1112 z "},"ź":{"ha":694,"x_min":61,"x_max":641,"o":"m 629 687 q 641 634 641 665 l 217 64 l 523 64 l 566 203 q 590 208 577 208 q 614 206 602 208 l 636 0 l 75 0 q 66 56 61 28 l 486 623 l 211 623 l 167 484 q 118 480 148 475 l 96 687 l 629 687 m 345 800 q 288 852 304 807 q 471 1078 406 958 q 559 1003 532 1061 q 409 845 505 920 q 345 800 378 821 z "},"Ż":{"ha":922,"x_min":49,"x_max":858,"o":"m 68 0 q 49 58 52 18 l 683 935 l 208 935 l 168 793 q 113 789 138 785 l 90 1012 l 848 1012 q 853 994 851 1003 q 852 951 858 970 l 233 77 l 726 77 l 766 219 q 798 224 785 224 q 822 222 810 224 l 844 0 l 68 0 m 523 1146 q 514 1136 523 1146 q 490 1119 505 1126 q 458 1111 474 1111 q 428 1117 443 1111 q 401 1134 414 1124 q 375 1180 375 1158 q 381 1218 375 1203 q 398 1244 387 1232 q 455 1272 422 1272 q 505 1255 486 1272 q 541 1195 541 1225 q 523 1146 541 1166 z "},"ż":{"ha":694,"x_min":61,"x_max":641,"o":"m 629 687 q 641 634 641 665 l 217 64 l 523 64 l 566 203 q 590 208 577 208 q 614 206 602 208 l 636 0 l 75 0 q 66 56 61 28 l 486 623 l 211 623 l 167 484 q 118 480 148 475 l 96 687 l 629 687 m 296 781 q 287 790 296 781 q 270 812 277 798 q 262 842 262 827 q 269 871 262 857 q 286 898 275 886 q 333 925 310 925 q 372 919 356 925 q 400 902 387 913 q 429 856 429 878 q 422 819 429 834 q 403 792 415 804 q 343 764 376 764 q 296 781 315 764 z "},"Ž":{"ha":922,"x_min":49,"x_max":858,"o":"m 68 0 q 49 58 52 18 l 683 935 l 208 935 l 168 793 q 113 789 138 785 l 90 1012 l 848 1012 q 853 994 851 1003 q 852 951 858 970 l 233 77 l 726 77 l 766 219 q 798 224 785 224 q 822 222 810 224 l 844 0 l 68 0 m 231 1319 q 278 1367 252 1357 q 411 1236 330 1333 l 448 1192 l 465 1192 l 501 1234 q 636 1369 578 1327 q 668 1352 658 1360 q 686 1323 677 1343 q 504 1090 517 1112 q 465 1086 488 1086 q 408 1090 421 1086 q 390 1116 402 1099 q 331 1198 350 1173 l 260 1286 q 231 1319 243 1306 z "},"ž":{"ha":694,"x_min":61,"x_max":641,"o":"m 629 687 q 641 634 641 665 l 217 64 l 523 64 l 566 203 q 590 208 577 208 q 614 206 602 208 l 636 0 l 75 0 q 66 56 61 28 l 486 623 l 211 623 l 167 484 q 118 480 148 475 l 96 687 l 629 687 m 295 805 q 277 831 290 814 q 185 956 207 929 q 147 1002 185 956 q 118 1035 131 1022 q 141 1068 131 1059 q 165 1083 151 1077 q 298 951 218 1048 q 334 907 298 951 l 353 907 q 469 1038 435 1006 q 524 1085 502 1069 q 562 1060 554 1072 q 573 1038 569 1048 q 391 805 404 828 q 341 800 367 800 q 295 805 315 800 z "},"ƒ":{"ha":814,"x_min":-20,"x_max":838,"o":"m 673 665 q 650 608 673 632 l 499 608 l 435 88 q 324 -141 418 -50 q 86 -235 228 -235 q -20 -211 30 -235 q 42 -109 -8 -142 q 180 -155 91 -155 q 305 58 277 -155 l 374 608 l 267 608 l 267 629 q 279 659 269 642 l 383 687 l 396 787 q 498 1015 414 927 q 720 1109 587 1109 q 786 1101 752 1109 q 838 1086 820 1093 q 775 984 823 1017 q 642 1030 724 1030 q 545 914 583 1030 q 526 818 532 874 l 508 682 q 673 688 580 682 q 673 682 673 685 l 673 674 q 673 665 673 670 z "},"Ǽ":{"ha":1392,"x_min":47,"x_max":1338,"o":"m 54 58 l 158 87 l 652 933 l 604 945 l 599 954 l 608 1012 l 1324 1012 l 1301 806 q 1246 809 1275 801 l 1206 932 l 826 932 l 826 557 l 1129 557 l 1163 653 q 1216 653 1182 658 l 1216 380 q 1163 380 1187 376 l 1129 476 l 826 476 l 826 79 l 1222 79 l 1279 244 q 1332 244 1302 251 l 1338 0 l 597 0 l 594 6 l 600 58 l 698 87 l 698 348 l 402 348 l 251 87 l 343 64 l 348 54 l 338 0 l 52 0 l 47 6 l 54 58 m 698 428 l 698 857 l 449 428 l 698 428 m 729 1091 q 695 1106 709 1095 q 672 1143 682 1117 q 819 1310 753 1216 q 855 1369 840 1340 q 943 1295 916 1352 q 793 1136 887 1211 q 729 1091 762 1112 z "},"ǽ":{"ha":1155,"x_min":85,"x_max":1070,"o":"m 1018 154 q 1056 104 1053 139 q 848 -19 952 5 q 790 -24 824 -24 q 717 -14 756 -24 q 644 17 677 -3 q 535 123 577 56 l 515 104 q 311 -24 391 -24 q 140 45 203 -24 q 85 193 85 106 q 125 304 85 269 q 262 354 163 338 q 419 376 362 369 q 483 385 476 384 l 483 444 q 345 626 483 626 q 163 583 276 626 q 136 642 136 603 q 372 711 277 711 q 575 589 536 711 q 690 679 624 646 q 823 711 755 711 q 936 688 890 711 q 1010 627 981 665 q 1070 433 1070 551 q 1064 375 1070 399 q 785 359 1057 359 l 694 359 q 594 361 647 359 q 678 152 595 232 q 844 81 751 81 q 1018 154 936 81 m 650 423 q 947 436 840 423 q 903 570 947 509 q 791 635 857 635 q 667 581 719 635 q 597 423 610 523 l 650 423 m 509 165 q 483 303 483 223 q 291 291 376 303 q 227 262 247 282 q 206 210 206 243 q 215 155 206 177 q 240 114 224 132 q 328 73 276 73 q 471 134 385 73 q 509 165 493 151 m 577 800 q 519 852 536 807 q 703 1078 637 958 q 791 1003 764 1061 q 641 845 736 920 q 577 800 610 821 z "},"Ș":{"ha":811,"x_min":91,"x_max":734,"o":"m 138 276 q 192 267 168 279 q 199 152 192 182 q 342 72 256 100 q 432 58 387 58 q 510 67 478 58 q 566 96 543 76 q 618 229 618 140 q 538 354 618 298 q 458 403 503 380 l 365 449 q 201 552 245 509 q 134 639 156 595 q 113 742 113 682 q 137 853 113 801 q 205 943 161 905 q 435 1023 296 1023 q 716 943 580 1023 l 668 732 q 616 739 645 728 q 614 782 616 762 q 612 823 613 802 q 607 857 610 843 q 370 935 509 935 q 260 891 300 935 q 224 797 224 852 q 247 709 224 741 q 304 651 269 677 q 385 602 340 625 l 479 554 q 645 448 601 492 q 712 360 690 405 q 734 253 734 315 q 708 139 734 191 q 637 50 683 87 q 386 -24 543 -24 q 160 20 254 -24 q 91 64 118 39 l 138 276 m 331 -123 q 350 -82 331 -98 q 444 -62 397 -43 q 490 -105 476 -75 q 497 -144 497 -120 q 491 -196 497 -169 q 477 -245 486 -223 q 366 -362 443 -326 q 340 -346 345 -357 q 335 -327 336 -335 q 355 -304 341 -327 q 382 -235 382 -260 q 378 -199 382 -211 q 369 -179 374 -186 q 356 -166 363 -171 q 344 -156 350 -161 q 331 -123 331 -144 z "},"ș":{"ha":579,"x_min":59,"x_max":527,"o":"m 450 573 q 273 640 363 640 q 191 582 212 640 q 184 539 184 565 q 199 490 184 513 q 238 448 214 467 q 293 415 262 430 l 355 385 q 469 315 439 344 q 527 176 527 255 q 452 30 527 87 q 271 -24 380 -24 q 130 -6 180 -24 q 59 27 79 13 q 109 131 64 90 q 252 53 175 74 q 303 46 278 46 q 350 52 328 46 q 388 69 372 57 q 425 136 425 95 q 411 200 425 177 q 372 241 396 223 q 317 273 348 258 l 254 301 q 142 369 172 338 q 83 511 83 429 q 153 654 83 596 q 324 711 222 711 q 505 680 420 711 q 484 620 500 649 q 450 573 467 590 m 212 -123 q 231 -82 212 -98 q 325 -62 279 -43 q 372 -105 357 -75 q 378 -144 378 -120 q 373 -196 378 -169 q 358 -245 367 -223 q 247 -362 324 -326 q 222 -346 227 -357 q 216 -327 217 -335 q 236 -304 222 -327 q 263 -235 263 -260 q 259 -199 263 -211 q 250 -179 256 -186 q 238 -166 244 -171 q 225 -156 231 -161 q 212 -123 212 -144 z "},"ȷ":{"ha":464,"x_min":56,"x_max":305,"o":"m 197 535 l 104 575 l 98 583 l 104 620 l 294 698 l 305 692 l 305 -9 q 226 -251 305 -154 q 79 -363 174 -315 q 56 -305 58 -342 q 151 -212 110 -283 q 197 -31 197 -132 l 197 535 z "},"ˆ":{"ha":583,"x_min":56,"x_max":541,"o":"m 101 800 q 72 822 81 808 q 56 848 62 836 q 83 876 65 857 q 161 968 136 936 l 239 1066 q 256 1089 252 1084 q 351 1089 303 1099 q 372 1059 357 1080 q 541 846 530 859 q 509 808 529 818 q 491 800 502 804 q 412 872 451 829 q 313 987 338 955 l 296 987 q 255 941 280 968 l 203 888 q 101 800 140 824 z "},"ˇ":{"ha":583,"x_min":66,"x_max":521,"o":"m 243 805 q 225 831 237 814 q 133 956 155 929 q 95 1002 133 956 q 66 1035 79 1022 q 89 1068 79 1059 q 113 1083 99 1077 q 245 951 165 1048 q 282 907 245 951 l 300 907 q 416 1038 383 1006 q 471 1085 450 1069 q 509 1060 502 1072 q 521 1038 517 1048 q 338 805 351 828 q 289 800 315 800 q 243 805 262 800 z "},"˘":{"ha":505,"x_min":53,"x_max":454,"o":"m 251 821 q 174 837 208 821 q 116 879 140 852 q 53 1010 71 926 q 109 1027 76 1029 q 202 914 133 941 q 254 905 226 905 q 402 1027 368 905 q 454 1008 435 1029 q 388 882 441 938 q 251 821 330 821 z "},"˙":{"ha":269,"x_min":54,"x_max":220,"o":"m 87 781 q 78 790 87 781 q 61 812 68 798 q 54 842 54 827 q 60 871 54 857 q 77 898 66 886 q 124 925 101 925 q 163 919 147 925 q 191 902 178 913 q 220 856 220 878 q 213 819 220 834 q 194 792 206 804 q 134 764 168 764 q 87 781 106 764 z "},"˚":{"ha":397,"x_min":45,"x_max":363,"o":"m 199 825 q 139 837 168 825 q 90 867 111 848 q 45 972 45 909 q 98 1083 45 1036 q 212 1128 147 1128 q 320 1088 278 1128 q 363 985 363 1048 q 313 869 363 916 q 199 825 265 825 m 202 1063 q 132 986 132 1063 q 183 895 132 922 q 210 888 197 888 q 275 966 275 888 q 251 1038 275 1008 q 202 1063 229 1063 z "},"˛":{"ha":389,"x_min":52,"x_max":340,"o":"m 161 -191 q 218 -244 161 -244 q 276 -226 243 -244 q 310 -208 309 -208 q 323 -214 315 -208 q 340 -249 340 -229 q 249 -312 296 -294 q 170 -331 201 -331 q 118 -322 139 -331 q 82 -296 97 -313 q 52 -206 52 -262 q 122 -60 52 -134 q 193 0 153 -28 l 242 20 l 287 0 q 234 -43 261 -13 q 193 -94 206 -73 q 161 -191 161 -142 z "},"˜":{"ha":596,"x_min":52,"x_max":545,"o":"m 376 940 q 498 1016 422 940 q 534 988 524 1004 q 545 966 544 972 q 370 841 437 841 q 305 862 339 841 q 254 893 271 884 q 217 903 236 903 q 98 827 166 903 q 62 857 72 842 q 52 879 52 873 q 197 997 132 972 q 230 1002 212 1002 q 268 992 248 1002 q 304 971 287 983 q 339 950 322 960 q 376 940 357 940 z "},"˝":{"ha":576,"x_min":52,"x_max":527,"o":"m 117 787 q 52 826 75 781 q 161 1020 114 911 q 186 1085 176 1054 q 286 1029 252 1078 q 171 844 251 939 q 117 787 145 814 m 271 840 q 435 1081 378 956 q 527 1014 500 1069 q 392 844 485 931 q 332 794 363 817 q 286 817 307 792 q 271 840 277 827 z "},"Δ":{"ha":1273,"x_min":137,"x_max":1136,"o":"m 604 1028 l 625 1028 l 1136 18 l 1125 1 l 146 1 l 137 15 l 604 1028 m 956 81 l 589 823 l 252 81 l 956 81 z "},"Ω":{"ha":1388,"x_min":120,"x_max":1268,"o":"m 120 266 q 176 274 148 276 l 236 123 l 497 105 q 315 296 395 173 q 226 578 222 440 q 477 1006 231 892 q 695 1053 581 1053 q 892 1025 808 1053 q 1038 941 977 998 q 1162 602 1166 822 q 1072 331 1160 485 q 893 107 993 193 l 1152 123 l 1213 274 q 1268 266 1239 276 l 1236 0 l 781 0 l 781 113 q 956 305 890 178 q 1027 602 1027 439 q 924 897 1027 799 q 699 977 839 977 q 385 763 458 977 q 359 605 359 687 q 371 471 359 523 q 403 372 383 419 q 450 285 423 326 q 505 211 476 244 q 622 113 563 145 l 622 0 l 153 0 l 120 266 z "},"π":{"ha":1042,"x_min":83,"x_max":960,"o":"m 920 142 q 722 -16 865 -16 q 633 117 635 -16 q 635 190 633 154 l 665 648 l 406 648 l 391 292 q 370 137 383 176 q 340 77 356 98 q 304 37 325 56 q 207 -16 265 1 q 142 18 174 -15 q 109 77 111 51 q 162 97 128 81 q 219 129 197 113 q 259 166 241 144 q 288 213 277 188 q 310 332 305 254 l 325 648 l 283 648 q 144 596 164 648 q 107 604 120 595 q 83 634 94 612 q 321 759 138 759 l 757 759 q 892 831 855 759 q 948 819 914 843 q 960 807 956 813 q 826 658 930 685 q 747 648 791 648 l 724 177 q 758 111 724 111 q 848 161 808 111 q 867 194 860 176 q 907 173 895 189 q 920 142 920 158 z "},"Ḃ":{"ha":926,"x_min":69,"x_max":845,"o":"m 81 58 l 169 87 l 169 925 l 74 948 l 69 957 l 79 1012 l 465 1012 q 712 952 631 1012 q 793 767 793 892 q 747 631 793 692 q 626 559 701 570 l 626 551 q 845 292 845 518 q 785 119 845 191 q 553 7 708 28 q 466 0 509 0 l 77 0 l 74 6 l 81 58 m 434 933 q 296 920 366 933 l 296 562 l 367 566 l 438 568 q 506 570 478 570 q 558 582 534 570 q 604 616 582 593 q 659 760 659 672 q 434 933 659 933 m 570 483 q 467 497 523 497 q 296 487 411 497 l 296 98 q 431 77 354 77 q 557 90 509 77 q 640 130 606 103 q 710 292 710 186 q 570 483 710 440 m 501 1146 q 492 1136 501 1146 q 467 1119 483 1126 q 436 1111 452 1111 q 406 1117 420 1111 q 379 1134 391 1124 q 353 1180 353 1158 q 359 1218 353 1203 q 376 1244 365 1232 q 433 1272 400 1272 q 483 1255 463 1272 q 519 1195 519 1225 q 501 1146 519 1166 z "},"ḃ":{"ha":810,"x_min":1,"x_max":730,"o":"m 376 -24 q 114 40 250 -24 l 114 960 l 5 987 l 1 997 l 5 1034 l 211 1109 l 222 1103 l 222 626 q 416 711 337 711 q 552 685 496 711 q 647 614 608 660 q 730 372 730 520 q 632 93 730 208 q 376 -24 531 -24 m 222 566 l 222 140 q 338 62 264 89 q 411 52 369 52 q 491 72 452 52 q 557 129 529 92 q 616 329 616 208 q 552 535 616 461 q 393 607 489 607 q 222 566 296 607 m 481 781 q 472 790 481 781 q 455 812 463 798 q 448 842 448 827 q 454 871 448 857 q 471 898 460 886 q 518 925 495 925 q 557 919 541 925 q 585 902 572 913 q 614 856 614 878 q 607 819 614 834 q 588 792 600 804 q 528 764 562 764 q 481 781 500 764 z "},"Ḋ":{"ha":1039,"x_min":26,"x_max":948,"o":"m 33 58 l 133 87 l 133 918 l 35 943 l 31 953 l 40 1012 l 477 1012 q 821 873 693 1012 q 948 509 948 736 q 798 143 948 290 q 437 0 650 0 l 29 0 l 26 6 l 33 58 m 426 932 q 258 918 347 932 l 258 104 q 446 88 351 88 q 605 112 541 88 q 715 182 669 135 q 811 471 811 283 q 697 817 811 692 q 426 932 592 932 m 588 1146 q 579 1136 588 1146 q 554 1119 570 1126 q 523 1111 538 1111 q 493 1117 507 1111 q 466 1134 478 1124 q 439 1180 439 1158 q 446 1218 439 1203 q 463 1244 452 1232 q 519 1272 487 1272 q 570 1255 550 1272 q 606 1195 606 1225 q 588 1146 606 1166 z "},"ḋ":{"ha":810,"x_min":71,"x_max":811,"o":"m 430 711 q 584 682 512 711 l 584 960 l 471 987 l 463 997 l 471 1034 l 681 1109 l 692 1103 l 692 136 q 697 113 692 121 q 713 105 702 105 q 738 106 724 105 q 768 110 752 108 l 803 113 l 811 104 l 795 47 l 613 -16 l 603 -6 l 592 70 q 450 -16 518 9 q 404 -24 425 -24 q 159 76 250 -24 q 71 321 71 172 q 170 597 71 486 q 430 711 271 711 m 584 130 l 584 553 q 473 625 543 600 q 399 635 442 635 q 316 616 356 635 q 246 562 275 597 q 185 364 185 488 q 267 153 185 234 q 426 81 340 81 q 584 130 511 81 m 242 781 q 233 790 242 781 q 216 812 224 798 q 209 842 209 827 q 215 871 209 857 q 232 898 221 886 q 279 925 256 925 q 318 919 302 925 q 347 902 334 913 q 375 856 375 878 q 368 819 375 834 q 349 792 361 804 q 290 764 323 764 q 242 781 261 764 z "},"Ḟ":{"ha":923,"x_min":73,"x_max":817,"o":"m 79 58 l 176 87 l 176 925 l 82 948 l 77 957 l 87 1012 l 817 1012 l 793 806 q 737 809 768 801 l 698 932 l 304 932 l 304 531 l 594 531 l 625 624 q 677 624 651 628 l 677 360 q 625 360 648 352 l 591 450 l 304 450 l 304 87 l 451 64 l 456 54 l 446 0 l 76 0 l 73 6 l 79 58 m 537 1146 q 528 1136 537 1146 q 503 1119 519 1126 q 472 1111 488 1111 q 442 1117 456 1111 q 415 1134 427 1124 q 389 1180 389 1158 q 395 1218 389 1203 q 412 1244 401 1232 q 469 1272 436 1272 q 519 1255 499 1272 q 555 1195 555 1225 q 537 1146 555 1166 z "},"ḟ":{"ha":463,"x_min":36,"x_max":541,"o":"m 439 688 q 442 651 442 671 q 427 608 442 631 l 254 608 l 254 87 l 397 64 l 400 54 l 392 0 l 54 0 l 50 6 l 56 58 l 146 87 l 146 608 l 39 608 q 36 632 36 622 q 45 659 36 647 l 146 687 l 146 787 q 218 1015 146 926 q 431 1109 296 1109 q 541 1086 482 1109 q 524 1025 540 1053 q 491 984 509 998 q 345 1030 435 1030 q 262 914 286 1030 q 254 818 254 874 l 254 682 q 439 688 326 682 m 153 1124 q 144 1132 153 1124 q 127 1155 134 1141 q 119 1184 119 1169 q 125 1214 119 1199 q 142 1240 132 1229 q 190 1267 167 1267 q 229 1261 213 1267 q 257 1244 244 1255 q 286 1199 286 1221 q 279 1162 286 1177 q 260 1135 272 1147 q 200 1107 233 1107 q 153 1124 172 1107 z "},"Ṁ":{"ha":1388,"x_min":75,"x_max":1312,"o":"m 82 58 l 186 87 l 224 924 l 102 945 l 98 954 l 108 1012 l 350 1012 l 701 220 l 1024 1012 l 1281 1012 l 1292 1004 l 1280 945 l 1155 924 l 1193 87 l 1307 64 l 1312 54 l 1301 0 l 966 0 l 963 6 l 970 58 l 1067 87 l 1035 831 l 718 68 q 693 43 711 54 q 656 32 675 32 l 297 815 l 267 87 l 363 64 l 368 54 l 358 0 l 79 0 l 75 6 l 82 58 m 759 1146 q 750 1136 759 1146 q 725 1119 741 1126 q 694 1111 709 1111 q 664 1117 678 1111 q 637 1134 649 1124 q 610 1180 610 1158 q 616 1218 610 1203 q 633 1244 623 1232 q 690 1272 658 1272 q 741 1255 721 1272 q 777 1195 777 1225 q 759 1146 777 1166 z "},"ṁ":{"ha":1386,"x_min":101,"x_max":1331,"o":"m 519 608 q 311 556 425 608 l 311 87 l 419 64 l 422 54 l 414 0 l 111 0 l 106 6 l 113 58 l 202 87 l 202 540 l 108 581 l 101 589 l 108 626 l 286 698 l 298 692 l 298 608 q 553 711 454 711 q 739 608 685 711 q 774 631 745 615 l 827 661 q 984 711 922 711 q 1086 694 1046 711 q 1153 648 1126 678 q 1208 479 1208 588 l 1208 87 l 1326 64 l 1331 54 l 1322 0 l 999 0 l 996 6 l 1002 58 l 1099 87 l 1099 447 q 962 608 1099 608 q 758 559 863 608 q 768 479 768 510 l 768 87 l 876 64 l 880 54 l 871 0 l 557 0 l 555 6 l 561 58 l 659 87 l 659 447 q 519 608 659 608 m 684 781 q 675 790 684 781 q 658 812 665 798 q 650 842 650 827 q 656 871 650 857 q 673 898 663 886 q 721 925 698 925 q 760 919 744 925 q 788 902 775 913 q 817 856 817 878 q 810 819 817 834 q 791 792 803 804 q 731 764 764 764 q 684 781 703 764 z "},"Ṗ":{"ha":811,"x_min":39,"x_max":758,"o":"m 395 395 q 271 401 314 395 l 271 87 l 418 64 l 422 54 l 413 0 l 44 0 l 39 7 l 47 58 l 143 87 l 143 925 l 49 948 l 44 957 l 54 1012 l 439 1012 q 677 933 597 1012 q 758 701 758 854 q 651 468 758 549 q 395 395 557 395 m 391 932 q 271 919 328 932 l 271 480 q 364 475 300 475 q 474 489 428 475 q 553 530 520 503 q 621 701 621 588 q 566 858 621 791 q 391 932 503 932 m 485 1146 q 476 1136 485 1146 q 451 1119 467 1126 q 420 1111 435 1111 q 390 1117 404 1111 q 363 1134 375 1124 q 336 1180 336 1158 q 342 1218 336 1203 q 359 1244 349 1232 q 416 1272 384 1272 q 467 1255 447 1272 q 503 1195 503 1225 q 485 1146 503 1166 z "},"ṗ":{"ha":811,"x_min":30,"x_max":747,"o":"m 648 93 q 536 7 602 39 q 399 -24 471 -24 q 239 0 326 -24 l 239 -264 l 374 -288 l 378 -297 l 370 -352 l 39 -352 l 35 -343 l 41 -294 l 131 -264 l 131 540 l 36 583 l 30 591 l 36 628 l 215 698 l 226 692 l 226 618 q 444 711 342 711 q 665 614 581 711 q 747 372 747 520 q 648 93 747 207 m 383 607 q 239 567 315 607 l 239 140 q 353 62 281 88 q 427 52 385 52 q 507 72 469 52 q 574 129 546 92 q 633 329 633 208 q 568 535 633 461 q 383 607 506 607 m 399 781 q 390 790 399 781 q 373 812 380 798 q 366 842 366 827 q 372 871 366 857 q 389 898 378 886 q 436 925 413 925 q 475 919 459 925 q 503 902 490 913 q 532 856 532 878 q 525 819 532 834 q 506 792 518 804 q 446 764 479 764 q 399 781 418 764 z "},"Ṡ":{"ha":811,"x_min":91,"x_max":734,"o":"m 138 276 q 192 267 168 279 q 199 152 192 182 q 342 72 256 100 q 432 58 387 58 q 510 67 478 58 q 566 96 543 76 q 618 229 618 140 q 538 354 618 298 q 458 403 503 380 l 365 449 q 201 552 245 509 q 134 639 156 595 q 113 742 113 682 q 137 853 113 801 q 205 943 161 905 q 435 1023 296 1023 q 716 943 580 1023 l 668 732 q 616 739 645 728 q 614 782 616 762 q 612 823 613 802 q 607 857 610 843 q 370 935 509 935 q 260 891 300 935 q 224 797 224 852 q 247 709 224 741 q 304 651 269 677 q 385 602 340 625 l 479 554 q 645 448 601 492 q 712 360 690 405 q 734 253 734 315 q 708 139 734 191 q 637 50 683 87 q 386 -24 543 -24 q 160 20 254 -24 q 91 64 118 39 l 138 276 m 471 1146 q 462 1136 471 1146 q 437 1119 453 1126 q 406 1111 422 1111 q 376 1117 391 1111 q 349 1134 361 1124 q 323 1180 323 1158 q 329 1218 323 1203 q 346 1244 335 1232 q 403 1272 370 1272 q 453 1255 433 1272 q 489 1195 489 1225 q 471 1146 489 1166 z "},"ṡ":{"ha":579,"x_min":59,"x_max":527,"o":"m 450 573 q 273 640 363 640 q 191 582 212 640 q 184 539 184 565 q 199 490 184 513 q 238 448 214 467 q 293 415 262 430 l 355 385 q 469 315 439 344 q 527 176 527 255 q 452 30 527 87 q 271 -24 380 -24 q 130 -6 180 -24 q 59 27 79 13 q 109 131 64 90 q 252 53 175 74 q 303 46 278 46 q 350 52 328 46 q 388 69 372 57 q 425 136 425 95 q 411 200 425 177 q 372 241 396 223 q 317 273 348 258 l 254 301 q 142 369 172 338 q 83 511 83 429 q 153 654 83 596 q 324 711 222 711 q 505 680 420 711 q 484 620 500 649 q 450 573 467 590 m 238 781 q 228 790 238 781 q 212 812 219 798 q 204 842 204 827 q 210 871 204 857 q 227 898 216 886 q 275 925 252 925 q 313 919 298 925 q 342 902 329 913 q 370 856 370 878 q 363 819 370 834 q 345 792 357 804 q 285 764 318 764 q 238 781 256 764 z "},"Ṫ":{"ha":924,"x_min":55,"x_max":868,"o":"m 252 58 l 397 87 l 397 929 l 271 929 q 169 903 197 929 q 113 787 144 880 q 55 798 73 787 l 81 1012 l 840 1012 l 868 798 q 810 787 846 787 q 759 900 779 881 q 715 924 739 918 q 652 929 691 929 l 526 929 l 526 87 l 673 58 l 677 49 l 667 0 l 250 0 l 246 6 l 252 58 m 527 1146 q 518 1136 527 1146 q 493 1119 509 1126 q 462 1111 477 1111 q 432 1117 446 1111 q 405 1134 417 1124 q 378 1180 378 1158 q 385 1218 378 1203 q 401 1244 391 1232 q 458 1272 426 1272 q 509 1255 489 1272 q 545 1195 545 1225 q 527 1146 545 1166 z "},"ṫ":{"ha":578,"x_min":47,"x_max":522,"o":"m 339 79 q 494 111 414 79 q 522 64 519 96 q 323 -24 402 -24 q 183 37 231 -24 q 141 182 141 90 l 141 608 l 52 608 q 47 631 47 620 q 57 659 47 646 l 156 693 l 205 876 l 252 876 l 252 682 q 488 688 327 682 q 488 682 488 685 l 489 665 q 473 608 489 627 l 252 608 l 252 187 q 269 119 252 142 q 339 79 300 79 m 152 954 q 143 963 152 954 q 126 985 134 971 q 119 1015 119 1000 q 125 1044 119 1029 q 142 1071 131 1059 q 189 1098 166 1098 q 228 1092 212 1098 q 256 1075 243 1086 q 285 1029 285 1051 q 278 992 285 1007 q 259 965 271 977 q 199 937 233 937 q 152 954 171 937 z "},"Ẁ":{"ha":1501,"x_min":-29,"x_max":1531,"o":"m 84 925 l -24 948 l -29 957 l -20 1012 l 317 1012 l 320 1006 l 314 954 l 226 925 l 462 115 l 710 949 q 831 994 752 991 l 1080 110 l 1326 925 l 1237 948 l 1232 957 l 1242 1012 l 1527 1012 l 1531 1006 l 1525 954 l 1421 925 l 1128 16 q 1002 -16 1079 -13 l 751 817 l 511 16 q 384 -16 460 -13 l 84 925 m 703 1369 q 886 1143 766 1251 q 863 1106 877 1117 q 829 1091 849 1095 q 656 1241 733 1150 q 615 1295 632 1268 q 703 1369 641 1352 z "},"ẁ":{"ha":1039,"x_min":-19,"x_max":1063,"o":"m 43 605 l -14 625 l -19 633 l -12 687 l 254 687 l 259 680 l 252 631 l 178 605 l 317 128 l 500 650 q 539 672 516 666 q 574 680 562 679 l 751 132 l 904 607 l 807 625 l 802 633 l 810 687 l 1061 687 l 1063 680 l 1055 625 l 989 605 l 770 12 q 701 -16 757 -16 l 516 492 l 332 12 q 304 -9 321 -4 q 264 -16 286 -14 l 43 605 m 536 800 q 322 1003 403 882 q 410 1078 349 1061 q 541 903 456 995 q 594 852 568 876 q 536 800 578 807 z "},"Ẃ":{"ha":1501,"x_min":-29,"x_max":1531,"o":"m 84 925 l -24 948 l -29 957 l -20 1012 l 317 1012 l 320 1006 l 314 954 l 226 925 l 462 115 l 710 949 q 831 994 752 991 l 1080 110 l 1326 925 l 1237 948 l 1232 957 l 1242 1012 l 1527 1012 l 1531 1006 l 1525 954 l 1421 925 l 1128 16 q 1002 -16 1079 -13 l 751 817 l 511 16 q 384 -16 460 -13 l 84 925 m 672 1091 q 638 1106 652 1095 q 615 1143 625 1117 q 762 1310 696 1216 q 798 1369 783 1340 q 886 1295 859 1352 q 736 1136 830 1211 q 672 1091 705 1112 z "},"ẃ":{"ha":1039,"x_min":-19,"x_max":1063,"o":"m 43 605 l -14 625 l -19 633 l -12 687 l 254 687 l 259 680 l 252 631 l 178 605 l 317 128 l 500 650 q 539 672 516 666 q 574 680 562 679 l 751 132 l 904 607 l 807 625 l 802 633 l 810 687 l 1061 687 l 1063 680 l 1055 625 l 989 605 l 770 12 q 701 -16 757 -16 l 516 492 l 332 12 q 304 -9 321 -4 q 264 -16 286 -14 l 43 605 m 537 800 q 479 852 496 807 q 663 1078 597 958 q 751 1003 724 1061 q 601 845 696 920 q 537 800 570 821 z "},"Ẅ":{"ha":1501,"x_min":-29,"x_max":1531,"o":"m 84 925 l -24 948 l -29 957 l -20 1012 l 317 1012 l 320 1006 l 314 954 l 226 925 l 462 115 l 710 949 q 831 994 752 991 l 1080 110 l 1326 925 l 1237 948 l 1232 957 l 1242 1012 l 1527 1012 l 1531 1006 l 1525 954 l 1421 925 l 1128 16 q 1002 -16 1079 -13 l 751 817 l 511 16 q 384 -16 460 -13 l 84 925 m 938 1181 q 932 1175 938 1181 q 911 1161 926 1168 q 880 1153 895 1153 q 849 1159 864 1153 q 823 1177 835 1166 q 797 1224 797 1202 q 803 1261 797 1246 q 820 1288 809 1276 q 868 1315 844 1315 q 906 1309 891 1315 q 934 1293 922 1303 q 963 1246 963 1268 q 956 1209 963 1224 q 938 1181 949 1194 m 687 1188 q 678 1178 687 1188 q 654 1161 669 1168 q 623 1153 638 1153 q 593 1159 608 1153 q 566 1177 578 1166 q 539 1225 539 1203 q 545 1261 539 1246 q 562 1288 551 1276 q 620 1315 587 1315 q 670 1298 650 1315 q 705 1238 705 1267 q 687 1188 705 1208 z "},"ẅ":{"ha":1039,"x_min":-19,"x_max":1063,"o":"m 43 605 l -14 625 l -19 633 l -12 687 l 254 687 l 259 680 l 252 631 l 178 605 l 317 128 l 500 650 q 539 672 516 666 q 574 680 562 679 l 751 132 l 904 607 l 807 625 l 802 633 l 810 687 l 1061 687 l 1063 680 l 1055 625 l 989 605 l 770 12 q 701 -16 757 -16 l 516 492 l 332 12 q 304 -9 321 -4 q 264 -16 286 -14 l 43 605 m 744 854 q 735 844 744 854 q 710 827 726 835 q 680 819 695 819 q 650 826 665 819 q 624 842 635 832 q 596 889 596 867 q 602 926 596 911 q 619 954 608 941 q 676 981 644 981 q 726 964 707 981 q 762 904 762 934 q 744 854 762 873 m 460 854 q 451 844 460 854 q 426 827 441 835 q 395 819 410 819 q 365 826 380 819 q 339 842 351 832 q 312 889 312 866 q 318 926 312 911 q 335 954 324 941 q 392 981 359 981 q 442 964 422 981 q 478 904 478 934 q 460 854 478 873 z "},"Ỳ":{"ha":811,"x_min":-40,"x_max":852,"o":"m 248 58 l 345 87 l 345 370 l 59 925 l -35 948 l -40 957 l -30 1012 l 318 1012 l 321 1006 l 315 954 l 213 925 l 423 462 l 635 920 l 536 948 l 531 957 l 541 1012 l 848 1012 l 852 1006 l 845 954 l 745 925 l 473 379 l 473 87 l 572 64 l 577 54 l 568 0 l 245 0 l 241 6 l 248 58 m 357 1369 q 541 1143 420 1251 q 518 1106 532 1117 q 484 1091 504 1095 q 311 1241 388 1150 q 270 1295 287 1268 q 357 1369 296 1352 z "},"ỳ":{"ha":810,"x_min":42,"x_max":780,"o":"m 180 -305 q 366 3 307 -115 l 125 605 l 47 625 l 42 633 l 50 687 l 332 687 l 336 680 l 330 631 l 254 605 l 426 110 l 432 110 q 508 305 475 215 l 565 463 q 612 607 592 542 l 515 625 l 511 633 l 519 687 l 775 687 l 780 680 l 770 625 l 699 605 l 498 104 q 423 -68 462 16 l 353 -218 l 281 -365 q 208 -335 243 -365 q 180 -305 192 -322 m 433 800 q 218 1003 299 882 q 307 1078 245 1061 q 437 903 352 995 q 490 852 464 876 q 433 800 474 807 z "},"–":{"ha":811,"x_min":98,"x_max":707,"o":"m 701 425 q 707 393 707 405 q 701 361 707 381 l 110 361 q 110 425 98 393 l 701 425 z "},"—":{"ha":1155,"x_min":96,"x_max":1054,"o":"m 1048 425 q 1054 393 1054 402 q 1048 361 1054 384 l 107 361 q 107 425 96 393 l 1048 425 z "},"‘":{"ha":347,"x_min":82,"x_max":264,"o":"m 239 801 q 248 773 248 789 q 241 742 248 757 q 222 715 234 728 q 174 687 195 687 q 136 696 152 687 q 109 718 121 705 q 82 783 82 749 q 89 847 82 817 q 106 904 95 878 q 234 1063 147 1004 q 264 1029 261 1057 q 251 1016 262 1029 q 226 984 239 1003 q 191 902 191 933 q 200 853 191 870 q 219 824 209 836 l 239 801 z "},"’":{"ha":347,"x_min":83,"x_max":264,"o":"m 107 907 q 98 935 98 919 q 105 966 98 951 q 124 993 113 981 q 173 1021 151 1021 q 210 1013 195 1021 q 238 990 226 1004 q 264 926 264 960 q 258 861 264 892 q 241 804 252 830 q 113 645 199 704 q 83 680 85 651 q 96 692 84 680 q 121 724 107 705 q 156 807 156 775 q 147 855 156 838 q 127 884 138 872 l 107 907 z "},"‚":{"ha":347,"x_min":83,"x_max":264,"o":"m 107 33 q 98 60 98 44 q 105 91 98 77 q 124 118 113 106 q 173 146 151 146 q 210 138 195 146 q 238 115 226 129 q 264 51 264 85 q 258 -14 264 17 q 241 -71 252 -45 q 113 -230 199 -171 q 83 -195 85 -224 q 96 -182 84 -195 q 121 -151 107 -170 q 156 -68 156 -100 q 147 -20 156 -37 q 127 9 138 -3 l 107 33 z "},"“":{"ha":579,"x_min":79,"x_max":500,"o":"m 237 800 q 246 772 246 788 q 238 741 246 755 q 220 714 231 726 q 171 686 193 686 q 134 694 149 686 q 106 717 118 703 q 79 781 79 747 q 86 846 79 815 q 103 903 92 877 q 231 1062 144 1003 q 261 1027 258 1056 q 248 1015 260 1027 q 223 983 237 1002 q 188 900 188 932 q 197 852 188 869 q 216 823 206 835 l 237 800 m 476 800 q 485 772 485 788 q 478 741 485 755 q 459 714 471 726 q 410 686 432 686 q 373 694 389 686 q 345 717 357 703 q 319 781 319 747 q 325 846 319 815 q 342 903 332 877 q 471 1062 384 1003 q 500 1027 498 1056 q 488 1015 499 1027 q 463 983 476 1002 q 427 900 427 932 q 436 852 427 869 q 456 823 446 835 l 476 800 z "},"”":{"ha":579,"x_min":79,"x_max":500,"o":"m 104 907 q 95 935 95 919 q 102 966 95 951 q 121 993 109 981 q 170 1021 148 1021 q 207 1013 191 1021 q 235 990 222 1004 q 261 926 261 960 q 255 861 261 892 q 237 804 248 830 q 109 645 196 704 q 79 680 82 651 q 92 692 81 680 q 117 724 104 705 q 153 807 153 775 q 143 855 153 838 q 124 884 134 872 l 104 907 m 342 907 q 334 935 334 919 q 341 966 334 951 q 359 993 348 981 q 408 1021 387 1021 q 446 1013 430 1021 q 473 990 461 1004 q 500 926 500 960 q 493 861 500 892 q 476 804 487 830 q 348 645 435 704 q 318 680 321 651 q 331 692 319 680 q 356 724 342 705 q 391 807 391 775 q 382 855 391 838 q 363 884 373 872 l 342 907 z "},"„":{"ha":579,"x_min":79,"x_max":500,"o":"m 104 33 q 95 60 95 44 q 102 91 95 77 q 121 118 109 106 q 170 146 148 146 q 207 138 191 146 q 235 115 222 129 q 261 51 261 85 q 255 -14 261 17 q 237 -71 248 -45 q 109 -230 196 -171 q 79 -195 82 -224 q 92 -182 81 -195 q 117 -151 104 -170 q 153 -68 153 -100 q 143 -20 153 -37 q 124 9 134 -3 l 104 33 m 342 33 q 334 60 334 44 q 341 91 334 77 q 359 118 348 106 q 408 146 387 146 q 446 138 430 146 q 473 115 461 129 q 500 51 500 85 q 493 -14 500 17 q 476 -71 487 -45 q 348 -230 435 -171 q 318 -195 321 -224 q 331 -182 319 -195 q 356 -151 342 -170 q 391 -68 391 -100 q 382 -20 391 -37 q 363 9 373 -3 l 342 33 z "}}}
